<ttFont>
<head>
    <!-- Most of this table will be recalculated by the compiler -->
    <tableVersion value="1.0"/>
    <fontRevision value="1.002"/>
    <checkSumAdjustment value="0xe47c4246"/>
    <magicNumber value="0x5f0f3cf5"/>
    <flags value="00000000 00001011"/>
    <unitsPerEm value="1000"/>
    <created value="Thu Jan 14 16:20:48 2016"/>
    <modified value="Thu Jan  2 08:44:59 2020"/>
    <xMin value="-1650"/>
    <yMin value="-300"/>
    <xMax value="699"/>
    <yMax value="1155"/>
    <macStyle value="00000000 00000000"/>
    <lowestRecPPEM value="8"/>
    <fontDirectionHint value="2"/>
    <indexToLocFormat value="0"/>
    <glyphDataFormat value="0"/>
  </head>
          <CharString index="0">
            -209 -185 -81 -145 0 -146 0 -143 79 -142 206 -184 rrcurveto
            99 86 rlineto
            -184 155 -60 116 0 118 0 116 56 111 190 159 rrcurveto
            return
          </CharString>
          <CharString index="1">
            209 185 81 146 0 145 0 143 -80 142 -206 184 rrcurveto
            -98 -86 rlineto
            184 -155 59 -116 0 -118 0 -116 -56 -111 -190 -159 rrcurveto
            return
          </CharString>
          <CharString index="2">
            149 92 134 201 195 -72 118 -153 -149 -92 -134 -201 -195 72 -118 153 hvcurveto
            return
          </CharString>
          <CharString index="3">
            149 10 rlineto
            -49 206 -50 203 -58 206 rrcurveto
            -203 hlineto
            return
          </CharString>
          <CharString index="4">
            -58 -206 -50 -208 -49 -206 rrcurveto
            147 hlineto
            10 51 11 51 11 52 rrcurveto
            157 hlineto
            11 -54 11 -53 10 -52 rrcurveto
            return
          </CharString>
          <CharString index="5">
            9 hlineto
            17 -79 18 -82 17 -81 rrcurveto
            -113 hlineto
            17 81 17 82 18 79 rrcurveto
            return
          </CharString>
          <CharString index="6">
            -215 -12 -65 54 0 159 0 128 34 53 240 -12 rrcurveto
            -8 140 rlineto
            -312 -2 -107 -151 0 -175 rrcurveto
            return
          </CharString>
          <CharString index="7">
            0 -190 97 -146 324 30 rrcurveto
            return
          </CharString>
          <CharString index="8">
            0 246 -115 95 -336 -42 rrcurveto
            return
          </CharString>
          <CharString index="9">
            -620 vlineto
            321 -42 130 124 0 239 rrcurveto
            return
          </CharString>
          <CharString index="10">
            0 -149 -28 -56 -130 18 rrcurveto
            393 vlineto
            127 13 31 -75 0 -144 rrcurveto
            return
          </CharString>
          <CharString index="11">
            -258 137 212 106 -212 135 251 121 -398 -620 394 hlineto
            return
          </CharString>
          <CharString index="12">
            0 81 -1 93 0 127 rrcurveto
            -133 hlineto
            1 -62 3 -85 3 -58 -124 6 -48 69 0 136 0 117 30 76 241 -19 rrcurveto
            -9 140 rlineto
            -314 -7 -98 -146 0 -184 0 -229 152 -121 297 66 rrcurveto
            return
          </CharString>
          <CharString index="13">
            132 113 -411 -113 132 -394 -132 -113 407 hlineto
            10 113 -138 0 rlineto
            return
          </CharString>
          <CharString index="14">
            159 18 -169 312 154 299 -155 0 -117 -245 -40 0 0 245 -147 0 rlineto
            return
          </CharString>
          <CharString index="15">
            12 122 -258 0 0 498 -148 0 0 -620 rlineto
            return
          </CharString>
          <CharString index="16">
            119 620 -135 hlineto
            6 -345 -4 0 -172 345 -128 0 0 -620 135 0 -6 345 5 0 rlineto
            return
          </CharString>
          <CharString index="17">
            157 100 121 227 197 -79 107 -144 -157 -100 -121 -227 -197 79 -107 144 hvcurveto
            return
          </CharString>
          <CharString index="18">
            60 33 -71 -146 -135 -23 -60 -60 -60 -33 71 146 135 23 60 60 hvcurveto
            return
          </CharString>
          <CharString index="19">
            158 18 -144 268 rlineto
            57 41 40 51 0 76 0 130 -96 82 -329 -37 rrcurveto
            return
          </CharString>
          <CharString index="20">
            -620 145 200 vlineto
            69 2 rlineto
            return
          </CharString>
          <CharString index="21">
            90 10 46 -33 0 -73 0 -45 -21 -38 -35 -25 rrcurveto
            -80 -2 rlineto
            return
          </CharString>
          <CharString index="22">
            -130 vlineto
            311 -8 107 105 0 102 0 147 -269 40 0 78 0 38 43 15 186 -13 rrcurveto
            return
          </CharString>
          <CharString index="23">
            -8 130 rlineto
            -260 13 -115 -104 0 -98 0 -142 269 -33 0 -88 rrcurveto
            0 -44 -69 -21 -195 13 rrcurveto
            return
          </CharString>
          <CharString index="24">
            164 122 -472 hlineto
            -10 -122 170 0 0 -498 148 0 rlineto
            return
          </CharString>
          <CharString index="25">
            138 87 94 148 hvcurveto
            394 -147 -422 vlineto
            -65 -21 -23 -48 -47 -29 31 74 vhcurveto
            405 -147 -407 vlineto
            -146 80 -83 134 vhcurveto
            return
          </CharString>
          <CharString index="26">
            137 hlineto
            13 117 20 236 13 267 rrcurveto
            -137 0 rlineto
            return
          </CharString>
          <CharString index="27">
            -8 -423 -4 0 rlineto
            -23 92 -14 52 -25 91 rrcurveto
            -73 hlineto
            -23 -91 -10 -51 -22 -93 rrcurveto
            -4 0 -15 423 -141 0 rlineto
            13 -267 19 -236 13 -117 rrcurveto
            133 0 67 267 rlineto
            return
          </CharString>
          <CharString index="28">
            193 413 -151 0 -112 -276 rlineto
            return
          </CharString>
          <CharString index="29">
            -118 279 -155 -6 195 -413 0 -204 rlineto
            return
          </CharString>
          <CharString index="30">
            10 127 -279 -3 269 373 0 123 -422 0 -9 -127 271 3 -271 -373 0 -123 rlineto
            return
          </CharString>
          <CharString index="31">
            339 0 13 112 -216 0 0 658 209 0 0 112 -345 0 rlineto
            return
          </CharString>
          <CharString index="32">
            -10 -112 350 0 0 882 -344 0 0 -112 208 0 0 -658 rlineto
            return
          </CharString>
          <CharString index="33">
            -54 39 -110 86 -62 55 rrcurveto
            -91 -113 rlineto
            78 -47 126 -56 75 -25 rrcurveto
            return
          </CharString>
          <CharString index="34">
            -42 -25 22 37 hvcurveto
            0 43 23 26 129 -14 1 -33 0 -29 2 -25 rrcurveto
            -29 -17 -32 -10 -27 0 rrcurveto
            return
          </CharString>
          <CharString index="35">
            131 7 rlineto
            -5 68 -6 88 0 91 0 201 -73 65 -318 1 rrcurveto
            -13 -119 rlineto
            208 -5 49 -18 7 -77 -205 4 -87 -84 0 -99 rrcurveto
            return
          </CharString>
          <CharString index="36">
            -82 61 -50 89 vhcurveto
            67 0 49 30 36 36 rrcurveto
            return
          </CharString>
          <CharString index="37">
            0 -158 82 -122 323 32 rrcurveto
            14 117 rlineto
            -208 -15 -70 38 0 127 0 87 25 44 246 -15 rrcurveto
            -9 134 rlineto
            -311 4 -92 -129 0 -144 rrcurveto
            return
          </CharString>
          <CharString index="38">
            -59 -40 46 112 94 35 45 61 hvcurveto
            18 0 21 -4 22 -7 1 -106 1 -91 2 -69 rrcurveto
            -18 -13 -18 -7 -26 0 rrcurveto
            return
          </CharString>
          <CharString index="39">
            131 7 rlineto
            -6 108 -2 152 0 247 rrcurveto
            0 204 rlineto
            return
          </CharString>
          <CharString index="40">
            -142 -12 0 -183 rlineto
            -167 -131 -107 -188 -151 75 -88 105 hvcurveto
            55 0 43 27 32 33 rrcurveto
            return
          </CharString>
          <CharString index="41">
            13 117 rlineto
            -202 3 -75 23 -16 84 rrcurveto
            305 8 rlineto
            18 185 -67 112 -145 0 -135 0 -119 -120 0 -158 0 -165 85 -98 338 9 rrcurveto
            return
          </CharString>
          <CharString index="42">
            57 0 23 -37 3 -66 -52 -1 -73 -3 -46 -1 5 80 29 28 54 0 rrcurveto
            return
          </CharString>
          <CharString index="43">
            297 15 68 125 0 194 0 107 -1 159 -2 72 -52 16 -54 9 -52 0 rrcurveto
            -155 -124 -104 -158 -126 79 -80 103 hvcurveto
            48 0 38 15 30 21 -3 -113 -24 -7 -209 -18 rrcurveto
            return
          </CharString>
          <CharString index="44">
            -54 -44 40 90 74 32 36 55 hvcurveto
            23 0 23 -4 25 -7 rrcurveto
            -219 vlineto
            -20 -7 -20 -3 -20 0 rrcurveto
            return
          </CharString>
          <CharString index="45">
            9 145 -149 0 -9 -145 rlineto
            return
          </CharString>
          <CharString index="46">
            -163 400 -299 hlineto
            -11 -101 167 -8 0 -291 -163 0 0 -106 rlineto
            return
          </CharString>
          <CharString index="47">
            152 18 -157 264 rlineto
            51 73 47 78 44 75 rrcurveto
            return
          </CharString>
          <CharString index="48">
            -146 10 rlineto
            -36 -71 -37 -66 -43 -63 rrcurveto
            -42 -1 0 407 rlineto
            return
          </CharString>
          <CharString index="49">
            -142 -12 0 -703 142 0 0 207 45 2 rlineto
            return
          </CharString>
          <CharString index="50">
            12 106 -149 0 0 595 -277 0 -12 -102 146 -8 0 -485 -148 0 0 -106 rlineto
            return
          </CharString>
          <CharString index="51">
            41 27 -23 -81 hvcurveto
            -295 142 346 vlineto
            123 -54 51 -86 vhcurveto
            -68 0 -49 -31 -38 -36 rrcurveto
            return
          </CharString>
          <CharString index="52">
            -132 -7 rlineto
            7 -113 2 -155 0 -234 rrcurveto
            142 hlineto
            return
          </CharString>
          <CharString index="53">
            0 150 -2 129 -2 96 rrcurveto
            23 15 25 9 29 0 rrcurveto
            return
          </CharString>
          <CharString index="54">
            139 116 112 171 166 -87 89 -127 -140 -115 -118 -165 -166 87 -89 127 hvcurveto
            return
          </CharString>
          <CharString index="55">
            -61 -34 54 113 98 32 45 53 60 35 -54 -112 -99 -32 -45 -53 hvcurveto
            return
          </CharString>
          <CharString index="56">
            12 106 -138 0 rlineto
            -2 97 -1 72 -1 65 58 21 65 12 73 3 rrcurveto
            -5 151 rlineto
            -88 -13 -67 -42 -43 -54 rrcurveto
            -10 88 -224 0 -11 -101 112 -8 rlineto
            2 -79 1 -91 1 -121 rrcurveto
            -112 -106 hlineto
            return
          </CharString>
          <CharString index="57">
            -271 16 -101 -84 0 -94 0 -128 258 -21 0 -55 0 -34 -61 -9 -183 9 rrcurveto
            -5 -120 rlineto
            300 -10 98 76 0 93 rrcurveto
            return
          </CharString>
          <CharString index="58">
            0 126 -260 35 0 52 0 32 61 9 169 -14 rrcurveto
            return
          </CharString>
          <CharString index="59">
            15 116 rlineto
            -139 3 -47 14 0 71 rrcurveto
            202 176 107 -176 145 vlineto
            -141 -13 0 -132 -90 0 -12 -107 102 0 0 -224 rlineto
            0 -135 75 -53 237 6 rrcurveto
            return
          </CharString>
          <CharString index="60">
            132 7 rlineto
            -7 114 -2 154 0 234 rrcurveto
            -142 hlineto
            return
          </CharString>
          <CharString index="61">
            0 -151 1 -129 2 -95 -23 -15 -24 -9 -29 0 rrcurveto
            -41 -27 23 82 hvcurveto
            0 298 rlineto
            return
          </CharString>
          <CharString index="62">
            -142 -8 0 -342 rlineto
            -123 53 -51 87 vhcurveto
            68 0 49 31 38 36 rrcurveto
            return
          </CharString>
          <CharString index="63">
            125 hlineto
            15 99 25 213 8 194 rrcurveto
            -132 hlineto
            return
          </CharString>
          <CharString index="64">
            0 -124 -1 -86 -1 -136 rrcurveto
            -4 hlineto
            -16 57 -25 77 -15 48 rrcurveto
            -79 hlineto
            return
          </CharString>
          <CharString index="65">
            -14 -47 -24 -75 -16 -57 rrcurveto
            -4 hlineto
            -2 136 -2 84 -1 123 rrcurveto
            -136 hlineto
            7 -194 23 -213 16 -99 rrcurveto
            122 0 63 219 rlineto
            return
          </CharString>
          <CharString index="66">
            194 13 58 48 78 229 rrcurveto
            return
          </CharString>
          <CharString index="67">
            47 135 46 153 30 105 rrcurveto
            -137 0 -91 -342 -10 0 rlineto
            return
          </CharString>
          <CharString index="68">
            -37 95 -48 158 -33 94 rrcurveto
            -145 -10 rlineto
            27 -77 114 -304 35 -84 rrcurveto
            30 -14 rlineto
            -25 -52 -35 -6 -109 -14 rrcurveto
            return
          </CharString>
          <CharString index="69">
            11 126 -269 -5 258 267 0 118 -413 0 -11 -125 262 4 -260 -266 0 -119 rlineto
            return
          </CharString>
          <CharString index="70">
            47 111 rlineto
            -147 43 -72 34 0 46 rrcurveto
            return
          </CharString>
          <CharString index="71">
            0 48 83 40 0 64 0 40 -30 39 -82 23 rrcurveto
            return
          </CharString>
          <CharString index="72">
            0 57 -87 47 0 40 0 35 72 29 155 41 rrcurveto
            -45 113 rlineto
            -241 -76 -79 -76 1 -75 rrcurveto
            return
          </CharString>
          <CharString index="73">
            1 -78 97 -39 0 -37 0 -24 -32 -12 -104 -12 rrcurveto
            -5 -99 rlineto
            return
          </CharString>
          <CharString index="74">
            0 -42 -89 -43 0 -80 rrcurveto
            0 -78 75 -46 239 -76 rrcurveto
            return
          </CharString>
          <CharString index="75">
            -1 78 -97 39 0 37 0 24 32 12 104 12 rrcurveto
            5 99 rlineto
            return
          </CharString>
          <CharString index="76">
            0 42 89 43 0 80 0 78 -75 46 -239 76 rrcurveto
            -47 -111 rlineto
            147 -43 72 -34 0 -46 rrcurveto
            return
          </CharString>
          <CharString index="77">
            0 -48 -83 -40 0 -64 0 -40 30 -39 82 -23 rrcurveto
            return
          </CharString>
          <CharString index="78">
            0 -57 87 -47 0 -40 0 -35 -72 -29 -155 -41 rrcurveto
            return
          </CharString>
          <CharString index="79">
            4 145 -144 0 -3 -145 rlineto
            return
          </CharString>
          <CharString index="80">
            3 145 -144 0 -3 -145 rlineto
            return
          </CharString>
          <CharString index="81">
            100 81 -156 198 161 189 -100 82 -163 -208 -6 -138 rlineto
            return
          </CharString>
          <CharString index="82">
            100 81 -159 195 164 192 -100 82 -163 -208 -6 -138 rlineto
            return
          </CharString>
          <CharString index="83">
            -360 -121 360 hlineto
            return
          </CharString>
          <CharString index="84">
            93 -172 vlineto
            105 66 57 56 0 66 rrcurveto
            69 -68 55 -224 vhcurveto
            -8 -97 rlineto
            145 -6 43 -15 0 -36 0 -45 -71 -47 -132 -74 rrcurveto
            11 -85 rlineto
            return
          </CharString>
          <CharString index="85">
            225 3 81 59 0 68 0 45 -42 37 -109 20 rrcurveto
            140 89 -8 86 -286 0 0 -93 165 2 0 -4 -134 -83 0 -54 rlineto
            114 -10 53 -16 0 -19 0 -20 -47 -9 -160 -4 rrcurveto
            return
          </CharString>
          <CharString index="86">
            34 -62 rlineto
            77 21 134 58 73 54 rrcurveto
            -100 105 rlineto
            -59 -61 -101 -79 -58 -36 rrcurveto
            return
          </CharString>
          <CharString index="87">
            9 91 -103 0 0 318 -107 -9 0 -58 -106 -11 3 -81 103 0 0 -159 -112 0 0 -91 rlineto
            return
          </CharString>
          <CharString index="88">
            163 208 6 138 -164 204 -100 -81 159 -195 -164 -192 rlineto
            return
          </CharString>
          <CharString index="89">
            432 90 -432 hlineto
            return
          </CharString>
          <CharString index="90">
            8 90 -50 -1 1 120 -104 -9 1 -111 -100 1 68 236 -120 7 rlineto
            -31 -113 -16 -131 5 -89 rrcurveto
            194 2 -1 -69 104 0 -1 68 rlineto
            return
          </CharString>
          <CharString index="91">
            105 66 57 56 0 66 rrcurveto
            69 -68 55 -224 vhcurveto
            -8 -97 rlineto
            145 -6 43 -15 0 -36 0 -45 -71 -47 -132 -74 rrcurveto
            11 -85 rlineto
            return
          </CharString>
          <CharString index="92">
            86 82 -192 137 -10 0 -187 -153 66 -65 115 91 rlineto
            return
          </CharString>
          <CharString index="93">
            58 0 53 63 36 81 rrcurveto
            -71 34 rlineto
            -27 -50 -20 -15 -13 0 rrcurveto
            return
          </CharString>
          <CharString index="94">
            -33 0 -54 72 -64 0 -58 0 -53 -63 -36 -80 rrcurveto
            71 -34 rlineto
            26 48 20 16 13 0 rrcurveto
            34 0 54 -72 64 0 rrcurveto
            return
          </CharString>
          <CharString index="95">
            -84 -52 -49 -64 -61 54 -48 82 84 53 48 65 hvcurveto
            59 -55 50 -82 vhcurveto
            return
          </CharString>
          <CharString index="96">
            5 hlineto
            -245 -63 vlineto
            20 82 20 81 18 82 rrcurveto
            return
          </CharString>
          <CharString index="97">
            267 0 8 121 -157 0 0 137 119 0 0 106 -119 0 0 135 151 0 0 121 -360 0 rlineto
            -56 -204 -65 -211 -51 -205 rrcurveto
            137 hlineto
            12 49 12 50 12 49 rrcurveto
            90 hlineto
            return
          </CharString>
          <CharString index="98">
            0 246 -115 95 -336 -42 rrcurveto
            -259 -55 -98 55 vlineto
            return
          </CharString>
          <CharString index="99">
            -263 vlineto
            321 -42 130 124 0 239 rrcurveto
            return
          </CharString>
          <CharString index="100">
            147 vlineto
            127 13 31 -75 0 -144 0 -149 -28 -56 -130 18 rrcurveto
            return
          </CharString>
          <CharString index="101">
            157 100 121 227 197 -79 107 -144 -157 -100 -121 -227 hvcurveto
            -197 79 -107 144 vhcurveto
            return
          </CharString>
          <CharString index="102">
            138 25 58 61 vhcurveto
            22 0 19 -9 15 -19 rrcurveto
            -136 -264 rlineto
            -4 27 -2 32 0 37 rrcurveto
            return
          </CharString>
          <CharString index="103">
            -23 0 -19 9 -15 20 rrcurveto
            136 265 rlineto
            5 -28 2 -32 0 -38 0 -138 -25 -58 -61 0 rrcurveto
            return
          </CharString>
          <CharString index="104">
            0 97 -19 75 -37 51 rrcurveto
            36 70 rlineto
            return
          </CharString>
          <CharString index="105">
            -26 11 -30 6 -33 0 -157 0 -100 -121 0 -227 0 -98 20 -76 37 -52 rrcurveto
            -36 -67 rlineto
            return
          </CharString>
          <CharString index="106">
            89 -46 26 51 rlineto
            25 -11 30 -5 32 0 rrcurveto
            return
          </CharString>
          <CharString index="107">
            -33 0 -54 72 -64 0 rrcurveto
            return
          </CharString>
          <CharString index="108">
            -58 0 -53 -63 -36 -80 rrcurveto
            return
          </CharString>
          <CharString index="109">
            71 -34 rlineto
            26 48 20 16 13 0 rrcurveto
            34 0 54 -72 64 0 rrcurveto
            return
          </CharString>
          <CharString index="110">
            24 0 8 -34 1 -67 -20 0 -27 0 -26 -1 rrcurveto
            1 79 7 23 32 0 rrcurveto
            return
          </CharString>
          <CharString index="111">
            -27 -12 22 37 hvcurveto
            0 36 8 30 55 -6 0 -40 2 -36 9 -31 -10 -8 -12 -4 -13 0 rrcurveto
            return
          </CharString>
          <CharString index="112">
            10 115 rlineto
            -174 3 -21 19 -1 86 rrcurveto
            201 4 rlineto
            13 185 -50 110 -107 0 -52 0 -41 -22 -28 -44 rrcurveto
            return
          </CharString>
          <CharString index="113">
            -34 44 -63 14 -119 5 rrcurveto
            -9 -117 rlineto
            146 -5 23 -15 4 -75 -145 -2 -47 -64 0 -110 0 -82 41 -50 73 0 52 0 41 28 27 34 rrcurveto
            39 -43 76 -23 145 5 rrcurveto
            return
          </CharString>
          <CharString index="114">
            13 117 rlineto
            -202 3 -75 23 -16 84 rrcurveto
            305 8 rlineto
            18 185 -67 112 -145 0 -135 0 -119 -120 0 -158 rrcurveto
            0 -165 85 -98 338 9 rrcurveto
            return
          </CharString>
          <CharString index="115">
            12 106 -163 0 0 400 -299 0 -11 -101 167 -8 0 -291 -163 0 0 -106 rlineto
            return
          </CharString>
          <CharString index="116">
            139 116 112 171 166 -87 89 -127 -140 -115 -118 -165 hvcurveto
            -166 87 -89 127 vhcurveto
            return
          </CharString>
          <CharString index="117">
            100 35 44 54 vhcurveto
            22 0 19 -7 15 -14 rrcurveto
            -138 -197 rlineto
            -5 21 -2 25 0 28 rrcurveto
            return
          </CharString>
          <CharString index="118">
            -22 0 -19 7 -15 14 rrcurveto
            139 195 rlineto
            4 -20 2 -24 0 -27 0 -101 -35 -44 -54 0 rrcurveto
            return
          </CharString>
          <CharString index="119">
            0 70 -16 57 -27 41 rrcurveto
            44 63 -80 52 -35 -50 rlineto
            return
          </CharString>
          <CharString index="120">
            -29 14 -34 8 -37 0 -140 0 -115 -118 0 -165 0 -71 16 -58 29 -42 rrcurveto
            -43 -59 rlineto
            return
          </CharString>
          <CharString index="121">
            79 -52 34 49 rlineto
            29 -15 33 -7 37 0 rrcurveto
            return
          </CharString>
          <CharString index="122">
            78 0 74 61 56 97 rrcurveto
            -79 41 rlineto
            -38 -56 -34 -31 -44 0 -44 0 -33 28 -42 64 rrcurveto
            -97 -57 rlineto
            52 -97 73 -50 78 0 rrcurveto
            return
          </CharString>
          <CharString index="123">
            12 110 rlineto
            -75 5 -27 15 0 21 0 21 27 27 85 34 rrcurveto
            return
          </CharString>
          <CharString index="124">
            4 145 -148 0 -4 -145 rlineto
            return
          </CharString>
          <CharString index="125">
            187 153 -66 66 -115 -91 -121 92 -87 -83 192 -137 rlineto
            return
          </CharString>
          <CharString index="126">
            63 -17 rlineto
            53 80 31 77 2 102 rrcurveto
            -147 -1 rlineto
            10 -81 -1 -79 -11 -81 rrcurveto
            return
          </CharString>
          <CharString index="127">
            0 81 -1 93 0 127 rrcurveto
            -133 hlineto
            1 -62 3 -85 3 -58 -124 6 -48 69 0 136 0 117 30 76 241 -19 rrcurveto
            -9 140 rlineto
            -314 -7 -98 -146 0 -184 rrcurveto
            0 -229 152 -121 297 66 rrcurveto
            return
          </CharString>
          <CharString index="128">
            73 -22 rlineto
            59 52 35 93 1 83 rrcurveto
            -166 -7 rlineto
            17 -62 -1 -76 -18 -61 rrcurveto
            return
          </CharString>
          <CharString index="129">
            -73 22 rlineto
            -59 -52 -35 -93 -1 -83 rrcurveto
            166 7 rlineto
            -17 62 1 76 18 61 rrcurveto
            return
          </CharString>
          <CharString index="130">
            0 150 -2 129 -2 96 23 15 25 9 29 0 rrcurveto
            return
          </CharString>
          <CharString index="131">
            67 -41 rlineto
            59 51 67 74 41 59 rrcurveto
            -132 61 rlineto
            -22 -59 -43 -88 -37 -57 rrcurveto
            return
          </CharString>
          <CharString index="132">
            67 -40 rlineto
            61 51 66 72 41 60 rrcurveto
            -138 53 rlineto
            -22 -62 -38 -76 -37 -58 rrcurveto
            return
          </CharString>
          <CharString index="133">
            -84 -52 -49 -64 -61 54 -48 82 84 53 48 65 59 -55 50 -82 hvcurveto
            return
          </CharString>
          <CharString index="134">
            6 175 -131 0 -6 -175 rlineto
            return
          </CharString>
          <CharString index="135">
            94 99 -205 176 212 176 -94 99 -224 -208 -9 -138 rlineto
            return
          </CharString>
          <CharString index="136">
            224 208 9 138 -226 204 -94 -99 205 -176 -212 -176 rlineto
            return
          </CharString>
          <CharString index="137">
            116 75 89 126 123 -63 77 -114 -115 -76 -89 -126 -123 63 -77 114 hvcurveto
            return
          </CharString>
          <CharString index="138">
            51 25 -47 -79 -69 -21 -41 -48 -51 -25 47 79 69 20 41 49 hvcurveto
            return
          </CharString>
          <CharString index="139">
            0 55 -50 47 -151 16 rrcurveto
            4 52 177 0 9 93 -276 0 -16 -217 rlineto
            140 -11 59 -14 0 -24 0 -26 -54 -8 -155 -8 rrcurveto
            6 -99 rlineto
            211 10 96 58 0 76 rrcurveto
            return
          </CharString>
          <CharString index="140">
            94 78 58 84 hvcurveto
            0 114 -135 31 -97 -65 13 49 45 24 126 36 rrcurveto
            -35 91 rlineto
            -175 -49 -85 -91 0 -115 rrcurveto
            -109 69 -58 102 vhcurveto
            return
          </CharString>
          <CharString index="141">
            -40 0 -32 26 -2 60 78 27 55 -17 0 -46 0 -33 -23 -17 -36 0 rrcurveto
            return
          </CharString>
          <CharString index="142">
            42 106 59 103 71 101 rrcurveto
            93 -319 vlineto
            -9 -95 212 0 3 -5 rlineto
            -74 -97 -56 -94 -45 -101 rrcurveto
            return
          </CharString>
          <CharString index="143">
            113 65 57 61 hvcurveto
            0 44 -41 30 -47 24 rrcurveto
            return
          </CharString>
          <CharString index="144">
            52 23 28 31 0 42 rrcurveto
            63 -68 40 -89 -111 -57 -60 -54 vhcurveto
            0 -43 35 -30 43 -24 rrcurveto
            return
          </CharString>
          <CharString index="145">
            -54 -22 -30 -32 0 -44 rrcurveto
            -62 59 -44 102 vhcurveto
            return
          </CharString>
          <CharString index="146">
            16 19 15 33 39 18 -19 -23 vhcurveto
            0 -18 -14 -18 -22 -13 rrcurveto
            -40 19 -33 18 0 23 rrcurveto
            return
          </CharString>
          <CharString index="147">
            -43 -19 21 24 hvcurveto
            0 21 15 17 24 11 44 -20 37 -18 0 -22 rrcurveto
            -18 -22 -16 -36 vhcurveto
            return
          </CharString>
          <CharString index="148">
            176 49 84 91 0 115 rrcurveto
            109 -70 58 -101 -94 -78 -58 -84 vhcurveto
            0 -114 135 -31 97 65 -13 -49 -46 -24 -126 -36 rrcurveto
            return
          </CharString>
          <CharString index="149">
            33 23 18 35 vhcurveto
            40 0 33 -26 2 -60 -78 -28 -55 17 0 46 rrcurveto
            return
          </CharString>
          <CharString index="150">
            52 23 28 31 0 42 rrcurveto
            63 -68 40 -89 -111 -57 -60 -54 vhcurveto
            return
          </CharString>
          <CharString index="151">
            0 -43 35 -30 43 -24 rrcurveto
            return
          </CharString>
          <CharString index="152">
            9 7 6 9 9 7 -6 -9 -9 -7 -7 -9 vhcurveto
            -9 -7 6 10 hvcurveto
            return
          </CharString>
          <CharString index="153">
            8 -2 3 -4 -4 -2 -3 -8 -9 2 -3 4 vhcurveto
            4 2 3 9 hvcurveto
            return
          </CharString>
          <CharString index="154">
            -6 2 -3 5 vhcurveto
            4 0 2 2 1 4 rrcurveto
            5 hlineto
            return
          </CharString>
          <CharString index="155">
            3 165 -187 0 -2 -165 rlineto
            return
          </CharString>
          <CharString index="156">
            -24.75 -51 -22 -27 -34.83301 0 rrcurveto
            return
          </CharString>
          <CharString index="157">
            -55 0 -36.66699 100 -89.83301 0 rrcurveto
            return
          </CharString>
          <CharString index="158">
            -89.83398 0 -23.83301 -100 -55 0 rrcurveto
            return
          </CharString>
          <CharString index="159">
            -55 0 -36.66699 100 -89.83301 0 -82.5 0 -46.75 -75 -36.66699 -83 rrcurveto
            80.66699 -40 rlineto
            23.83301 48 22 30 35.75 0 rrcurveto
            return
          </CharString>
          <CharString index="160">
            55 0 38.5 -100 88 0 rrcurveto
            return
          </CharString>
          <CharString index="161">
            88 0 25.66699 100 55 0 rrcurveto
            return
          </CharString>
          <CharString index="162">
            55 0 38.5 -100 88 0 81.58301 0 45.83398 66 38.5 93 rrcurveto
            return
          </CharString>
          <CharString index="163">
            137.5 0 -19.25 -189 157.66602 79 42.16699 -142 -170.5 -38 117.33301 -140 -110 -87 -86.16602 164 -86.16699 -164 -110 87 117.33301 140 -170.5 38 42.16699 142 157.66699 -79 rlineto
            return
          </CharString>
          <CharString index="164">
            137.5 0 -19.25 -189 157.66699 79 42.16699 -142 -170.5 -38 117.33301 -140 -110 -87 -86.16699 164 -86.16602 -164 -110 87 117.33301 140 -170.5 38 42.16699 142 157.66602 -79 rlineto
            return
          </CharString>
          <CharString index="165">
            0 -157 297.91602 -185 -297.91602 -191 0 -152 423.5 286 0 114 rlineto
            return
          </CharString>
          <CharString index="166">
            384.08301 872 -111.83301 57 -385 -872 rlineto
            return
          </CharString>
          <CharString index="167">
            137.5 0 -19.25 -189 157.66699 79 42.16602 -142 -170.5 -38 117.33398 -140 -110 -87 -86.16699 164 -86.16699 -164 -110 87 117.33398 140 -170.5 38 42.16602 142 157.66699 -79 rlineto
            return
          </CharString>
          <CharString index="168">
            -134.75 -915 134.75 hlineto
            return
          </CharString>
          <CharString index="169">
            -946 134.75 946 vlineto
            return
          </CharString>
          <CharString index="170">
            -111.83301 -797 111.83301 hlineto
            512.41699 343 0 114 rlineto
            return
          </CharString>
          <CharString index="171">
            0 490 387.75 -241 rlineto
            return
          </CharString>
          <CharString index="172">
            -134.75 -946 134.75 hlineto
            return
          </CharString>
          <CharString index="173">
            -88 0 23.83398 197 88 0 rlineto
            return
          </CharString>
          <CharString index="174">
            -57 42.16699 -47 54.08301 54.08398 41.25 47 57 57 -41.25 48 -54.08398 -54.08301 -42.16699 -48 -57 vhcurveto
            return
          </CharString>
          <CharString index="175">
            -58 42.16699 -48 54.08301 54.08398 41.25 48 58 56 -41.25 47 -54.08398 -54.08301 -42.16699 -47 -56 vhcurveto
            return
          </CharString>
          <CharString index="176">
            -57 43.08301 -47 53.16699 54.08301 42.16699 47 57 57 -42.16699 48 -54.08301 vhcurveto
            -53.16699 -43.08301 -48 -57 hvcurveto
            return
          </CharString>
          <CharString index="177">
            -58 43.08301 -47 53.16699 54.08301 42.16699 47 58 57 -42.16699 46 -54.08301 -53.16699 -43.08301 -46 -57 vhcurveto
            return
          </CharString>
          <CharString index="178">
            -57 42.16699 -47 54.08301 54.08301 41.25 47 57 57 -41.25 48 -54.08301 -54.08301 -42.16699 -48 -57 vhcurveto
            return
          </CharString>
          <CharString index="179">
            -58 42.16699 -48 54.08301 54.08301 41.25 48 58 56 -41.25 47 -54.08301 -54.08301 -42.16699 -47 -56 vhcurveto
            return
          </CharString>
          <CharString index="180">
            -154 0 19.25 -438 116.41699 0 rlineto
            return
          </CharString>
          <CharString index="181">
            19.25 -438 116.41699 0 rlineto
            return
          </CharString>
          <CharString index="182">
            -45.83301 -36.66699 -41 -49 -50 36.66699 -41 45.83301 46.75 35.75 41 50 49 -35.75 41 -46.75 hvcurveto
            return
          </CharString>
          <CharString index="183">
            -54.08301 -111 319 -177 -319 -177 51.33301 -115 415.25 235 0 114 rlineto
            return
          </CharString>
          <CharString index="184">
            -54.08398 -111 319 -177 -319 -177 51.33398 -115 415.25 235 0 114 rlineto
            return
          </CharString>
          <CharString index="185">
            378.58398 122 -378.58398 hlineto
            return
          </CharString>
          <CharString index="186">
            -422.58301 -285 0 -113 422.58301 -286 0 157 -297.91602 186 297.91602 190 rlineto
            return
          </CharString>
          <CharString index="187">
            -512.41699 -340 0 -114 512.41699 -343 111.83301 0 0 797 rlineto
            return
          </CharString>
          <CharString index="188">
            -387.75 249 387.75 241 rlineto
            return
          </CharString>
          <CharString index="189">
            57 -42.16699 48 -54.08301 -54.08301 -41.25 -48 -57 -57 41.25 -47 54.08301 54.08301 42.16699 47 57 vhcurveto
            return
          </CharString>
          <CharString index="190">
            56 -42.16699 47 -54.08301 -54.08301 -41.25 -47 -56 -58 41.25 -48 54.08301 54.08301 42.16699 48 58 vhcurveto
            return
          </CharString>
          <CharString index="191">
            -412.5 -231 0 -114 415.25 -235 51.33398 115 -319 177 319 177 rlineto
            return
          </CharString>
          <CharString index="192">
            -412.5 -231 0 -114 415.25 -235 51.33301 115 -319 177 319 177 rlineto
            return
          </CharString>
          <CharString index="193">
            68.75 105 -55.91699 hlineto
            17.41699 142 -119.16699 0 -17.41602 -142 -88 0 17.41602 142 -120.08301 0 -16.5 -142 -70.58301 0 0 -105 57.75 0 -23.83398 -197 -67.83301 0 0 -104 55 0 -16.5 -145 rlineto
            119.16699 0 17.41602 145 88 0 -17.41602 -145 119.16602 0 17.41699 145 70.58301 0 0 104 -57.75 0 rlineto
            return
          </CharString>
          <CharString index="194">
            23.83301 197 88 0 -23.83301 -197 rlineto
            return
          </CharString>
          <CharString index="195">
            -222.75 0 22.91602 197 223.66699 0 rlineto
            return
          </CharString>
          <CharString index="196">
            75.16699 55 59 82 82 -55 60 -75.16699 -75.16699 -55 -59 -82 hvcurveto
            -81 55 -61 75.16699 vhcurveto
            return
          </CharString>
          <CharString index="197">
            -61 44.91699 -51 56.83301 56.83301 44.91699 51 61 60 -44.91699 51 -56.83301 -56.83301 -44.91699 -51 -60 vhcurveto
            return
          </CharString>
          <CharString index="198">
            -46.75 -35.75 -41 -49 -50 35.75 -41 46.75 45.83398 36.66602 41 50 49 -36.66602 41 -45.83398 hvcurveto
            return
          </CharString>
          <CharString index="199">
            -95.33398 0 -72.41602 -41 -52.25 -67 rrcurveto
            91.66602 -78 rlineto
            33 41 40.33398 20 41.25 0 43.08301 0 30.25 -20 0 -37 0 -83 -151.25 6 0 -171 rrcurveto
            -26 132 21 vlineto
            0 116 170.5 -11 0 162 rrcurveto
            89 -71.5 79 -139.33301 vhcurveto
            return
          </CharString>
          <CharString index="200">
            -45.83398 -36.66602 -41 -49 -50 36.66602 -41 45.83398 45.83301 37.58301 41 50 49 -37.58301 41 -45.83301 hvcurveto
            return
          </CharString>
          <CharString index="201">
            -461.08301 0 -54.08398 -124 515.16699 0 rlineto
            return
          </CharString>
          <CharString index="202">
            -552.75 0 -54.08301 -123 606.83301 0 rlineto
            return
          </CharString>
          <CharString index="203">
            -111.83301 -797 111.83301 hlineto
            return
          </CharString>
          <CharString index="204">
            -537.16699 -124 537.16699 hlineto
            return
          </CharString>
          <CharString index="205">
            -537.16699 -123 537.16699 hlineto
            return
          </CharString>
          <CharString index="206">
            -1516.16602 -123 1516.16602 hlineto
            return
          </CharString>
          <CharString index="207">
            -601.33301 -124 601.33301 hlineto
            return
          </CharString>
          <CharString index="208">
            -601.33301 -123 601.33301 hlineto
            return
          </CharString>
          <CharString index="209">
            -95.33398 -89 208.08398 -247 -208.08398 -247 95.33398 -89 276.83301 336 rlineto
            return
          </CharString>
          <CharString index="210">
            -276.83301 -336 276.83301 -336 95.33398 89 -208.08398 247 208.08398 247 rlineto
            return
          </CharString>
          <CharString index="211">
            424.41602 122 -424.41602 hlineto
            return
          </CharString>
          <CharString index="212">
            -95.33398 89 -276.83301 -336 276.83301 -336 95.33398 89 -208.08398 247 rlineto
            return
          </CharString>
          <CharString index="213">
            -358.41699 -243 0 -113 356.58398 -242 66 113 -297.91699 186 297.91699 190 rlineto
            return
          </CharString>
          <CharString index="214">
            0 -157 297.91699 -185 -297.91699 -191 0 -152 423.5 286 0 114 rlineto
            return
          </CharString>
          <CharString index="215">
            -422.58398 -285 0 -113 422.58398 -286 0 157 -297.91699 186 297.91699 190 rlineto
            return
          </CharString>
          <CharString index="216">
            -797 111.83301 797 vlineto
            return
          </CharString>
          <CharString index="217">
            -61 44.91602 -51 56.83398 56.83301 44.91699 51 61 60 -44.91699 51 -56.83301 -56.83398 -44.91602 -51 -60 vhcurveto
            return
          </CharString>
        <CharString name=".notdef">
          -200 50 900 50 hstem
          5 54 432 54 vstem
          5 -200 rmoveto
          540 1000 -540 hlineto
          77 -50 rmoveto
          386 0 -193 -390 rlineto
          216 316 rmoveto
          0 -752 -186 376 rlineto
          -246 -376 rmoveto
          0 752 186 -376 rlineto
          30 -60 rmoveto
          193 -390 -386 0 rlineto
          endchar
        </CharString>
        <CharString name="A">
          16 -21 26 -21 26 -21 149 106 242 118 hstemhm
          17 517 hintmask 10011100
          385 -5 rmoveto
          hintmask 00111100
          -104 callsubr
          hintmask 01011100
          -103 callsubr
          hintmask 00111100
          -115 507 rmoveto
          -102 callsubr
          endchar
        </CharString>
        <CharString name="AE">
          0 121 27 106 4 106 135 121 hstem
          254 118 vstem
          249 499 rmoveto
          -11 callsubr
          5 -499 rmoveto
          -10 callsubr
          endchar
        </CharString>
        <CharString name="AEacute">
          0 121 27 106 4 106 135 121 hstem
          254 118 vstem
          190 736 rmoveto
          -21 callsubr
          59 -237 rmoveto
          -11 callsubr
          5 -499 rmoveto
          -10 callsubr
          endchar
        </CharString>
        <CharString name="Aacute">
          16 -21 26 -21 26 -21 149 106 242 118 hstemhm
          17 517 hintmask 00111100
          141 736 rmoveto
          -21 callsubr
          hintmask 10011100
          244 -741 rmoveto
          hintmask 00111100
          -104 callsubr
          hintmask 01011100
          -103 callsubr
          hintmask 00111100
          -115 507 rmoveto
          -102 callsubr
          endchar
        </CharString>
        <CharString name="Abreve">
          16 -21 26 -21 26 -21 149 106 242 118 58 112 hstemhm
          17 517 hintmask 00111110
          277 678 rmoveto
          15 callsubr
          hintmask 10011110
          108 -683 rmoveto
          hintmask 00111110
          -104 callsubr
          hintmask 01011110
          -103 callsubr
          hintmask 00111110
          -115 507 rmoveto
          -102 callsubr
          endchar
        </CharString>
        <CharString name="Acircumflex">
          16 -21 26 -21 26 -21 149 106 242 118 hstemhm
          17 517 hintmask 00111100
          381 675 rmoveto
          -15 callsubr
          hintmask 10011100
          126 -772 rmoveto
          hintmask 00111100
          -104 callsubr
          hintmask 01011100
          -103 callsubr
          hintmask 00111100
          -115 507 rmoveto
          -102 callsubr
          endchar
        </CharString>
        <CharString name="Adieresis">
          16 -21 26 -21 26 -21 149 106 242 118 70 145 hstemhm
          90.5 144 81 143.5 hintmask 00111111
          457 690 rmoveto
          -28 callsubr
          -81 hmoveto
          -27 callsubr
          hintmask 10011111
          296 -695 rmoveto
          hintmask 00111111
          -104 callsubr
          hintmask 01011111
          -103 callsubr
          hintmask 00111111
          -115 507 rmoveto
          -102 callsubr
          endchar
        </CharString>
        <CharString name="Agrave">
          16 -21 26 -21 26 -21 149 106 242 118 hstemhm
          17 517 hintmask 00111100
          398 734 rmoveto
          -74 callsubr
          hintmask 10011100
          25 -678 rmoveto
          hintmask 00111100
          -104 callsubr
          hintmask 01011100
          -103 callsubr
          hintmask 00111100
          -115 507 rmoveto
          -102 callsubr
          endchar
        </CharString>
        <CharString name="Amacron">
          16 -21 26 -21 26 -21 149 106 242 118 82 121 hstemhm
          17 517 hintmask 00111110
          453 823 rmoveto
          -24 callsubr
          hintmask 10011110
          -68 -707 rmoveto
          hintmask 00111110
          -104 callsubr
          hintmask 01011110
          -103 callsubr
          hintmask 00111110
          -115 507 rmoveto
          -102 callsubr
          endchar
        </CharString>
        <CharString name="Aogonek">
          -228 110 139 -21 22 -21 25 -21 149 106 242 118 hstemhm
          287 135 hintmask 10011110
          512 -228 rmoveto
          12 110 rlineto
          -75 5 -27 15 0 21 0 21 27 27 85 34 -49 206 -50 203 -58 206 rrcurveto
          -203 hlineto
          hintmask 01001110
          -58 -206 -50 -208 -49 -206 rrcurveto
          147 hlineto
          10 51 11 51 11 52 rrcurveto
          157 hlineto
          hintmask 00101110
          10 -52 11 -51 10 -50 -67 -42 -30 -39 0 -38 rrcurveto
          0 -57 63 -49 162 -4 rrcurveto
          -242 730 rmoveto
          9 hlineto
          hintmask 00011110
          17 -79 18 -82 17 -81 rrcurveto
          -113 hlineto
          17 81 17 82 18 79 rrcurveto
          endchar
        </CharString>
        <CharString name="Aring">
          16 -21 26 -21 26 -21 149 106 242 118 49 222 hstemhm
          17 517 hintmask 00111110
          272 891 rmoveto
          -12 callsubr
          hintmask 10011110
          113 -896 rmoveto
          hintmask 00111110
          -104 callsubr
          hintmask 01011110
          -103 callsubr
          hintmask 00111110
          -115 507 rmoveto
          -102 callsubr
          endchar
        </CharString>
        <CharString name="Aringacute">
          16 -21 26 -21 26 -21 149 106 242 118 49 222 hstemhm
          17 517 hintmask 00111110
          141 979 rmoveto
          -21 callsubr
          131 -88 rmoveto
          26 callsubr
          hintmask 10011110
          113 -896 rmoveto
          hintmask 00111110
          -104 callsubr
          hintmask 01011110
          -103 callsubr
          hintmask 00111110
          -115 507 rmoveto
          -102 callsubr
          endchar
        </CharString>
        <CharString name="Atilde">
          16 -21 26 -21 26 -21 149 106 242 118 63 113 -41 113 hstemhm
          17 517 hintmask 00111101
          349 683 rmoveto
          -14 callsubr
          hintmask 00111011
          -13 callsubr
          hintmask 10011101
          36 -688 rmoveto
          hintmask 00111101
          -104 callsubr
          hintmask 01011101
          -103 callsubr
          hintmask 00111101
          -115 507 rmoveto
          -102 callsubr
          endchar
        </CharString>
        <CharString name="B">
          -9 114 -84 -21 259 98 154 118 -9 -20 hstemhm
          74 144 133 141 -125 144 hintmask 10101101
          511 189 rmoveto
          0 72 -33 45 -71 26 rrcurveto
          hintmask 01101110
          53 32 32 47 0 62 0 146 -164 28 -254 -27 rrcurveto
          -620 vlineto
          252 -31 185 51 0 169 rrcurveto
          hintmask 10110110
          -293 322 rmoveto
          88 10 45 -25 0 -59 0 -61 -30 -23 -103 4 rrcurveto
          hintmask 10101101
          -248 vmoveto
          150 vlineto
          97 7 52 -13 0 -68 rrcurveto
          0 -69 -42 -22 -107 15 rrcurveto
          endchar
        </CharString>
        <CharString name="C">
          -8 128 -103 -21 494 140 hstemhm
          56 153 hintmask 10110000
          489 120 rmoveto
          -101 callsubr
          hintmask 01110000
          -100 callsubr
          endchar
        </CharString>
        <CharString name="CR.1.0">
          endchar
        </CharString>
        <CharString name="CR.10.0">
          endchar
        </CharString>
        <CharString name="CR.100.0">
          endchar
        </CharString>
        <CharString name="CR.100.1">
          endchar
        </CharString>
        <CharString name="CR.101.0">
          endchar
        </CharString>
        <CharString name="CR.101.1">
          endchar
        </CharString>
        <CharString name="CR.102.0">
          endchar
        </CharString>
        <CharString name="CR.102.1">
          endchar
        </CharString>
        <CharString name="CR.103.0">
          endchar
        </CharString>
        <CharString name="CR.103.1">
          endchar
        </CharString>
        <CharString name="CR.104.0">
          endchar
        </CharString>
        <CharString name="CR.104.1">
          endchar
        </CharString>
        <CharString name="CR.105.0">
          endchar
        </CharString>
        <CharString name="CR.105.1">
          endchar
        </CharString>
        <CharString name="CR.106.0">
          endchar
        </CharString>
        <CharString name="CR.106.1">
          endchar
        </CharString>
        <CharString name="CR.107.0">
          endchar
        </CharString>
        <CharString name="CR.107.1">
          endchar
        </CharString>
        <CharString name="CR.108.0">
          endchar
        </CharString>
        <CharString name="CR.108.1">
          endchar
        </CharString>
        <CharString name="CR.109.0">
          endchar
        </CharString>
        <CharString name="CR.109.1">
          endchar
        </CharString>
        <CharString name="CR.11.0">
          endchar
        </CharString>
        <CharString name="CR.110.0">
          endchar
        </CharString>
        <CharString name="CR.110.1">
          endchar
        </CharString>
        <CharString name="CR.111.0">
          endchar
        </CharString>
        <CharString name="CR.111.1">
          endchar
        </CharString>
        <CharString name="CR.112.0">
          endchar
        </CharString>
        <CharString name="CR.112.1">
          endchar
        </CharString>
        <CharString name="CR.113.0">
          endchar
        </CharString>
        <CharString name="CR.113.1">
          endchar
        </CharString>
        <CharString name="CR.114.0">
          endchar
        </CharString>
        <CharString name="CR.114.1">
          endchar
        </CharString>
        <CharString name="CR.115.0">
          endchar
        </CharString>
        <CharString name="CR.115.1">
          endchar
        </CharString>
        <CharString name="CR.116.0">
          endchar
        </CharString>
        <CharString name="CR.116.1">
          endchar
        </CharString>
        <CharString name="CR.117.0">
          endchar
        </CharString>
        <CharString name="CR.117.1">
          endchar
        </CharString>
        <CharString name="CR.118.0">
          endchar
        </CharString>
        <CharString name="CR.118.1">
          endchar
        </CharString>
        <CharString name="CR.119.0">
          endchar
        </CharString>
        <CharString name="CR.119.1">
          endchar
        </CharString>
        <CharString name="CR.12.0">
          endchar
        </CharString>
        <CharString name="CR.120.0">
          endchar
        </CharString>
        <CharString name="CR.120.1">
          endchar
        </CharString>
        <CharString name="CR.121.0">
          endchar
        </CharString>
        <CharString name="CR.121.1">
          endchar
        </CharString>
        <CharString name="CR.122.0">
          endchar
        </CharString>
        <CharString name="CR.122.1">
          endchar
        </CharString>
        <CharString name="CR.123.0">
          endchar
        </CharString>
        <CharString name="CR.123.1">
          endchar
        </CharString>
        <CharString name="CR.124.0">
          endchar
        </CharString>
        <CharString name="CR.124.1">
          endchar
        </CharString>
        <CharString name="CR.125.0">
          endchar
        </CharString>
        <CharString name="CR.125.1">
          endchar
        </CharString>
        <CharString name="CR.126.0">
          endchar
        </CharString>
        <CharString name="CR.126.1">
          endchar
        </CharString>
        <CharString name="CR.126.2">
          endchar
        </CharString>
        <CharString name="CR.127.0">
          endchar
        </CharString>
        <CharString name="CR.127.1">
          endchar
        </CharString>
        <CharString name="CR.127.2">
          endchar
        </CharString>
        <CharString name="CR.128.0">
          endchar
        </CharString>
        <CharString name="CR.128.1">
          endchar
        </CharString>
        <CharString name="CR.128.2">
          endchar
        </CharString>
        <CharString name="CR.129.0">
          endchar
        </CharString>
        <CharString name="CR.129.1">
          endchar
        </CharString>
        <CharString name="CR.129.2">
          endchar
        </CharString>
        <CharString name="CR.13.0">
          endchar
        </CharString>
        <CharString name="CR.130.0">
          endchar
        </CharString>
        <CharString name="CR.130.1">
          endchar
        </CharString>
        <CharString name="CR.130.2">
          endchar
        </CharString>
        <CharString name="CR.14.0">
          endchar
        </CharString>
        <CharString name="CR.15.0">
          endchar
        </CharString>
        <CharString name="CR.16.0">
          endchar
        </CharString>
        <CharString name="CR.17.0">
          endchar
        </CharString>
        <CharString name="CR.18.0">
          endchar
        </CharString>
        <CharString name="CR.19.0">
          endchar
        </CharString>
        <CharString name="CR.2.0">
          endchar
        </CharString>
        <CharString name="CR.20.0">
          endchar
        </CharString>
        <CharString name="CR.21.0">
          endchar
        </CharString>
        <CharString name="CR.22.0">
          endchar
        </CharString>
        <CharString name="CR.23.0">
          endchar
        </CharString>
        <CharString name="CR.24.0">
          endchar
        </CharString>
        <CharString name="CR.25.0">
          endchar
        </CharString>
        <CharString name="CR.26.0">
          endchar
        </CharString>
        <CharString name="CR.27.0">
          endchar
        </CharString>
        <CharString name="CR.28.0">
          endchar
        </CharString>
        <CharString name="CR.29.0">
          endchar
        </CharString>
        <CharString name="CR.3.0">
          endchar
        </CharString>
        <CharString name="CR.30.0">
          endchar
        </CharString>
        <CharString name="CR.31.0">
          endchar
        </CharString>
        <CharString name="CR.32.0">
          endchar
        </CharString>
        <CharString name="CR.33.0">
          endchar
        </CharString>
        <CharString name="CR.34.0">
          endchar
        </CharString>
        <CharString name="CR.35.0">
          endchar
        </CharString>
        <CharString name="CR.36.0">
          endchar
        </CharString>
        <CharString name="CR.37.0">
          endchar
        </CharString>
        <CharString name="CR.38.0">
          endchar
        </CharString>
        <CharString name="CR.39.0">
          endchar
        </CharString>
        <CharString name="CR.4.0">
          endchar
        </CharString>
        <CharString name="CR.40.0">
          endchar
        </CharString>
        <CharString name="CR.41.0">
          endchar
        </CharString>
        <CharString name="CR.42.0">
          endchar
        </CharString>
        <CharString name="CR.43.0">
          endchar
        </CharString>
        <CharString name="CR.44.0">
          endchar
        </CharString>
        <CharString name="CR.45.0">
          endchar
        </CharString>
        <CharString name="CR.46.0">
          endchar
        </CharString>
        <CharString name="CR.47.0">
          endchar
        </CharString>
        <CharString name="CR.48.0">
          endchar
        </CharString>
        <CharString name="CR.49.0">
          endchar
        </CharString>
        <CharString name="CR.5.0">
          endchar
        </CharString>
        <CharString name="CR.50.0">
          endchar
        </CharString>
        <CharString name="CR.51.0">
          endchar
        </CharString>
        <CharString name="CR.52.0">
          endchar
        </CharString>
        <CharString name="CR.53.0">
          endchar
        </CharString>
        <CharString name="CR.54.0">
          endchar
        </CharString>
        <CharString name="CR.55.0">
          endchar
        </CharString>
        <CharString name="CR.56.0">
          endchar
        </CharString>
        <CharString name="CR.57.0">
          endchar
        </CharString>
        <CharString name="CR.58.0">
          endchar
        </CharString>
        <CharString name="CR.59.0">
          endchar
        </CharString>
        <CharString name="CR.6.0">
          endchar
        </CharString>
        <CharString name="CR.60.0">
          endchar
        </CharString>
        <CharString name="CR.61.0">
          endchar
        </CharString>
        <CharString name="CR.62.0">
          endchar
        </CharString>
        <CharString name="CR.63.0">
          endchar
        </CharString>
        <CharString name="CR.64.0">
          endchar
        </CharString>
        <CharString name="CR.65.0">
          endchar
        </CharString>
        <CharString name="CR.66.0">
          endchar
        </CharString>
        <CharString name="CR.67.0">
          endchar
        </CharString>
        <CharString name="CR.68.0">
          endchar
        </CharString>
        <CharString name="CR.69.0">
          endchar
        </CharString>
        <CharString name="CR.7.0">
          endchar
        </CharString>
        <CharString name="CR.70.0">
          endchar
        </CharString>
        <CharString name="CR.71.0">
          endchar
        </CharString>
        <CharString name="CR.72.0">
          endchar
        </CharString>
        <CharString name="CR.73.0">
          endchar
        </CharString>
        <CharString name="CR.74.0">
          endchar
        </CharString>
        <CharString name="CR.75.0">
          endchar
        </CharString>
        <CharString name="CR.75.1">
          endchar
        </CharString>
        <CharString name="CR.76.0">
          endchar
        </CharString>
        <CharString name="CR.76.1">
          endchar
        </CharString>
        <CharString name="CR.77.0">
          endchar
        </CharString>
        <CharString name="CR.77.1">
          endchar
        </CharString>
        <CharString name="CR.78.0">
          endchar
        </CharString>
        <CharString name="CR.78.1">
          endchar
        </CharString>
        <CharString name="CR.79.0">
          endchar
        </CharString>
        <CharString name="CR.79.1">
          endchar
        </CharString>
        <CharString name="CR.8.0">
          endchar
        </CharString>
        <CharString name="CR.80.0">
          endchar
        </CharString>
        <CharString name="CR.80.1">
          endchar
        </CharString>
        <CharString name="CR.81.0">
          endchar
        </CharString>
        <CharString name="CR.81.1">
          endchar
        </CharString>
        <CharString name="CR.82.0">
          endchar
        </CharString>
        <CharString name="CR.82.1">
          endchar
        </CharString>
        <CharString name="CR.83.0">
          endchar
        </CharString>
        <CharString name="CR.83.1">
          endchar
        </CharString>
        <CharString name="CR.84.0">
          endchar
        </CharString>
        <CharString name="CR.84.1">
          endchar
        </CharString>
        <CharString name="CR.85.0">
          endchar
        </CharString>
        <CharString name="CR.85.1">
          endchar
        </CharString>
        <CharString name="CR.86.0">
          endchar
        </CharString>
        <CharString name="CR.86.1">
          endchar
        </CharString>
        <CharString name="CR.87.0">
          endchar
        </CharString>
        <CharString name="CR.87.1">
          endchar
        </CharString>
        <CharString name="CR.88.0">
          endchar
        </CharString>
        <CharString name="CR.88.1">
          endchar
        </CharString>
        <CharString name="CR.89.0">
          endchar
        </CharString>
        <CharString name="CR.89.1">
          endchar
        </CharString>
        <CharString name="CR.9.0">
          endchar
        </CharString>
        <CharString name="CR.90.0">
          endchar
        </CharString>
        <CharString name="CR.90.1">
          endchar
        </CharString>
        <CharString name="CR.91.0">
          endchar
        </CharString>
        <CharString name="CR.91.1">
          endchar
        </CharString>
        <CharString name="CR.92.0">
          endchar
        </CharString>
        <CharString name="CR.92.1">
          endchar
        </CharString>
        <CharString name="CR.93.0">
          endchar
        </CharString>
        <CharString name="CR.93.1">
          endchar
        </CharString>
        <CharString name="CR.94.0">
          endchar
        </CharString>
        <CharString name="CR.94.1">
          endchar
        </CharString>
        <CharString name="CR.95.0">
          endchar
        </CharString>
        <CharString name="CR.95.1">
          endchar
        </CharString>
        <CharString name="CR.96.0">
          endchar
        </CharString>
        <CharString name="CR.96.1">
          endchar
        </CharString>
        <CharString name="CR.97.0">
          endchar
        </CharString>
        <CharString name="CR.97.1">
          endchar
        </CharString>
        <CharString name="CR.98.0">
          endchar
        </CharString>
        <CharString name="CR.98.1">
          endchar
        </CharString>
        <CharString name="CR.99.0">
          endchar
        </CharString>
        <CharString name="CR.99.1">
          endchar
        </CharString>
        <CharString name="Cacute">
          -8 128 -103 -21 494 140 hstemhm
          56 153 hintmask 10110000
          175 736 rmoveto
          -21 callsubr
          314 -616 rmoveto
          -101 callsubr
          hintmask 01110000
          -100 callsubr
          endchar
        </CharString>
        <CharString name="Ccaron">
          -8 128 -103 -21 494 140 hstemhm
          56 153 hintmask 10110000
          320 668 rmoveto
          18 callsubr
          179 -548 rmoveto
          -101 callsubr
          hintmask 01110000
          -100 callsubr
          endchar
        </CharString>
        <CharString name="Ccedilla">
          -4 124 370 140 hstem
          56 153 81 128 vstem
          418 -116 rmoveto
          0 36 -27 39 -78 38 47 -6 54 -1 63 6 rrcurveto
          12 124 rlineto
          -215 -12 -65 54 0 159 0 128 34 53 240 -12 rrcurveto
          -8 140 rlineto
          -312 -2 -107 -151 0 -175 0 -129 45 -108 129 -48 rrcurveto
          -23 -53 rlineto
          54 -23 29 -20 0 -18 0 -16 -29 -10 -73 -7 rrcurveto
          8 -107 rlineto
          148 11 74 51 0 59 rrcurveto
          endchar
        </CharString>
        <CharString name="Cdotaccent">
          -8 128 -103 -21 494 140 60 145 hstemhm
          56 153 30 148 hintmask 10111100
          385 690 rmoveto
          17 callsubr
          252 -570 rmoveto
          hintmask 10111000
          -101 callsubr
          hintmask 01111000
          -100 callsubr
          endchar
        </CharString>
        <CharString name="D">
          -8 120 -91 -21 508 121 -9 -20 hstemhm
          65 144 158 149 hintmask 10011100
          516 321 rmoveto
          -99 callsubr
          hintmask 01011100
          -98 callsubr
          hintmask 10101100
          -149 -19 rmoveto
          -97 callsubr
          endchar
        </CharString>
        <CharString name="Dcaron">
          -8 120 -91 -21 508 121 -9 -20 hstemhm
          65 144 158 149 hintmask 10011100
          273 673 rmoveto
          18 callsubr
          253 -352 rmoveto
          -99 callsubr
          hintmask 01011100
          -98 callsubr
          hintmask 10101100
          -149 -19 rmoveto
          -97 callsubr
          endchar
        </CharString>
        <CharString name="Dcroat">
          -8 120 -91 -21 263 98 147 121 -9 -20 hstemhm
          65 144 158 149 hintmask 10101110
          516 321 rmoveto
          -9 callsubr
          hintmask 01101110
          -8 callsubr
          -307 -206 rmoveto
          148 82 vlineto
          6 98 -88 0 rlineto
          hintmask 10110110
          -7 callsubr
          endchar
        </CharString>
        <CharString name="E">
          0 121 137 106 135 121 hstem
          88 147 vstem
          493 121 rmoveto
          -96 callsubr
          endchar
        </CharString>
        <CharString name="Eacute">
          0 121 137 106 135 121 hstem
          88 147 vstem
          151 736 rmoveto
          -21 callsubr
          342 -615 rmoveto
          -96 callsubr
          endchar
        </CharString>
        <CharString name="Ebreve">
          0 121 137 106 135 121 58 112 hstem
          88 147 vstem
          287 678 rmoveto
          15 callsubr
          206 -557 rmoveto
          -96 callsubr
          endchar
        </CharString>
        <CharString name="Ecaron">
          0 121 137 106 135 121 hstem
          88 147 vstem
          296 668 rmoveto
          18 callsubr
          207 -547 rmoveto
          -96 callsubr
          endchar
        </CharString>
        <CharString name="Ecircumflex">
          0 121 137 106 135 121 hstem
          88 147 vstem
          392 675 rmoveto
          -15 callsubr
          223 -646 rmoveto
          -96 callsubr
          endchar
        </CharString>
        <CharString name="Edieresis">
          0 121 137 106 135 121 70 145 hstemhm
          88 147 -134.5 144 81 143.5 hintmask 11111010
          467 690 rmoveto
          -28 callsubr
          hintmask 11110110
          -81 hmoveto
          -27 callsubr
          394 -569 rmoveto
          hintmask 11111010
          -96 callsubr
          endchar
        </CharString>
        <CharString name="Edotaccent">
          0 121 137 106 135 121 70 145 hstemhm
          88 147 -20 148 hintmask 11110100
          361 690 rmoveto
          17 callsubr
          280 -569 rmoveto
          hintmask 11111000
          -96 callsubr
          endchar
        </CharString>
        <CharString name="Egrave">
          0 121 137 106 135 121 hstem
          88 147 vstem
          408 734 rmoveto
          -74 callsubr
          123 -552 rmoveto
          -96 callsubr
          endchar
        </CharString>
        <CharString name="Emacron">
          0 121 137 106 135 121 82 121 hstem
          88 147 vstem
          463 823 rmoveto
          -24 callsubr
          30 -581 rmoveto
          -96 callsubr
          endchar
        </CharString>
        <CharString name="Eogonek">
          -233 110 123 121 137 106 135 121 hstemhm
          88 147 0 135 hintmask 11111000
          472 -123 rmoveto
          hintmask 11110100
          -75 5 -27 15 0 21 0 21 27 27 85 34 rrcurveto
          11 121 rlineto
          hintmask 11111000
          -258 137 212 106 -212 135 251 121 -398 -620 251 hlineto
          hintmask 11110100
          -72 -43 -32 -41 0 -39 0 -57 63 -49 162 -4 rrcurveto
          endchar
        </CharString>
        <CharString name="Eth">
          -8 120 -91 -21 263 98 147 121 -9 -20 hstemhm
          65 144 158 149 hintmask 10101110
          516 321 rmoveto
          -9 callsubr
          hintmask 01101110
          -8 callsubr
          -307 -206 rmoveto
          148 82 vlineto
          6 98 -88 0 rlineto
          hintmask 10110110
          -7 callsubr
          endchar
        </CharString>
        <CharString name="Euro">
          -1 -21 194 98 -84 87 58 87 hstemhm
          106 130 hintmask 10111000
          487 93 rmoveto
          -139 20 -62 26 -28 47 rrcurveto
          174 0 4 87 -199 0 rlineto
          -1 13 0 14 0 15 rrcurveto
          16 204 vlineto
          5 87 -197 0 rlineto
          22 53 57 19 151 20 rrcurveto
          -20 135 rlineto
          -220 -39 -87 -77 -30 -100 rrcurveto
          -71 -98 56 hlineto
          hintmask 11011000
          -19 vlineto
          0 -14 0 -14 1 -14 rrcurveto
          -56 -98 72 hlineto
          34 -110 93 -66 220 -18 rrcurveto
          endchar
        </CharString>
        <CharString name="F">
          21 -21 241 113 144 122 hstem
          92 148 vstem
          456 241 rmoveto
          113 -216 144 256 122 -404 -620 148 241 vlineto
          endchar
        </CharString>
        <CharString name="G">
          -9 114 388 137 hstem
          44 150 165 133 vstem
          493 9 rmoveto
          -95 callsubr
          endchar
        </CharString>
        <CharString name="Gbreve">
          -9 114 388 137 48 112 hstem
          44 150 165 133 vstem
          298 678 rmoveto
          15 callsubr
          195 -669 rmoveto
          -95 callsubr
          endchar
        </CharString>
        <CharString name="Gcommaaccent">
          -9 114 388 137 hstemhm
          44 150 30 154 -19 133 hintmask 11101000
          493 9 rmoveto
          20 callsubr
          hintmask 11110000
          -283 -287 rmoveto
          21 callsubr
          endchar
        </CharString>
        <CharString name="Gdotaccent">
          -9 114 388 137 60 145 hstemhm
          44 150 32 148 -15 133 hintmask 11111000
          372 690 rmoveto
          17 callsubr
          hintmask 11110100
          269 -681 rmoveto
          20 callsubr
          endchar
        </CharString>
        <CharString name="H">
          21 -21 256 112 252 -20 hstem
          58 150 134 151 vstem
          342 hmoveto
          151 620 -151 -252 -134 252 -150 -620 150 256 134 hlineto
          endchar
        </CharString>
        <CharString name="Hbar">
          21 -21 236 112 80 98 -93 88 -88 187 hstemhm
          58 150 134 151 hintmask 11010110
          342 348 rmoveto
          -134 85 134 hlineto
          -433 vmoveto
          151 hlineto
          hintmask 11100110
          428 55 98 -55 vlineto
          hintmask 11001110
          94 -151 vlineto
          hintmask 11010110
          -99 -134 vlineto
          hintmask 11001110
          99 -150 vlineto
          hintmask 11100110
          -94 -55 -98 55 -428 150 236 134 vlineto
          endchar
        </CharString>
        <CharString name="I">
          0 113 394 113 hstem
          203 147 vstem
          350 507 rmoveto
          -94 callsubr
          endchar
        </CharString>
        <CharString name="Iacute">
          0 113 394 113 hstem
          203 147 vstem
          148 736 rmoveto
          -21 callsubr
          202 -229 rmoveto
          -94 callsubr
          endchar
        </CharString>
        <CharString name="Ibreve">
          0 113 394 113 58 112 hstem
          203 147 vstem
          284 678 rmoveto
          15 callsubr
          66 -171 rmoveto
          -94 callsubr
          endchar
        </CharString>
        <CharString name="Icircumflex">
          0 113 394 113 hstem
          203 147 vstem
          388 675 rmoveto
          -15 callsubr
          84 -260 rmoveto
          -94 callsubr
          endchar
        </CharString>
        <CharString name="Idieresis">
          0 113 394 113 70 145 hstemhm
          97.5 144 -38.5 147 -27.5 143.5 hintmask 11110100
          464 690 rmoveto
          -28 callsubr
          -81 hmoveto
          -27 callsubr
          hintmask 11101000
          254 -183 rmoveto
          hintmask 11100100
          132 113 -411 -113 hlineto
          hintmask 11101000
          132 -394 -132 -113 407 hlineto
          10 113 -138 0 rlineto
          endchar
        </CharString>
        <CharString name="Idotaccent">
          0 113 394 113 70 145 hstemhm
          203 147 -138 148 hintmask 11101000
          358 690 rmoveto
          17 callsubr
          hintmask 11110000
          140 -183 rmoveto
          -94 callsubr
          endchar
        </CharString>
        <CharString name="Igrave">
          0 113 394 113 hstem
          203 147 vstem
          404 734 rmoveto
          -74 callsubr
          -16 -166 rmoveto
          -94 callsubr
          endchar
        </CharString>
        <CharString name="Imacron">
          0 113 394 113 82 121 hstem
          203 147 vstem
          460 823 rmoveto
          -24 callsubr
          -110 -195 rmoveto
          -94 callsubr
          endchar
        </CharString>
        <CharString name="Iogonek">
          -228 110 118 113 394 113 hstemhm
          147 135 -79 147 hintmask 11101000
          384 -118 rmoveto
          hintmask 11110000
          -75 5 -27 15 0 21 0 20 14 25 41 32 rrcurveto
          141 0 10 113 rlineto
          hintmask 11101000
          -138 394 132 113 -411 -113 132 -394 hlineto
          hintmask 11110000
          -132 -113 149 hlineto
          -50 -41 -23 -38 0 -35 0 -61 63 -49 162 -4 rrcurveto
          endchar
        </CharString>
        <CharString name="J">
          -9 123 -123 126 387 116 hstemhm
          301 148 hintmask 10110000
          107 620 rmoveto
          -116 194 -286 vlineto
          hintmask 01110000
          0 -96 -10 -16 -220 11 rrcurveto
          hintmask 10110000
          -126 vlineto
          282 -7 96 68 0 168 rrcurveto
          400 vlineto
          endchar
        </CharString>
        <CharString name="K">
          12 -21 30 -21 30 -21 244 122 245 -20 hstemhm
          64 147 hintmask 10011100
          379 -9 rmoveto
          hintmask 00111100
          -93 callsubr
          hintmask 01011100
          -620 147 253 35 vlineto
          endchar
        </CharString>
        <CharString name="Kcommaaccent">
          12 -21 30 -21 30 -21 244 122 245 -20 hstemhm
          64 147 -4 154 hintmask 10011100
          379 -9 rmoveto
          hintmask 00111100
          -93 callsubr
          hintmask 01011100
          -620 147 253 35 vlineto
          hintmask 00111010
          -53 -531 rmoveto
          21 callsubr
          endchar
        </CharString>
        <CharString name="L">
          0 122 498 -20 hstem
          94 148 vstem
          488 hmoveto
          -92 callsubr
          endchar
        </CharString>
        <CharString name="Lacute">
          0 122 498 -20 hstem
          94 148 vstem
          158 736 rmoveto
          -21 callsubr
          330 -736 rmoveto
          -92 callsubr
          endchar
        </CharString>
        <CharString name="Lcaron">
          0 122 498 -20 109 -20 hstem
          94 148 103 140 vstem
          336 467 rmoveto
          19 callsubr
          152 -467 rmoveto
          -92 callsubr
          endchar
        </CharString>
        <CharString name="Lcommaaccent">
          0 122 498 -20 hstemhm
          94 148 -22 154 hintmask 11100000
          488 hmoveto
          -92 callsubr
          hintmask 11010000
          112 -269 rmoveto
          21 callsubr
          endchar
        </CharString>
        <CharString name="Ldot">
          0 122 133 148 217 -20 hstem
          94 148 134.5 131.5 vstem
          488 hmoveto
          -92 callsubr
          410 255 rmoveto
          8 148 -131 0 -9 -148 rlineto
          endchar
        </CharString>
        <CharString name="Lslash">
          0 122 498 -20 hstem
          94 148 vstem
          488 hmoveto
          12 122 -258 0 0 213 112 56 -21 94 -91 -45 0 180 -148 0 0 -254 -72 -36 21 -94 51 25 0 -261 rlineto
          endchar
        </CharString>
        <CharString name="M">
          21 -21 138 158 324 -20 hstem
          52 126 189 131 vstem
          369 620 rmoveto
          -91 -324 -4 0 -92 324 -130 0 0 -620 130 0 -8 346 4 0 59 -208 71 0 59 208 4 0 -8 -346 135 0 0 620 rlineto
          endchar
        </CharString>
        <CharString name="N">
          21 -21 620 -20 hstem
          59 132 169 132 vstem
          373 hmoveto
          -91 callsubr
          endchar
        </CharString>
        <CharString name="NUL">
          0 endchar
        </CharString>
        <CharString name="Nacute">
          21 -21 620 -20 hstem
          59 132 169 132 vstem
          146 736 rmoveto
          -21 callsubr
          227 -736 rmoveto
          -91 callsubr
          endchar
        </CharString>
        <CharString name="Ncaron">
          21 -21 620 -20 hstem
          59 132 169 132 vstem
          291 668 rmoveto
          18 callsubr
          92 -668 rmoveto
          -91 callsubr
          endchar
        </CharString>
        <CharString name="Ncommaaccent">
          21 -21 620 -20 hstemhm
          59 132 17 154 -2 132 hintmask 11101000
          373 hmoveto
          -91 callsubr
          hintmask 11110000
          1 -614 rmoveto
          21 callsubr
          endchar
        </CharString>
        <CharString name="Ntilde">
          21 -21 620 -20 83 113 -41 113 hstemhm
          59 132 169 132 hintmask 11101100
          354 683 rmoveto
          -14 callsubr
          hintmask 11011100
          -13 callsubr
          19 -683 rmoveto
          -91 callsubr
          endchar
        </CharString>
        <CharString name="O">
          -16 120 412 120 hstem
          35 152 176 152 vstem
          258 -16 rmoveto
          -90 callsubr
          12 532 rmoveto
          -89 callsubr
          endchar
        </CharString>
        <CharString name="OE">
          0 121 137 106 135 121 hstem
          24 145 85 119 vstem
          169 319 rmoveto
          0 140 24 40 61 -1 rrcurveto
          -377 vlineto
          -63 -2 -22 58 0 142 rrcurveto
          353 -198 rmoveto
          -149 137 112 106 -112 135 144 121 -234 hlineto
          -168 -91 -114 -207 -219 85 -80 173 hvcurveto
          233 hlineto
          endchar
        </CharString>
        <CharString name="Oacute">
          -16 120 412 120 hstem
          35 152 176 152 vstem
          148 743 rmoveto
          -21 callsubr
          110 -759 rmoveto
          -90 callsubr
          12 532 rmoveto
          -89 callsubr
          endchar
        </CharString>
        <CharString name="Obreve">
          -16 120 412 120 49 112 hstem
          35 152 176 152 vstem
          284 685 rmoveto
          15 callsubr
          -26 -701 rmoveto
          -90 callsubr
          12 532 rmoveto
          -89 callsubr
          endchar
        </CharString>
        <CharString name="Ocircumflex">
          -16 120 412 120 hstem
          35 152 176 152 vstem
          389 682 rmoveto
          -15 callsubr
          -9 -790 rmoveto
          -90 callsubr
          12 532 rmoveto
          -89 callsubr
          endchar
        </CharString>
        <CharString name="Odieresis">
          -16 120 412 120 61 145 hstemhm
          35 152 -89.5 144 81 143.5 -103 152 hintmask 11101100
          464 697 rmoveto
          -28 callsubr
          -81 hmoveto
          -27 callsubr
          hintmask 11110010
          162 -713 rmoveto
          -6 callsubr
          12 532 rmoveto
          -89 callsubr
          endchar
        </CharString>
        <CharString name="Ograve">
          -16 120 412 120 hstem
          35 152 176 152 vstem
          405 741 rmoveto
          -74 callsubr
          -109 -696 rmoveto
          -90 callsubr
          12 532 rmoveto
          -89 callsubr
          endchar
        </CharString>
        <CharString name="Ohungarumlaut">
          -16 120 412 120 hstem
          35 152 176 152 vstem
          106 729 rmoveto
          24 callsubr
          213 -2 rmoveto
          25 callsubr
          -61 -743 rmoveto
          -90 callsubr
          12 532 rmoveto
          -89 callsubr
          endchar
        </CharString>
        <CharString name="Omacron">
          -16 120 412 120 73 121 hstem
          35 152 176 152 vstem
          460 830 rmoveto
          -24 callsubr
          -202 -725 rmoveto
          -90 callsubr
          12 532 rmoveto
          -89 callsubr
          endchar
        </CharString>
        <CharString name="Omega">
          0 113 393 129 hstem
          59 136 160 138 vstem
          247 7 rmoveto
          -35 141 -17 113 0 82 rrcurveto
          107 28 56 53 51 28 -57 -110 vhcurveto
          0 -82 -16 -112 -34 -138 rrcurveto
          2 -7 200 0 0 113 -66 0 rlineto
          36 95 16 87 0 79 1 152 -75 109 -138 0 -142 0 -80 -109 0 -156 0 -77 17 -87 34 -93 rrcurveto
          -66 -113 200 hlineto
          endchar
        </CharString>
        <CharString name="Oslash">
          -16 119 -87 -21 26 -21 517 119 -17 -20 26 -20 hstemhm
          35 149 182 149 hintmask 10010011
          184 321 rmoveto
          -5 callsubr
          96 -218 rmoveto
          -4 callsubr
          -22 -119 rmoveto
          157 100 121 227 hvcurveto
          hintmask 10000111
          -3 callsubr
          hintmask 10001011
          -89 46 -25 -52 rlineto
          hintmask 01010011
          -2 callsubr
          hintmask 00110011
          -1 callsubr
          endchar
        </CharString>
        <CharString name="Oslashacute">
          -16 119 -87 -21 26 -21 517 119 -17 -20 26 -20 hstemhm
          35 149 182 149 hintmask 10010011
          143 744 rmoveto
          -21 callsubr
          41 -423 rmoveto
          -5 callsubr
          96 -218 rmoveto
          -4 callsubr
          -22 -119 rmoveto
          157 100 121 227 hvcurveto
          hintmask 10000111
          -3 callsubr
          hintmask 10001011
          -89 46 -25 -52 rlineto
          hintmask 01010011
          -2 callsubr
          hintmask 00110011
          -1 callsubr
          endchar
        </CharString>
        <CharString name="Otilde">
          -16 120 412 120 54 113 -41 113 hstemhm
          35 152 176 152 hintmask 11101100
          356 690 rmoveto
          -14 callsubr
          hintmask 11011100
          -13 callsubr
          -98 -706 rmoveto
          -6 callsubr
          12 532 rmoveto
          -89 callsubr
          endchar
        </CharString>
        <CharString name="P">
          21 -21 507 123 -10 -20 hstemhm
          75 146 154 143 hintmask 11011000
          221 hmoveto
          171 vlineto
          172 25 125 74 0 153 rrcurveto
          hintmask 10111000
          0 163 -141 71 -302 -37 rrcurveto
          -620 vlineto
          hintmask 11011000
          300 393 rmoveto
          0 -92 -51 -26 -103 15 rrcurveto
          217 vlineto
          102 9 52 -38 0 -85 rrcurveto
          endchar
        </CharString>
        <CharString name="Q">
          8 -21 41 -21 509 120 hstemhm
          35 152 176 152 hintmask 01111000
          440 -155 rmoveto
          40 118 -114 36 0 8 rlineto
          93 45 56 111 0 169 rrcurveto
          197 -79 107 -144 -157 -100 -121 -227 vhcurveto
          hintmask 10111000
          0 -178 64 -104 119 -19 rrcurveto
          -23 -67 rlineto
          75 596 rmoveto
          64 29 -71 -146 -135 -19 -60 -64 -64 -29 71 146 135 19 60 64 hvcurveto
          endchar
        </CharString>
        <CharString name="R">
          12 -21 30 -21 30 -21 192 102 205 121 -9 -20 hstemhm
          69 145 136 144 hintmask 10010110
          383 -9 rmoveto
          hintmask 00110111
          -88 callsubr
          hintmask 01011011
          -87 callsubr
          -69 306 rmoveto
          -86 callsubr
          endchar
        </CharString>
        <CharString name="R_p">
          -155 -21 33 -21 181 -21 25 -21 23 -21 23 -21 615 -20 24 -20 hstemhm
          17 102 184 97 hintmask 0110000111000000
          175 -4 rmoveto
          hintmask 0100101011000000
          103 6 -54 272 rlineto
          32 44 23 57 0 67 0 124 -80 77 -182 -24 rrcurveto
          hintmask 0101000111000000
          -619 106 vlineto
          -8 223 22 1 rlineto
          263 -388 rmoveto
          hintmask 1000010111000000
          168 vlineto
          72 -4 66 68 0 189 0 191 -51 69 -116 -54 rrcurveto
          -3 14 -65 0 0 -653 rlineto
          endchar
        </CharString>
        <CharString name="Racute">
          12 -21 30 -21 30 -21 192 102 205 121 -9 -20 hstemhm
          69 145 136 144 hintmask 00110110
          126 741 rmoveto
          -21 callsubr
          hintmask 10010110
          257 -750 rmoveto
          hintmask 00110111
          -88 callsubr
          hintmask 01011011
          -87 callsubr
          -69 306 rmoveto
          -86 callsubr
          endchar
        </CharString>
        <CharString name="Rcaron">
          12 -21 30 -21 30 -21 192 102 205 121 -9 -20 hstemhm
          69 145 136 144 hintmask 00110110
          271 673 rmoveto
          18 callsubr
          hintmask 10010110
          122 -682 rmoveto
          hintmask 00110111
          -88 callsubr
          hintmask 01011011
          -87 callsubr
          -69 306 rmoveto
          -86 callsubr
          endchar
        </CharString>
        <CharString name="Rcommaaccent">
          12 -21 30 -21 30 -21 192 102 205 121 -9 -20 hstemhm
          69 145 9 154 -27 144 hintmask 1001011000000000
          383 -9 rmoveto
          hintmask 0011011010000000
          -88 callsubr
          hintmask 0101101010000000
          -87 callsubr
          -69 306 rmoveto
          -86 callsubr
          hintmask 0011011100000000
          -5 -580 rmoveto
          21 callsubr
          endchar
        </CharString>
        <CharString name="S">
          -8 126 -126 130 374 130 -125 125 hstemhm
          70 154 115 154 hintmask 01011100
          75 122 rmoveto
          hintmask 10101100
          -85 callsubr
          hintmask 01011100
          -84 callsubr
          endchar
        </CharString>
        <CharString name="Sacute">
          -8 126 -126 130 374 130 -125 125 hstemhm
          70 154 115 154 hintmask 10011100
          152 742 rmoveto
          -21 callsubr
          hintmask 01011100
          -77 -620 rmoveto
          hintmask 10101100
          -85 callsubr
          hintmask 01011100
          -84 callsubr
          endchar
        </CharString>
        <CharString name="Scaron">
          -8 126 -126 130 374 130 -125 125 hstemhm
          70 154 115 154 hintmask 10011100
          297 674 rmoveto
          18 callsubr
          hintmask 01011100
          -212 -552 rmoveto
          hintmask 10101100
          -85 callsubr
          hintmask 01011100
          -84 callsubr
          endchar
        </CharString>
        <CharString name="Scedilla">
          -8 126 -126 130 -98 -21 493 130 -125 125 hstemhm
          70 154 27 128 -40 154 hintmask 10001101
          157 -239 rmoveto
          hintmask 00101110
          148 11 74 51 0 59 0 38 -30 43 -91 40 rrcurveto
          hintmask 00110101
          172 29 63 80 0 79 0 147 -269 40 0 78 0 38 43 15 186 -13 rrcurveto
          hintmask 01001101
          -8 130 rlineto
          -260 13 -115 -104 0 -98 0 -142 269 -33 0 -88 0 -44 -69 -21 -195 13 rrcurveto
          hintmask 10001101
          -130 vlineto
          hintmask 10001110
          39 -1 35 1 33 2 rrcurveto
          -14 -32 rlineto
          54 -23 29 -20 0 -18 0 -16 -29 -10 -73 -7 rrcurveto
          endchar
        </CharString>
        <CharString name="Scommaaccent">
          -8 126 -126 130 374 130 -125 125 hstemhm
          70 154 -30 154 -9 154 hintmask 01010010
          75 122 rmoveto
          hintmask 10101010
          -85 callsubr
          hintmask 01011010
          -84 callsubr
          hintmask 10010100
          105 -399 rmoveto
          21 callsubr
          endchar
        </CharString>
        <CharString name="T">
          21 -21 498 122 hstem
          202 148 vstem
          350 498 rmoveto
          -83 callsubr
          endchar
        </CharString>
        <CharString name="Tcaron">
          21 -21 498 122 hstem
          202 148 vstem
          283 668 rmoveto
          18 callsubr
          77 -170 rmoveto
          -83 callsubr
          endchar
        </CharString>
        <CharString name="Tcommaaccent">
          21 -21 498 122 hstemhm
          200 154 -152 148 hintmask 11010000
          350 498 rmoveto
          -83 callsubr
          -164 -269 rmoveto
          hintmask 11100000
          73 -22 rlineto
          59 52 35 93 1 83 rrcurveto
          hintmask 11010000
          -166 -7 rlineto
          17 -62 -1 -76 -18 -61 rrcurveto
          endchar
        </CharString>
        <CharString name="Thorn">
          0 209 204 121 86 -20 hstem
          75 147 153 144 vstem
          222 hmoveto
          93 vlineto
          172 24 125 73 0 147 0 132 -98 69 -199 -4 rrcurveto
          86 -147 -620 vlineto
          300 307 rmoveto
          0 -84 -51 -25 -102 15 rrcurveto
          200 vlineto
          102 8 51 -35 0 -79 rrcurveto
          endchar
        </CharString>
        <CharString name="U">
          -16 126 510 -20 hstem
          56 147 145 147 vstem
          270 -16 rmoveto
          -82 callsubr
          endchar
        </CharString>
        <CharString name="Uacute">
          -16 126 510 -20 hstem
          56 147 145 147 vstem
          144 736 rmoveto
          -21 callsubr
          126 -752 rmoveto
          -82 callsubr
          endchar
        </CharString>
        <CharString name="Ubreve">
          -16 126 510 -20 78 112 hstem
          56 147 145 147 vstem
          280 678 rmoveto
          15 callsubr
          -10 -694 rmoveto
          -82 callsubr
          endchar
        </CharString>
        <CharString name="Ucircumflex">
          -16 126 510 -20 hstem
          56 147 145 147 vstem
          384 675 rmoveto
          -15 callsubr
          8 -783 rmoveto
          -82 callsubr
          endchar
        </CharString>
        <CharString name="Udieresis">
          -16 126 510 -20 90 145 hstemhm
          56 147 -109.5 144 81 143.5 -114 147 hintmask 11101100
          460 690 rmoveto
          -28 callsubr
          -81 hmoveto
          -27 callsubr
          hintmask 11110010
          178 -706 rmoveto
          -82 callsubr
          endchar
        </CharString>
        <CharString name="Ugrave">
          -16 126 510 -20 hstem
          56 147 145 147 vstem
          400 734 rmoveto
          -74 callsubr
          -92 -689 rmoveto
          -82 callsubr
          endchar
        </CharString>
        <CharString name="Uhungarumlaut">
          -16 126 510 -20 120 -20 hstem
          56 147 145 147 vstem
          101 722 rmoveto
          24 callsubr
          213 -2 rmoveto
          25 callsubr
          -44 -736 rmoveto
          -82 callsubr
          endchar
        </CharString>
        <CharString name="Umacron">
          -16 126 510 -20 102 121 hstem
          56 147 145 147 vstem
          456 823 rmoveto
          -24 callsubr
          -186 -718 rmoveto
          -82 callsubr
          endchar
        </CharString>
        <CharString name="Uogonek">
          -233 110 130 -21 634 -20 hstemhm
          56 147 -53 135 63 147 hintmask 11101100
          375 -233 rmoveto
          12 110 rlineto
          -75 5 -27 16 0 24 0 32 44 12 69 53 64 49 33 60 0 98 rrcurveto
          394 -147 -422 vlineto
          -65 -21 -23 -48 vhcurveto
          hintmask 11110100
          -47 -29 31 74 hvcurveto
          405 -147 -407 vlineto
          0 -132 65 -80 112 -15 rrcurveto
          hintmask 11101100
          -61 -37 -22 -35 0 -37 rrcurveto
          0 -57 63 -49 162 -4 rrcurveto
          endchar
        </CharString>
        <CharString name="Uring">
          -16 126 510 -20 69 222 hstem
          56 147 145 147 vstem
          274 891 rmoveto
          26 callsubr
          -4 -907 rmoveto
          -82 callsubr
          endchar
        </CharString>
        <CharString name="V">
          0 133 487 -20 25 -20 hstemhm
          19 512 hintmask 10110000
          377 hmoveto
          hintmask 11010000
          58 206 50 208 46 206 rrcurveto
          -147 hlineto
          -31 -159 -34 -169 -37 -159 rrcurveto
          -9 hlineto
          hintmask 10110000
          -38 160 -35 172 -31 160 rrcurveto
          -150 -10 rlineto
          46 -206 51 -203 58 -206 rrcurveto
          endchar
        </CharString>
        <CharString name="W">
          21 -21 0 197 423 -20 hstemhm
          26 148.5 209.5 141 hintmask 10111000
          342 hmoveto
          -81 callsubr
          hintmask 01111000
          -80 callsubr
          endchar
        </CharString>
        <CharString name="Wacute">
          21 -21 0 197 423 -20 hstemhm
          26 148.5 209.5 141 hintmask 10111000
          146 736 rmoveto
          -21 callsubr
          196 -736 rmoveto
          -81 callsubr
          hintmask 01111000
          -80 callsubr
          endchar
        </CharString>
        <CharString name="Wcircumflex">
          21 -21 0 197 423 -20 hstemhm
          26 148.5 209.5 141 hintmask 10111000
          387 675 rmoveto
          -15 callsubr
          77 -767 rmoveto
          -81 callsubr
          hintmask 01111000
          -80 callsubr
          endchar
        </CharString>
        <CharString name="Wdieresis">
          21 -21 0 197 423 -20 90 145 hstemhm
          26 148.5 -79 144 81 143.5 -80 141 hintmask 10110110
          462 690 rmoveto
          -28 callsubr
          -81 hmoveto
          -27 callsubr
          248 -690 rmoveto
          hintmask 10110101
          -81 callsubr
          hintmask 01111001
          -80 callsubr
          endchar
        </CharString>
        <CharString name="Wgrave">
          21 -21 0 197 423 -20 hstemhm
          26 148.5 209.5 141 hintmask 10111000
          403 734 rmoveto
          -74 callsubr
          -23 -673 rmoveto
          -81 callsubr
          hintmask 01111000
          -80 callsubr
          endchar
        </CharString>
        <CharString name="X">
          18 -21 24 -21 24 -21 617 -20 23 -20 hstemhm
          17 519 hintmask 10001100
          372 -3 rmoveto
          hintmask 00110100
          163 6 -167 305 168 312 -157 0 -96 -206 rlineto
          hintmask 01001100
          -104 209 -162 -6 167 -307 -166 -310 156 0 96 203 rlineto
          endchar
        </CharString>
        <CharString name="Y">
          21 -21 620 -20 23 -20 hstemhm
          202 148 hintmask 10110000
          350 hmoveto
          0 207 rlineto
          hintmask 11010000
          -79 callsubr
          hintmask 10110000
          -78 callsubr
          endchar
        </CharString>
        <CharString name="Yacute">
          21 -21 620 -20 23 -20 hstemhm
          202 148 hintmask 10110000
          145 739 rmoveto
          -21 callsubr
          205 -739 rmoveto
          0 207 rlineto
          hintmask 11010000
          -79 callsubr
          hintmask 10110000
          -78 callsubr
          endchar
        </CharString>
        <CharString name="Ycircumflex">
          21 -21 620 -20 23 -20 hstemhm
          202 148 hintmask 10110000
          386 678 rmoveto
          -15 callsubr
          86 -770 rmoveto
          0 207 rlineto
          hintmask 11010000
          -79 callsubr
          hintmask 10110000
          -78 callsubr
          endchar
        </CharString>
        <CharString name="Ydieresis">
          21 -21 620 -20 23 -20 90 145 hstemhm
          94.5 144 -36.5 148 -30.5 143.5 hintmask 10111010
          461 693 rmoveto
          -28 callsubr
          -81 hmoveto
          -27 callsubr
          hintmask 11010100
          257 -693 rmoveto
          0 207 193 413 -151 0 -112 -276 rlineto
          hintmask 10110100
          -78 callsubr
          endchar
        </CharString>
        <CharString name="Ygrave">
          21 -21 620 -20 23 -20 hstemhm
          202 148 hintmask 10110000
          402 737 rmoveto
          -74 callsubr
          -14 -676 rmoveto
          0 207 rlineto
          hintmask 11010000
          -79 callsubr
          hintmask 10110000
          -78 callsubr
          endchar
        </CharString>
        <CharString name="Z">
          0 125.5 369 125.5 hstem
          59 441 vstem
          490 hmoveto
          -77 callsubr
          endchar
        </CharString>
        <CharString name="Zacute">
          0 125.5 369 125.5 hstem
          59 441 vstem
          156 736 rmoveto
          -21 callsubr
          334 -736 rmoveto
          -77 callsubr
          endchar
        </CharString>
        <CharString name="Zcaron">
          0 125.5 369 125.5 hstem
          59 441 vstem
          301 668 rmoveto
          18 callsubr
          199 -668 rmoveto
          -77 callsubr
          endchar
        </CharString>
        <CharString name="Zdotaccent">
          0 125.5 369 125.5 70 145 hstem
          220 148 vstem
          366 690 rmoveto
          17 callsubr
          272 -690 rmoveto
          -77 callsubr
          endchar
        </CharString>
        <CharString name="a">
          -13 107 -77 -21 28 -21 208 87 100 119 hstemhm
          51 141 152 139 hintmask 10011110
          259 94 rmoveto
          -73 callsubr
          hintmask 01011110
          104 -98 rmoveto
          hintmask 00111110
          -72 callsubr
          hintmask 10011110
          -71 callsubr
          endchar
        </CharString>
        <CharString name="aacute">
          -13 107 -77 -21 28 -21 208 87 100 119 186 -20 hstemhm
          51 141 152 139 hintmask 00111111
          137 632 rmoveto
          -21 callsubr
          hintmask 10011111
          122 -538 rmoveto
          -73 callsubr
          hintmask 01011111
          104 -98 rmoveto
          hintmask 00111111
          -72 callsubr
          hintmask 10011111
          -71 callsubr
          endchar
        </CharString>
        <CharString name="abreve">
          -13 107 -77 -21 28 -21 208 87 100 119 57 112 hstemhm
          51 141 152 139 hintmask 00111111
          273 574 rmoveto
          15 callsubr
          hintmask 10011111
          -14 -480 rmoveto
          -73 callsubr
          hintmask 01011111
          104 -98 rmoveto
          hintmask 00111111
          -72 callsubr
          hintmask 10011111
          -71 callsubr
          endchar
        </CharString>
        <CharString name="acircumflex">
          -13 107 -77 -21 28 -21 208 87 100 119 120 -20 hstemhm
          51 141 152 139 hintmask 00111111
          377 571 rmoveto
          -15 callsubr
          hintmask 10011111
          4 -569 rmoveto
          -73 callsubr
          hintmask 01011111
          104 -98 rmoveto
          hintmask 00111111
          -72 callsubr
          hintmask 10011111
          -71 callsubr
          endchar
        </CharString>
        <CharString name="acute">
          560 238 hstem
          125 318 vstem
          125 622 rmoveto
          -21 callsubr
          endchar
        </CharString>
        <CharString name="adieresis">
          -13 107 -77 -21 28 -21 208 87 100 119 69 145 hstemhm
          51 141 -105.5 144 81 143.5 -111 139 hintmask 0011110110000000
          453 586 rmoveto
          -28 callsubr
          -81 hmoveto
          -27 callsubr
          hintmask 1001111001000000
          174 -492 rmoveto
          -73 callsubr
          hintmask 0101110101000000
          104 -98 rmoveto
          hintmask 0011111001000000
          -72 callsubr
          hintmask 1001111010000000
          -71 callsubr
          endchar
        </CharString>
        <CharString name="ae">
          -8 107 -106 115 110 81 96 117 -112 115 hstemhm
          20 129 63 116 73 128 hintmask 10101111
          368 400 rmoveto
          3 callsubr
          -180 -301 rmoveto
          4 callsubr
          hintmask 01101111
          326 -106 rmoveto
          5 callsubr
          hintmask 01110111
          6 callsubr
          endchar
        </CharString>
        <CharString name="aeacute">
          -8 107 -106 115 110 81 96 117 -112 115 hstemhm
          20 129 63 116 73 128 hintmask 01110111
          145 623 rmoveto
          -21 callsubr
          hintmask 10101111
          223 -223 rmoveto
          3 callsubr
          -180 -301 rmoveto
          4 callsubr
          hintmask 01101111
          326 -106 rmoveto
          5 callsubr
          hintmask 01110111
          6 callsubr
          endchar
        </CharString>
        <CharString name="agrave">
          -13 107 -77 -21 28 -21 208 87 100 119 113 -20 hstemhm
          51 141 152 139 hintmask 00111111
          394 630 rmoveto
          -74 callsubr
          hintmask 10011111
          -97 -475 rmoveto
          -73 callsubr
          hintmask 01011111
          104 -98 rmoveto
          hintmask 00111111
          -72 callsubr
          hintmask 10011111
          -71 callsubr
          endchar
        </CharString>
        <CharString name="amacron">
          -13 107 -77 -21 28 -21 208 87 100 119 81 121 hstemhm
          51 141 152 139 hintmask 00111111
          449 719 rmoveto
          -24 callsubr
          hintmask 10011111
          -190 -504 rmoveto
          -73 callsubr
          hintmask 01011111
          104 -98 rmoveto
          hintmask 00111111
          -72 callsubr
          hintmask 10011111
          -71 callsubr
          endchar
        </CharString>
        <CharString name="ampersand">
          -17 115 234 101 169 108 hstemhm
          4 155 -120 152 142 146 hintmask 11101100
          246 710 rmoveto
          -120 -87 -72 -95 hvcurveto
          0 -80 39 -49 79 -21 rrcurveto
          -4 vlineto
          hintmask 11110100
          -95 -23 -58 -57 0 -111 0 -123 86 -92 158 0 119 0 71 43 41 44 rrcurveto
          262 66 101 vlineto
          hintmask 11101100
          -262 hlineto
          -55 -37 38 52 49 26 30 47 hvcurveto
          39 0 22 -13 30 -31 rrcurveto
          85 73 rlineto
          -54 58 -59 21 -81 0 rrcurveto
          87 -378 rmoveto
          -206 vlineto
          hintmask 11110100
          -16 -17 -27 -11 -33 0 rrcurveto
          -64 -34 46 66 62 36 60 79 hvcurveto
          endchar
        </CharString>
        <CharString name="aogonek">
          -230 110 107 107 -70 -21 27 -21 202 87 100 119 hstemhm
          51 141 55 135 -38 139 hintmask 1010111100000000
          472 -230 rmoveto
          16 callsubr
          hintmask 0100111010000000
          -5 68 -6 88 0 91 0 201 -73 65 -318 1 rrcurveto
          -13 -119 rlineto
          208 -5 49 -18 7 -77 -205 4 -87 -84 0 -99 0 -82 61 -50 89 0 59 0 53 35 38 44 rrcurveto
          hintmask 0001111010000000
          10 -57 rlineto
          hintmask 0001111100000000
          -79 -45 -35 -43 0 -41 rrcurveto
          0 -57 63 -49 162 -4 rrcurveto
          hintmask 0100111010000000
          -213 324 rmoveto
          -42 -25 21 38 hvcurveto
          0 43 23 26 129 -14 1 -30 0 -26 1 -23 rrcurveto
          -25 -23 -34 -12 -28 0 rrcurveto
          endchar
        </CharString>
        <CharString name="approxequal">
          89 121 -37 120 25 120 -37 121 -4 -20 hstemhm
          39 464 hintmask 01101100
          357 318 rmoveto
          68 0 39 56 39 109 rrcurveto
          -83 35 rlineto
          -23 -49 -17 -31 -19 0 rrcurveto
          hintmask 01010100
          -36 0 -49 84 -78 0 -71 0 -49 -63 -39 -111 rrcurveto
          81 -35 rlineto
          25 54 20 34 21 0 rrcurveto
          39 0 53 -83 79 0 rrcurveto
          hintmask 10001100
          -229 vmoveto
          68 0 39 57 39 109 rrcurveto
          -81 35 rlineto
          -24 -49 -17 -31 -20 0 rrcurveto
          hintmask 01001100
          -36 0 -49 83 -77 0 -72 0 -49 -63 -39 -110 rrcurveto
          83 -34 rlineto
          25 53 19 34 21 0 rrcurveto
          38 0 53 -84 79 0 rrcurveto
          endchar
        </CharString>
        <CharString name="aring">
          -13 107 -77 -21 28 -21 208 87 100 119 48 222 hstemhm
          51 141 152 139 hintmask 00111111
          268 787 rmoveto
          -12 callsubr
          hintmask 10011111
          -9 -693 rmoveto
          -73 callsubr
          hintmask 01011111
          104 -98 rmoveto
          hintmask 00111111
          -72 callsubr
          hintmask 10011111
          -71 callsubr
          endchar
        </CharString>
        <CharString name="aringacute">
          -13 107 -77 -21 28 -21 208 87 100 119 48 222 hstemhm
          51 141 152 139 hintmask 00111111
          137 877 rmoveto
          -21 callsubr
          131 -90 rmoveto
          26 callsubr
          hintmask 10011111
          -9 -693 rmoveto
          -73 callsubr
          hintmask 01011111
          104 -98 rmoveto
          hintmask 00111111
          -72 callsubr
          hintmask 10011111
          -71 callsubr
          endchar
        </CharString>
        <CharString name="asciicircum">
          527 317 hstem
          14 522 vstem
          347 844 rmoveto
          -144 0 -189 -317 156 0 104 199 108 -199 154 0 rlineto
          endchar
        </CharString>
        <CharString name="asciitilde">
          210 120 -20 120 hstemhm
          -3 556 hintmask 01100000
          178 430 rmoveto
          -90 0 -51 -75 -40 -83 rrcurveto
          88 -40 rlineto
          26 48 24 30 39 0 rrcurveto
          hintmask 10100000
          60 0 42 -100 96 0 89 0 50 66 42 93 rrcurveto
          -88 39 rlineto
          -27 -51 -24 -27 -38 0 rrcurveto
          -60 0 -40 100 -98 0 rrcurveto
          endchar
        </CharString>
        <CharString name="asterisk">
          76 517 hstem
          3 544 vstem
          200 593 rmoveto
          150 0 -21 -189 172 79 46 -142 -186 -38 128 -140 -120 -87 -94 164 -94 -164 -120 87 128 140 -186 38 46 142 172 -79 rlineto
          endchar
        </CharString>
        <CharString name="asterisk.alt">
          706 -20 hstem
          222 67.5 vstem
          328 529 rmoveto
          56 152 -122 25 -2 -163 rlineto
          -27 -7 rmoveto
          -103 124 -82 -93 139 -85 rlineto
          183 -40 rmoveto
          159 30 -39 117 -144 -79 rlineto
          -166 -52 rmoveto
          -159 -30 39 -117 144 79 rlineto
          113 -26 rmoveto
          104 -124 82 93 -139 85 rlineto
          -142 -47 rmoveto
          -57 -152 124 -25 1 163 rlineto
          endchar
        </CharString>
        <CharString name="at">
          -157 110 106 107 409 112 hstem
          24 117 54 125 69 121 vstem
          457 -151 rmoveto
          -1 109 rlineto
          -260 -30 -55 111 0 220 0 223 90 93 86 0 45 0 20 -30 5 -63 -106 -10 -86 -60 0 -168 -1 -110 48 -75 65 0 36 0 26 15 26 34 rrcurveto
          5 -45 116 13 rlineto
          -2 74 -4 88 0 219 rrcurveto
          150 -55 80 -124 -177 -130 -175 -271 vhcurveto
          0 -262 102 -172 331 42 rrcurveto
          -100 317 rmoveto
          -26 -11 32 69 hvcurveto
          0 68 8 40 61 -11 rrcurveto
          -183 vlineto
          -10 -10 -10 -5 -12 0 rrcurveto
          endchar
        </CharString>
        <CharString name="atilde">
          -13 107 -77 -21 28 -21 208 87 100 119 62 113 -71 -20 50 113 hstemhm
          51 141 152 139 hintmask 0011110011000000
          345 579 rmoveto
          -14 callsubr
          hintmask 0011101111000000
          0 callsubr
          hintmask 0011101011000000
          1 callsubr
          hintmask 0011101111000000
          2 callsubr
          hintmask 1001101011000000
          -86 -485 rmoveto
          -73 callsubr
          hintmask 0101101011000000
          104 -98 rmoveto
          hintmask 0011101011000000
          -72 callsubr
          hintmask 1001101011000000
          -71 callsubr
          endchar
        </CharString>
        <CharString name="b">
          -14 122 297 115 183 -20 32 -20 hstemhm
          66 142 159 141 hintmask 11011100
          223 -14 rmoveto
          152 133 111 184 146 -75 93 -105 hvcurveto
          -49 0 -40 -21 -31 -29 rrcurveto
          0 245 rlineto
          hintmask 11101100
          -142 -12 0 -689 rlineto
          48 -19 50 -9 59 0 rrcurveto
          51 122 rmoveto
          -25 0 -20 4 -21 7 rrcurveto
          266 vlineto
          20 13 21 7 20 0 rrcurveto
          59 39 -51 -108 -100 -29 -38 -64 hvcurveto
          endchar
        </CharString>
        <CharString name="backslash">
          -112 929 hstem
          4 542 vstem
          4 760 rmoveto
          419 -872 123 57 -419 872 rlineto
          endchar
        </CharString>
        <CharString name="bar">
          -105 915 hstem
          201 147 vstem
          348 810 rmoveto
          -147 -915 147 hlineto
          endchar
        </CharString>
        <CharString name="braceleft">
          -216 956 hstemhm
          124 137 -136 142 -53 136 -128 126 hintmask 10100000
          439 -216 rmoveto
          -37 callsubr
          hintmask 10010000
          -36 callsubr
          hintmask 10001000
          80 27 30 42 0 37 rrcurveto
          hintmask 11000000
          -35 callsubr
          hintmask 10001000
          -34 callsubr
          hintmask 10010000
          88 -9 45 -22 0 -32 rrcurveto
          hintmask 10100000
          -33 callsubr
          endchar
        </CharString>
        <CharString name="braceleft.cap">
          -149 -21 hstemhm
          124 137 -136 142 -53 136 -128 126 hintmask 10100000
          439 -170 rmoveto
          -37 callsubr
          hintmask 10010000
          -36 callsubr
          hintmask 10001000
          80 27 30 42 0 37 rrcurveto
          hintmask 11000000
          -35 callsubr
          hintmask 10001000
          -34 callsubr
          hintmask 10010000
          88 -9 45 -22 0 -32 rrcurveto
          hintmask 10100000
          -33 callsubr
          endchar
        </CharString>
        <CharString name="braceright">
          630 -20 hstemhm
          202 136 -134 126 -45 142 -136 137 hintmask 10010000
          109 -215 rmoveto
          hintmask 10001000
          241 76 79 76 -1 75 rrcurveto
          hintmask 10100000
          -32 callsubr
          hintmask 11000000
          -88 9 -45 22 0 32 rrcurveto
          hintmask 10010000
          -31 callsubr
          hintmask 11000000
          -30 callsubr
          hintmask 10100000
          -80 -27 -30 -42 0 -37 rrcurveto
          hintmask 10001000
          -29 callsubr
          endchar
        </CharString>
        <CharString name="braceright.cap">
          -149 -21 hstemhm
          202 136 -134 126 -45 142 -136 137 hintmask 10010000
          109 -170 rmoveto
          hintmask 10001000
          241 76 79 76 -1 75 rrcurveto
          hintmask 10100000
          -32 callsubr
          hintmask 11000000
          -88 9 -45 22 0 32 rrcurveto
          hintmask 10010000
          -31 callsubr
          hintmask 11000000
          -30 callsubr
          hintmask 10100000
          -80 -27 -30 -42 0 -37 rrcurveto
          hintmask 10001000
          -29 callsubr
          endchar
        </CharString>
        <CharString name="bracketleft">
          -180 112 658 112 hstem
          120 136 vstem
          120 -180 rmoveto
          -76 callsubr
          endchar
        </CharString>
        <CharString name="bracketleft.cap">
          -134 112 658 112 hstem
          120 136 vstem
          120 -134 rmoveto
          -76 callsubr
          endchar
        </CharString>
        <CharString name="bracketright">
          -180 112 658 112 hstem
          295 136 vstem
          91 -68 rmoveto
          -75 callsubr
          endchar
        </CharString>
        <CharString name="bracketright.cap">
          -134 112 658 112 hstem
          295 136 vstem
          91 -22 rmoveto
          -75 callsubr
          endchar
        </CharString>
        <CharString name="breve">
          564 112 hstem
          70 411 vstem
          273 564 rmoveto
          15 callsubr
          endchar
        </CharString>
        <CharString name="bullet">
          143 310 hstem
          116 317 vstem
          433 301 rmoveto
          92 -66 60 -89 -88 -74 -62 -95 -92 67 -61 88 88 74 62 96 vhcurveto
          endchar
        </CharString>
        <CharString name="bullet.alt">
          165 270 hstem
          139 272 vstem
          410 165 rmoveto
          2 270 -272 0 -2 -270 rlineto
          endchar
        </CharString>
        <CharString name="c">
          -9 119 272 131 hstem
          64 141 vstem
          64 244 rmoveto
          -70 callsubr
          endchar
        </CharString>
        <CharString name="cacute">
          -9 119 272 131 hstem
          64 141 vstem
          157 622 rmoveto
          -21 callsubr
          -93 -378 rmoveto
          -70 callsubr
          endchar
        </CharString>
        <CharString name="caron">
          707 -20 hstem
          80 389 vstem
          282 554 rmoveto
          18 callsubr
          endchar
        </CharString>
        <CharString name="caron.alt">
          550 259 hstem
          195 140 vstem
          186 567 rmoveto
          19 callsubr
          endchar
        </CharString>
        <CharString name="ccaron">
          -9 119 272 131 194 -20 hstem
          64 141 vstem
          302 554 rmoveto
          18 callsubr
          -228 -310 rmoveto
          -70 callsubr
          endchar
        </CharString>
        <CharString name="ccedilla">
          -7 117 -82 -21 375 131 hstemhm
          64 141 91 128 hintmask 10111000
          424 -119 rmoveto
          0 35 -26 39 -75 38 42 -3 49 1 55 5 rrcurveto
          14 117 rlineto
          -208 -15 -70 38 0 127 0 87 25 44 246 -15 rrcurveto
          -9 134 rlineto
          -311 4 -92 -129 0 -144 rrcurveto
          hintmask 01111000
          0 -109 39 -92 130 -36 rrcurveto
          -20 -46 rlineto
          54 -23 29 -20 0 -18 0 -16 -29 -10 -73 -7 rrcurveto
          8 -107 rlineto
          148 11 74 51 0 59 rrcurveto
          endchar
        </CharString>
        <CharString name="cdotaccent">
          -9 119 272 131 63 145 hstem
          64 141 16 148 vstem
          367 576 rmoveto
          17 callsubr
          -155 -332 rmoveto
          -70 callsubr
          endchar
        </CharString>
        <CharString name="cedilla">
          -231 266 hstem
          296 128 vstem
          213 -30 rmoveto
          54 -23 29 -20 0 -18 0 -16 -29 -10 -73 -7 rrcurveto
          8 -107 rlineto
          148 11 74 51 0 59 0 46 -44 52 -139 47 rrcurveto
          endchar
        </CharString>
        <CharString name="cent">
          27 118 219 131 125 -20 hstem
          61 135 vstem
          196 282 rmoveto
          0 40 18 35 75 12 rrcurveto
          -25 -186 rlineto
          -46 21 -22 33 0 45 rrcurveto
          258 -255 rmoveto
          15 118 rlineto
          -44 2 -38 4 -33 6 rrcurveto
          27 215 rlineto
          27 -1 31 -2 36 -5 rrcurveto
          16 131 rlineto
          -31 2 -29 1 -26 -1 rrcurveto
          17 123 -122 0 -14 -133 rlineto
          -177 -31 -48 -97 0 -92 0 -91 47 -74 127 -41 rrcurveto
          -21 -144 122 0 12 119 rlineto
          32 -4 35 -3 39 -2 rrcurveto
          endchar
        </CharString>
        <CharString name="check.1">
          3 -21 hstem
          42 488 vstem
          530 651 rmoveto
          -143 43 rlineto
          -48 -146 -44 -179 -34 -200 rrcurveto
          -7 0 -90 215 -122 -52 158 -350 123 6 rlineto
          59 242 68 218 80 203 rrcurveto
          endchar
        </CharString>
        <CharString name="check.2">
          3 -21 26 -21 hstemhm
          54 464 hintmask 01100000
          323 -13 rmoveto
          136 30 -133 256 192 375 -138 49 -126 -314 -69 152 -131 -46 124 -235 rlineto
          hintmask 10100000
          -112 -242 92 -30 89 174 rlineto
          endchar
        </CharString>
        <CharString name="circumflex">
          627 -20 hstem
          80 389 vstem
          383 561 rmoveto
          -15 callsubr
          endchar
        </CharString>
        <CharString name="colon">
          4 -21 0 209 138 209 0 -20 hstemhm
          170 209 hintmask 10011000
          170 434 rmoveto
          hintmask 10101000
          -57 46 -47 59 59 45 47 57 57 -45 48 -59 vhcurveto
          -59 -46 -48 -57 hvcurveto
          hintmask 01011000
          -345 vmoveto
          -58 46 -48 59 59 45 48 58 56 -45 47 -59 vhcurveto
          -59 -46 -47 -56 hvcurveto
          endchar
        </CharString>
        <CharString name="colon.alt">
          71 165 147 165 hstemhm
          183 186.5 -182.5 186.5 hintmask 11010000
          372 383 rmoveto
          48 callsubr
          hintmask 11100000
          182 -312 rmoveto
          48 callsubr
          endchar
        </CharString>
        <CharString name="colonmonetary">
          476 125 -82 -20 hstemhm
          48 129 1 104.5 0.5 101 -42.5 103 hintmask 01101000
          177 315 rmoveto
          0 60 32 54 118 28 rrcurveto
          -25 -282 rlineto
          -95 30 -30 42 0 68 rrcurveto
          100 -389 rmoveto
          103 0 8 103 rlineto
          hintmask 10010100
          21 -3 22 -3 23 -3 rrcurveto
          26 120 rlineto
          -30 4 -27 4 -25 4 rrcurveto
          28 320 rlineto
          25 2 28 1 30 1 rrcurveto
          -6 125 rlineto
          -22 -1 -21 -1 -20 -2 rrcurveto
          9 96 -103 0 -9 -111 rlineto
          -22 -5 -20 -5 -18 -6 rrcurveto
          11 127 -103 0 rlineto
          hintmask 01010000
          -14 -174 rlineto
          hintmask 01101000
          -90 -57 -33 -81 0 -83 0 -79 28 -59 59 -44 rrcurveto
          -20 -190 104 0 13 141 rlineto
          17 -7 20 -6 20 -5 rrcurveto
          endchar
        </CharString>
        <CharString name="comma">
          -158 334 hstem
          209 160 vstem
          166 -137 rmoveto
          76 -21 rlineto
          88 76 75 148 -54 110 rrcurveto
          -173 -7 rlineto
          50 -101 -13 -137 -49 -68 rrcurveto
          endchar
        </CharString>
        <CharString name="commaaccent">
          -291 228 hstem
          203 154 vstem
          189 -269 rmoveto
          21 callsubr
          endchar
        </CharString>
        <CharString name="commaaccent.rot">
          571 228 hstem
          191 154 vstem
          359 777 rmoveto
          22 callsubr
          endchar
        </CharString>
        <CharString name="copyright">
          7 71 82 84 126 93 79 71 hstem
          32 77 63 93 177 76 vstem
          518 314 rmoveto
          186 -95 113 -138 -143 -110 -122 -185 -197 103 -102 144 137 102 113 194 vhcurveto
          -409 -4 rmoveto
          153 71 79 103 97 62 -82 -150 -162 -60 -70 -99 -100 -74 71 161 vhcurveto
          249 -66 rmoveto
          -73 -1 -20 18 0 59 0 37 12 15 78 -2 rrcurveto
          -6 93 rlineto
          -135 -7 -42 -67 0 -79 0 -90 42 -69 136 9 rrcurveto
          endchar
        </CharString>
        <CharString name="d">
          -14 116 -84 -21 28 -21 395 121 183 -20 32 -20 hstemhm
          42 141 157 142 hintmask 10010111
          282 102 rmoveto
          -69 callsubr
          hintmask 01010111
          77 -105 rmoveto
          hintmask 00110111
          -68 callsubr
          hintmask 10011011
          -67 callsubr
          endchar
        </CharString>
        <CharString name="dagger">
          448 112 -108 113 137 -20 hstemhm
          211 117.5 hintmask 10110000
          319 144 rmoveto
          19 305 148 -2 7 112 -151 2 3 140 -134 1 rlineto
          hintmask 01110000
          0 -138 -142 2 -6 -113 148 -2 0 -339 22 -10 rlineto
          endchar
        </CharString>
        <CharString name="daggerdbl">
          251 106.5 -102.5 107 92 106 -102 107 137 -20 hstemhm
          211 132.5 -132 125 -124.5 112 hintmask 01101001
          320 91 rmoveto
          hintmask 10101001
          8 161 151 -2 7 106 rlineto
          hintmask 10101010
          -152 3 5 96 147 -2 7 106 rlineto
          hintmask 01101100
          -151 2 3 140 -134 1 rlineto
          hintmask 01011100
          0 -138 -142 2 -6 -107 rlineto
          hintmask 01011010
          148 -2 1 -96 -150 2 -6 -107 rlineto
          hintmask 01101001
          156 -2 0 -195 22 -10 rlineto
          endchar
        </CharString>
        <CharString name="dcaron">
          -14 116 -84 -21 28 -21 395 121 183 -20 32 -20 hstemhm
          42 141 157 142 77 140 hintmask 0011011110000000
          550 567 rmoveto
          19 callsubr
          hintmask 1001011110000000
          -268 -465 rmoveto
          -69 callsubr
          hintmask 0101011110000000
          77 -105 rmoveto
          hintmask 0011011110000000
          -68 callsubr
          hintmask 1001101110000000
          -67 callsubr
          endchar
        </CharString>
        <CharString name="dcroat">
          -14 116 -84 -21 28 -21 392 118 48 86 59 -20 hstemhm
          42 141 156 143 hintmask 10011111
          282 102 rmoveto
          -59 -40 46 112 92 35 44 61 hvcurveto
          18 0 20 -4 22 -7 1 -105 1 -90 2 -69 rrcurveto
          -18 -12 -18 -7 -25 0 rrcurveto
          hintmask 01011111
          76 -105 rmoveto
          hintmask 00111111
          132 7 rlineto
          -6 108 -2 152 0 247 rrcurveto
          50 55 87 -55 59 vlineto
          -143 -12 0 -47 -113 0 0 -86 113 0 0 -48 rlineto
          -167 -130 -105 -184 hvcurveto
          hintmask 10011111
          -151 75 -88 105 vhcurveto
          54 0 43 26 32 33 rrcurveto
          endchar
        </CharString>
        <CharString name="degree">
          288 104 191 105 hstem
          79 112 168 112 vstem
          471 492 rmoveto
          121 -81 75 -108 -108 -95 -80 -124 -121 82 -75 107 108 95 80 124 vhcurveto
          -112 -3 rmoveto
          -60 -36 -37 -47 -50 -35 41 55 58 35 37 48 49 36 -40 -54 vhcurveto
          endchar
        </CharString>
        <CharString name="dieresis">
          576 145 hstem
          92.5 144 81 143.5 vstem
          459 576 rmoveto
          -28 callsubr
          -81 hmoveto
          -27 callsubr
          endchar
        </CharString>
        <CharString name="divide">
          59 129 55 119 55 129 hstem
          204 142 vstem
          cntrmask 11100000
          345 417 rmoveto
          3 129 -142 0 -2 -129 rlineto
          293 -55 rmoveto
          -444 -119 444 hlineto
          -152 -184 rmoveto
          2 129 -142 0 -2 -129 rlineto
          endchar
        </CharString>
        <CharString name="dollar">
          35 117 318 104 hstem
          60 154 122 154 vstem
          271 -74 rmoveto
          19 113 rlineto
          145 16 55 57 0 68 0 147 -276 55 0 60 0 33 73 11 179 -51 rrcurveto
          18 139 rlineto
          -37 5 -33 3 -31 2 rrcurveto
          22 109 -125 1 -19 -112 rlineto
          -146 -14 -55 -62 0 -69 0 -143 276 -49 0 -63 0 -36 -76 -9 -191 45 rrcurveto
          -26 -139 rlineto
          46 -5 42 -3 38 0 rrcurveto
          -23 -108 rlineto
          endchar
        </CharString>
        <CharString name="dotaccent">
          576 145 hstem
          201 148 vstem
          347 576 rmoveto
          17 callsubr
          endchar
        </CharString>
        <CharString name="dotlessi">
          0 106 295 105 hstem
          227 143 vstem
          521 hmoveto
          8 callsubr
          endchar
        </CharString>
        <CharString name="e">
          -12 117 114 83 103 115 hstem
          49 140 171 140 vstem
          472 -12 rmoveto
          -66 callsubr
          -195 417 rmoveto
          -65 callsubr
          endchar
        </CharString>
        <CharString name="eacute">
          -12 117 114 83 103 115 181 -20 hstem
          49 140 171 140 vstem
          151 630 rmoveto
          -21 callsubr
          321 -642 rmoveto
          -66 callsubr
          -195 417 rmoveto
          -65 callsubr
          endchar
        </CharString>
        <CharString name="ebreve">
          -12 117 114 83 103 115 52 112 hstem
          49 140 171 140 vstem
          287 572 rmoveto
          15 callsubr
          185 -584 rmoveto
          -66 callsubr
          -195 417 rmoveto
          -65 callsubr
          endchar
        </CharString>
        <CharString name="ecaron">
          -12 117 114 83 103 115 195 -20 hstem
          49 140 171 140 vstem
          296 562 rmoveto
          18 callsubr
          186 -574 rmoveto
          -66 callsubr
          -195 417 rmoveto
          -65 callsubr
          endchar
        </CharString>
        <CharString name="ecircumflex">
          -12 117 114 83 103 115 115 -20 hstem
          49 140 171 140 vstem
          392 569 rmoveto
          -15 callsubr
          202 -673 rmoveto
          -66 callsubr
          -195 417 rmoveto
          -65 callsubr
          endchar
        </CharString>
        <CharString name="edieresis">
          -12 117 114 83 103 115 64 145 hstemhm
          49 140 -88.5 144 81 143.5 -109 140 hintmask 11110110
          467 584 rmoveto
          -28 callsubr
          -81 hmoveto
          -27 callsubr
          hintmask 11111001
          373 -596 rmoveto
          7 callsubr
          -195 417 rmoveto
          -65 callsubr
          endchar
        </CharString>
        <CharString name="edotaccent">
          -12 117 114 83 103 115 64 145 hstemhm
          49 140 26 148 -3 140 hintmask 11110100
          361 584 rmoveto
          17 callsubr
          hintmask 11111010
          259 -596 rmoveto
          7 callsubr
          -195 417 rmoveto
          -65 callsubr
          endchar
        </CharString>
        <CharString name="egrave">
          -12 117 114 83 103 115 108 -20 hstem
          49 140 171 140 vstem
          408 628 rmoveto
          -74 callsubr
          102 -579 rmoveto
          -66 callsubr
          -195 417 rmoveto
          -65 callsubr
          endchar
        </CharString>
        <CharString name="eight">
          -14 106 436 106 hstemhm
          55 133 -125 135 155 131 -123 136 hintmask 11100100
          264 -14 rmoveto
          145 88 80 101 hvcurveto
          0 75 -57 47 -65 38 rrcurveto
          hintmask 11011000
          69 37 40 47 0 71 rrcurveto
          93 -89 59 -113 -143 -76 -88 -87 vhcurveto
          0 -67 48 -47 58 -38 rrcurveto
          hintmask 11100100
          -71 -40 -43 -53 0 -70 rrcurveto
          -96 89 -62 120 vhcurveto
          hintmask 11011000
          -66 489 rmoveto
          28 26 25 50 56 23 -31 -41 vhcurveto
          0 -32 -19 -32 -31 -24 rrcurveto
          -57 31 -48 31 0 45 rrcurveto
          hintmask 11100100
          79 -383 rmoveto
          -63 -26 34 46 hvcurveto
          0 36 19 33 32 25 64 -37 58 -33 0 -46 rrcurveto
          -33 -33 -25 -51 vhcurveto
          endchar
        </CharString>
        <CharString name="eight.den">
          -220 79 146 -21 33 -21 121 78 hstemhm
          106 107 -101 111 109 105 -104 112 hintmask 10111001
          267 -220 rmoveto
          36 callsubr
          hintmask 10110110
          43 callsubr
          hintmask 11010101
          44 callsubr
          hintmask 10111001
          38 callsubr
          hintmask 10110110
          -44 306 rmoveto
          39 callsubr
          hintmask 10111001
          52 -227 rmoveto
          40 callsubr
          endchar
        </CharString>
        <CharString name="eight.inf">
          -160 79 258 78 hstemhm
          106 107 -101 111 109 105 -104 112 hintmask 11100100
          267 -160 rmoveto
          36 callsubr
          hintmask 11011000
          37 callsubr
          hintmask 11100100
          38 callsubr
          hintmask 11011000
          -44 306 rmoveto
          39 callsubr
          hintmask 11100100
          52 -227 rmoveto
          40 callsubr
          endchar
        </CharString>
        <CharString name="eight.num">
          415 79 125 -20 32 -20 141 78 hstemhm
          106 107 -101 111 109 105 -104 112 hintmask 10111001
          267 415 rmoveto
          36 callsubr
          hintmask 11010110
          37 callsubr
          hintmask 11011001
          38 callsubr
          hintmask 10110110
          -44 306 rmoveto
          39 callsubr
          hintmask 10111001
          52 -227 rmoveto
          40 callsubr
          endchar
        </CharString>
        <CharString name="eight.small">
          -10 79 258 78 hstemhm
          106 107 -101 111 109 105 -104 112 hintmask 11100100
          267 -10 rmoveto
          36 callsubr
          hintmask 11011000
          37 callsubr
          hintmask 11100100
          38 callsubr
          hintmask 11011000
          -44 306 rmoveto
          39 callsubr
          hintmask 11100100
          52 -227 rmoveto
          40 callsubr
          endchar
        </CharString>
        <CharString name="eight.sup">
          315 79 125 -20 153 78 hstemhm
          106 107 -101 111 109 105 -104 112 hintmask 11110010
          267 315 rmoveto
          36 callsubr
          hintmask 11101100
          37 callsubr
          hintmask 11110010
          38 callsubr
          hintmask 11101100
          -44 306 rmoveto
          39 callsubr
          hintmask 11110010
          52 -227 rmoveto
          40 callsubr
          endchar
        </CharString>
        <CharString name="ellipsis">
          0 175 hstem
          26 131 52 131 52 131 vstem
          cntrmask 01110000
          520 hmoveto
          27 callsubr
          -52 hmoveto
          27 callsubr
          -52 hmoveto
          27 callsubr
          endchar
        </CharString>
        <CharString name="emacron">
          -12 117 114 83 103 115 76 121 hstem
          49 140 171 140 vstem
          463 717 rmoveto
          -24 callsubr
          9 -608 rmoveto
          -66 callsubr
          -195 417 rmoveto
          -65 callsubr
          endchar
        </CharString>
        <CharString name="emdash">
          249 107 hstem
          54 449 vstem
          503 356 rmoveto
          -449 -107 441 hlineto
          endchar
        </CharString>
        <CharString name="endash">
          249 107 hstem
          66 424 vstem
          490 356 rmoveto
          -424 -107 412 hlineto
          endchar
        </CharString>
        <CharString name="eogonek">
          -230 110 122 103 114 83 103 115 hstem
          49 140 31 135 5 140 vstem
          445 -230 rmoveto
          12 110 rlineto
          -75 5 -27 15 0 21 0 18 28 24 89 30 rrcurveto
          13 112 rlineto
          -202 3 -75 23 -16 84 rrcurveto
          305 8 rlineto
          18 185 -67 112 -145 0 -135 0 -119 -120 0 -158 0 -151 83 -91 203 2 rrcurveto
          -80 -42 -35 -43 0 -41 0 -53 63 -49 162 -4 rrcurveto
          -168 635 rmoveto
          57 0 23 -37 3 -66 -52 -1 -73 -3 -46 -1 rrcurveto
          5 80 29 28 54 0 rrcurveto
          endchar
        </CharString>
        <CharString name="equal">
          145 123 86 124 hstem
          48 454 vstem
          502 478 rmoveto
          -454 -124 454 hlineto
          -86 vmoveto
          -454 -123 454 hlineto
          endchar
        </CharString>
        <CharString name="eth">
          -16 115 252 111 172 -20 22 -20 101 -20 hstemhm
          44 139 184 136 hintmask 11011110
          262 -16 rmoveto
          129 112 100 185 hvcurveto
          0 114 -38 99 -79 90 rrcurveto
          67 27 -28 78 -102 -41 rlineto
          -31 27 -36 27 -39 27 rrcurveto
          hintmask 11101110
          -93 -83 rlineto
          25 -17 23 -17 21 -17 rrcurveto
          -87 -35 29 -78 124 50 rlineto
          18 -19 15 -19 13 -20 -138 -9 -123 -83 0 -155 rrcurveto
          -145 98 -86 120 vhcurveto
          17 115 rmoveto
          -50 -46 48 86 hvcurveto
          0 97 50 45 125 -37 6 -27 3 -29 0 -29 rrcurveto
          -105 -31 -49 -57 vhcurveto
          endchar
        </CharString>
        <CharString name="exclam">
          4 -21 0 181 529 -20 hstemhm
          185 180 -163.5 147.5 hintmask 10101000
          359 693 rmoveto
          -168 0 21 -438 127 0 rlineto
          hintmask 01110000
          -64 -91 rmoveto
          -50 -40 -41 -49 -50 40 -41 50 51 39 41 50 hvcurveto
          49 -39 41 -51 vhcurveto
          endchar
        </CharString>
        <CharString name="exclamdown">
          469 152 hstem
          193.5 174 vstem
          195 621 rmoveto
          -3 -152 174 0 3 152 rlineto
          -142 -256 rmoveto
          -50 -422 183 0 -38 422 rlineto
          endchar
        </CharString>
        <CharString name="f">
          0 106 262 107 108 137 hstem
          188 142 vstem
          470 106 rmoveto
          -140 262 151 107 -151 25 hlineto
          0 73 12 6 173 4 rrcurveto
          -9 137 rlineto
          -240 -12 -78 -103 0 -126 rrcurveto
          -4 -110 vlineto
          -12 -107 122 0 0 -262 -116 0 0 -106 386 0 rlineto
          endchar
        </CharString>
        <CharString name="five">
          6 -21 512.5 122.5 hstem
          102.5 124.5 124 132 vstem
          483 213 rmoveto
          0 78 -60 70 -199 30 rrcurveto
          6 107 224 -1 11 123 -353 0 -19 -318 rlineto
          187 -23 71 -33 0 -43 0 -52 -65 -19 -210 -17 rrcurveto
          8 -130 rlineto
          280 17 119 94 0 117 rrcurveto
          endchar
        </CharString>
        <CharString name="five.den">
          -222 99 215 93 hstem
          142 96 95 104 vstem
          437 -78 rmoveto
          32 callsubr
          endchar
        </CharString>
        <CharString name="five.inf">
          -162 99 215 93 hstem
          142 96 95 104 vstem
          437 -18 rmoveto
          32 callsubr
          endchar
        </CharString>
        <CharString name="five.num">
          413 99 215 93 hstem
          142 96 95 104 vstem
          437 557 rmoveto
          32 callsubr
          endchar
        </CharString>
        <CharString name="five.small">
          -12 99 215 93 hstem
          142 96 95 104 vstem
          437 132 rmoveto
          32 callsubr
          endchar
        </CharString>
        <CharString name="five.sup">
          313 99 215 93 hstem
          142 96 95 104 vstem
          437 457 rmoveto
          32 callsubr
          endchar
        </CharString>
        <CharString name="fiveeighths">
          -220 79 146 -21 33 -21 121 78 65 90 63 99 215 93 hstemhm
          106 107 -101 111 -81 96 95 104 -104 112 hintmask 1011111001100000
          437 557 rmoveto
          32 callsubr
          -378 -297 rmoveto
          -18 callsubr
          hintmask 1011111100010000
          208 -570 rmoveto
          36 callsubr
          hintmask 1011111010100000
          43 callsubr
          hintmask 1101111010100000
          44 callsubr
          hintmask 1011111100100000
          38 callsubr
          hintmask 1011111010100000
          -44 306 rmoveto
          39 callsubr
          hintmask 1011111100010000
          52 -227 rmoveto
          40 callsubr
          endchar
        </CharString>
        <CharString name="fivesixths">
          -220 86 99 70 225 90 63 99 215 93 hstemhm
          103 106 -67 96 95 104 -95 104 hintmask 1111101100000000
          437 557 rmoveto
          32 callsubr
          -378 -297 rmoveto
          -18 callsubr
          hintmask 1111110010000000
          215 -570 rmoveto
          33 callsubr
          9 86 rmoveto
          34 callsubr
          endchar
        </CharString>
        <CharString name="four">
          21 -21 106 121 390 -20 29 -20 hstemhm
          322 130 hintmask 11011000
          507 106 rmoveto
          11 121 -66 0 0 209 -130 -14 0 -195 -147 0 rlineto
          hintmask 11101000
          99 390 rlineto
          hintmask 11011000
          -151 9 rlineto
          -44 -178 -21 -204 6 -138 rrcurveto
          258 -106 130 106 hlineto
          endchar
        </CharString>
        <CharString name="four.den">
          -142 88.5 hstem
          306.5 103 vstem
          451 -143 rmoveto
          -17 callsubr
          endchar
        </CharString>
        <CharString name="four.inf">
          -82 88.5 21.5 -21 hstem
          306.5 103 vstem
          451 -83 rmoveto
          8 90 -50 -1 1 120 -104 -9 1 -111 rlineto
          -100 1 68 236 -120 7 rlineto
          -31 -113 -16 -131 5 -89 rrcurveto
          194 2 -1 -69 104 0 -1 68 rlineto
          endchar
        </CharString>
        <CharString name="four.num">
          493 88.5 119.5 -20 hstem
          306.5 103 vstem
          451 492 rmoveto
          -17 callsubr
          endchar
        </CharString>
        <CharString name="four.small">
          0 156.5 -88.5 88.5 hstemhm
          306.5 103 hintmask 10100000
          451 67 rmoveto
          8 90 -50 -1 1 120 -104 -9 1 -111 -100 1 68 236 -120 7 rlineto
          hintmask 01100000
          -31 -113 -16 -131 5 -89 rrcurveto
          194 2 rlineto
          hintmask 10100000
          -1 -69 104 0 -1 68 rlineto
          endchar
        </CharString>
        <CharString name="four.sup">
          393 88.5 236.5 -20 hstem
          306.5 103 vstem
          451 392 rmoveto
          -17 callsubr
          endchar
        </CharString>
        <CharString name="fourfifths">
          -222 99 215 93 75 90 143 88.5 119.5 -20 hstemhm
          142 96 68.5 103 -76.5 104 hintmask 01111110
          451 492 rmoveto
          -17 callsubr
          -350 -233 rmoveto
          -18 callsubr
          hintmask 11111101
          378 -428 rmoveto
          32 callsubr
          endchar
        </CharString>
        <CharString name="fraction">
          712 -20 hstem
          12 521 vstem
          132 -160 rmoveto
          401 872 -120 49 -401 -873 rlineto
          endchar
        </CharString>
        <CharString name="fraction.afrc">
          260 90 hstem
          59 432 vstem
          59 260 rmoveto
          -18 callsubr
          endchar
        </CharString>
        <CharString name="g">
          -157 -21 229 109 240 119 hstem
          44 140 158 142 vstem
          119 -178 rmoveto
          -64 callsubr
          176 211 rmoveto
          -63 callsubr
          endchar
        </CharString>
        <CharString name="gbreve">
          -157 -21 229 109 240 119 52 112 hstem
          44 140 158 142 vstem
          293 571 rmoveto
          15 callsubr
          -174 -749 rmoveto
          -64 callsubr
          176 211 rmoveto
          -63 callsubr
          endchar
        </CharString>
        <CharString name="gcommaaccent">
          -157 -21 229 109 240 119 hstemhm
          44 140 21 154 -17 142 hintmask 11111000
          373 784 rmoveto
          22 callsubr
          -254 -962 rmoveto
          hintmask 11110100
          -64 callsubr
          176 211 rmoveto
          -63 callsubr
          endchar
        </CharString>
        <CharString name="gdotaccent">
          -157 -21 229 109 240 119 64 145 hstemhm
          44 140 37 148 -27 142 hintmask 10111100
          367 583 rmoveto
          17 callsubr
          -100 -761 rmoveto
          hintmask 11111010
          -64 callsubr
          176 211 rmoveto
          -63 callsubr
          endchar
        </CharString>
        <CharString name="germandbls">
          -9 120 -111 111 487 120 hstemhm
          54 141 56 138 -62 143 -76 144 hintmask 10111000
          389 359 rmoveto
          hintmask 01110100
          0 44 81 45 0 112 rrcurveto
          75 -52 83 -122 -157 -85 -116 -148 vhcurveto
          -454 141 483 vlineto
          85 21 30 49 42 20 -33 -37 vhcurveto
          hintmask 10111000
          0 -64 -76 -49 0 -76 rrcurveto
          hintmask 10110010
          0 -119 143 -15 0 -56 0 -35 -37 -9 -96 9 rrcurveto
          -6 -123 rlineto
          223 -5 60 85 0 82 rrcurveto
          0 123 -149 27 0 56 rrcurveto
          endchar
        </CharString>
        <CharString name="grave">
          620 -20 hstem
          120 317 vstem
          437 620 rmoveto
          -74 callsubr
          endchar
        </CharString>
        <CharString name="greater">
          15 598 hstem
          44 461 vstem
          114 613 rmoveto
          -70 -114 324 -185 -324 -191 71 -108 390 242 0 114 rlineto
          endchar
        </CharString>
        <CharString name="greaterequal">
          -1 119 401 -20 126 -20 hstem
          335 148 vstem
          335 382 rmoveto
          0 -7 -257 -112 45 -110 361 166 -2 105 -349 201 -55 -106 rlineto
          -15 -401 rmoveto
          -119 425 119 vlineto
          endchar
        </CharString>
        <CharString name="guillemotleft">
          0 -21 hstem
          20 520 vstem
          184 -21 rmoveto
          -26 callsubr
          415 -204 rmoveto
          -25 callsubr
          endchar
        </CharString>
        <CharString name="guillemotleft.cap">
          501 -20 hstem
          20 520 vstem
          184 33 rmoveto
          -26 callsubr
          415 -204 rmoveto
          -25 callsubr
          endchar
        </CharString>
        <CharString name="guillemotright">
          0 -21 hstem
          10 520 vstem
          361 -21 rmoveto
          -19 callsubr
          -151 -82 rmoveto
          -19 callsubr
          endchar
        </CharString>
        <CharString name="guillemotright.cap">
          502 -20 hstem
          10 520 vstem
          361 33 rmoveto
          -19 callsubr
          -151 -82 rmoveto
          -19 callsubr
          endchar
        </CharString>
        <CharString name="guilsinglleft">
          0 -21 hstem
          114 327 vstem
          340 -21 rmoveto
          28 callsubr
          endchar
        </CharString>
        <CharString name="guilsinglleft.cap">
          33 550 hstem
          114 327 vstem
          340 33 rmoveto
          28 callsubr
          endchar
        </CharString>
        <CharString name="guilsinglright">
          0 -21 hstem
          110 327 vstem
          204 -21 rmoveto
          29 callsubr
          endchar
        </CharString>
        <CharString name="guilsinglright.cap">
          33 550 hstem
          110 327 vstem
          204 33 rmoveto
          29 callsubr
          endchar
        </CharString>
        <CharString name="h">
          21 -21 399 121 183 -20 32 -20 hstemhm
          65 142 142 142 hintmask 11011100
          281 399 rmoveto
          41 27 -23 -81 hvcurveto
          -295 142 346 vlineto
          123 -54 51 -86 vhcurveto
          -61 0 -46 -25 -37 -31 rrcurveto
          0 251 rlineto
          hintmask 11101100
          -142 -12 0 -703 142 0 0 378 rlineto
          22 13 24 8 28 0 rrcurveto
          endchar
        </CharString>
        <CharString name="hbar">
          21 -21 399 116 47 86 55 -20 32 -20 hstemhm
          64 143 142 142 hintmask 11101110
          281 399 rmoveto
          41 27 -23 -81 hvcurveto
          -295 142 346 vlineto
          119 -54 50 -86 vhcurveto
          -61 0 -46 -25 -37 -31 rrcurveto
          103 114 86 -114 67 vlineto
          hintmask 11110110
          -143 -12 0 -55 -55 0 0 -87 55 0 0 -561 143 0 0 378 rlineto
          22 13 24 8 28 0 rrcurveto
          endchar
        </CharString>
        <CharString name="hcoslug">
          -100 75 4 9 -8 10 -10 14 -4 11 -10 10 -9 7 0 12 -11 11 -7 15 -15 26 -25 26 -15 8 -8 15 -12 12 0 14 -9 10 -10 19 -9 11 2 8 -7 32 71.5 22.5 hstemhm
          50 64 10 16 -3 8 5 40 -35 12 -1 12 14 10 -2 10 -10 42 -31 9 -1 7 3 12 -6 11 9 40 -29 13 -9 10 0 12 -4 11 -2 12 -5 16 18 11 10 8 hintmask 001000000000000010000010000010000010000010010000
          500 700 rmoveto
          -450 hlineto
          hintmask 100000000000000000001110000000100000001000000000
          -800 450 vlineto
          -300 396 rmoveto
          0 -17 11 -11 17 -16 9 13 5 12 0 12 rrcurveto
          18 -9 11 -13 -12 -8 -9 -13 vhcurveto
          49 -64 rmoveto
          12 -12 9 -12 9 -11 15 25 3 18 -17 17 -7 -7 -10 -9 -14 -9 rrcurveto
          -39 -93 rmoveto
          12 0 9 3 8 6 -21 27 -21 22 -14 13 -8 -8 -4 -11 0 -11 0 -23 17 -18 22 0 rrcurveto
          91 34 rmoveto
          19 -22 13 -9 15 0 15 0 9 9 8 13 rrcurveto
          5 -1 rlineto
          -1 -44 -27 -27 -32 0 -22 0 -17 8 -25 26 -21 -23 -25 -11 -32 0 -45 0 -36 30 0 40 0 31 21 24 40 13 -16 17 -7 13 0 22 rrcurveto
          32 31 32 51 46 25 -30 -26 vhcurveto
          0 -10 -2 -8 -5 -7 20 0 15 -8 2 -20 12 18 14 10 19 0 rrcurveto
          21 16 -15 -24 -23 -16 -17 -21 hvcurveto
          -14 0 -12 7 -6 12 -12 -7 -12 -10 -11 -15 rrcurveto
          hintmask 000000000000000000001000000000000100000000000000
          -72 -105 rmoveto
          -8 10 -5 -10 vlineto
          hintmask 000000000000000001000000000000000100000000000000
          -15 vlineto
          -3 1 -1 2 vhcurveto
          2 0 1 1 1 4 rrcurveto
          4 -1 rlineto
          -2 -7 -3 -3 -6 0 rrcurveto
          -6 -3 4 6 hvcurveto
          hintmask 000000000000000000100000000000010000000000000000
          15 -5 5 5 7 vlineto
          hintmask 000000000000000010000000100000000000000000000000
          -75 -21 rmoveto
          45 callsubr
          hintmask 000000000000000010000010000000000000000000000000
          22 hmoveto
          46 callsubr
          hintmask 000000000000000100000000000000000000000100000000
          132 -1 rmoveto
          6 -2 4 -3 -5 -1 -5 -5 -6 1 -4 5 vhcurveto
          3 2 4 6 hvcurveto
          hintmask 000000000000000010000010000000000000000000000000
          -120 -9 rmoveto
          4 hlineto
          hintmask 000000000000000000100010000000000000000000000000
          19 -4 5 vlineto
          hintmask 000000000000000000001000000010000000000000000000
          13 -6 hlineto
          2 4 3 3 5 0 rrcurveto
          7 2 -5 -6 hvcurveto
          hintmask 000000000000000010000000000000010000000000000000
          -14 5 -5 vlineto
          hintmask 000000000001000000000000000010000000000000000000
          -17 5 3 hlineto
          hintmask 000000000000000000100000000010000000000000000000
          13 vlineto
          3 -1 3 -3 -3 -3 -3 -5 vhcurveto
          -11 3 -5 vlineto
          hintmask 000000000000000010000010000000000000000000000000
          -16 hlineto
          -71 5 rmoveto
          6 hlineto
          hintmask 000000000000000000010010000000000000000000000000
          31 -6 5 vlineto
          hintmask 000000000000000000001000001000000000000000000000
          38 hlineto
          hintmask 000000000000000000100000001000000000000000000000
          -15 -5 vlineto
          -2 8 -1 2 -6 0 rrcurveto
          -8 hlineto
          hintmask 000000000000000000010001000000000000000000000000
          -14 3 vlineto
          4 0 0 1 1 5 rrcurveto
          5 hlineto
          hintmask 000000000000000010000000100000000000000000000000
          -17 -5 vlineto
          -1 5 0 1 -4 0 rrcurveto
          -3 hlineto
          hintmask 000000000000000010000001000000000000000000000000
          -12 7 -5 vlineto
          hintmask 000000000000000010000010000000000000000000000000
          -23 hlineto
          hintmask 000000000000000001000000000000000100000000000000
          133 10 rmoveto
          5 hlineto
          3 -4 3 -3 3 0 3 0 1 2 0 1 rrcurveto
          hintmask 000000000000000000010000000000000100000000000000
          0 7 -18 -4 0 12 0 4 4 5 7 0 3 0 3 -1 2 -3 rrcurveto
          1 4 5 0 0 -10 -5 0 rlineto
          -3 4 -2 1 -3 0 -2 0 -2 -1 0 -2 rrcurveto
          hintmask 000000000001000000000000000000000000100000000000
          0 -5 18 2 0 -11 0 -5 -3 -4 -7 0 -5 0 -3 2 -2 2 rrcurveto
          -1 -3 -5 0 rlineto
          hintmask 000000000000000000010000000000000000100000000000
          38 38 rmoveto
          -5 5 hlineto
          hintmask 000000000000000000001000000000000000000100000000
          14 hlineto
          hintmask 000000000000000000010000000000000000000100000000
          -20 vlineto
          1 4 4 3 4 0 rrcurveto
          hintmask 000000000010000000000000000000000000000010000000
          7 5 -6 -9 -7 -3 -9 -9 hvcurveto
          -6 0 -3 2 -2 4 rrcurveto
          -3 -6 -4 0 rlineto
          hintmask 100000000000000000001000000000000000000010000000
          39 -6 rmoveto
          3 3 2 4 hvcurveto
          -3 7 -9 18 0 0 rrcurveto
          -3 5 18 -5 -4 hlineto
          7 -15 6 15 -4 0 0 5 13 0 0 -5 -4 0 rlineto
          hintmask 000000000100000000000000000000000000000010000000
          -10 -24 rlineto
          -3 -7 -4 -5 -6 0 rrcurveto
          -6 -3 3 4 3 2 2 3 hvcurveto
          5 0 1 -5 -2 -2 rrcurveto
          hintmask 000000001000000000000000000000000000000000000000
          45 -24 rmoveto
          -6 -4 vlineto
          -2 -4 -2 -3 -3 -3 2 -2 2 -2 1 0 1 0 1 1 1 3 rrcurveto
          3 -1 rlineto
          -1 -5 -2 -4 -6 0 rrcurveto
          hintmask 100000000000000000000000000000000000000001000000
          -4 0 -2 2 -3 3 -3 -3 -4 -2 -6 0 -7 0 -5 4 0 6 0 6 4 3 6 2 -3 3 -2 3 0 4 rrcurveto
          hintmask 000000000000100000000000000000000000000000100000
          5 4 6 9 6 4 -4 -5 vhcurveto
          0 -5 -3 -2 -5 -3 2 -2 4 -5 3 -3 2 2 2 3 1 2 rrcurveto
          -5 6 hlineto
          hintmask 000000000010000000000000000000000010000000000000
          -114 4 rmoveto
          11 4 hlineto
          -3 -2 2 2 2 1 1 0 hvcurveto
          0 -1 1 -2 -2 -2 -2 -6 vhcurveto
          hintmask 100000000000000000000000000000000000000000010000
          132 -13 rmoveto
          hintmask 000010000000000000000000000000000000000000010000
          15 9 8 11 vhcurveto
          hintmask 000010000000000000000000000000000000000000000000
          5 0 4 -2 3 -3 rrcurveto
          4 6 -16 -6 vlineto
          hintmask 000000010000000000000000000000000000000000000000
          -3 9 -2 3 -6 0 rrcurveto
          -6 -4 -5 -12 hvcurveto
          hintmask 010000000000000000000000000000000000000000000000
          -11 4 -6 8 vhcurveto
          hintmask 000001000000000000000000000000000000000000000000
          6 0 3 6 1 6 rrcurveto
          6 hlineto
          hintmask 100000000000000000000000000000000000000000000000
          -1 -10 -6 -7 -11 0 rrcurveto
          -13 -8 7 14 hvcurveto
          hintmask 000000010000000000000000000000000000000000100000
          -29 4 rmoveto
          2 1 2 3 0 3 rrcurveto
          3 -2 2 -3 -2 -2 -1 -3 vhcurveto
          0 -2 2 -3 3 -3 rrcurveto
          hintmask 001000000000000000000000000000000000010000000000
          -68 -11 rmoveto
          47 callsubr
          hintmask 100000000000000000000000000000000000010000000000
          -1 -6 -4 -5 -8 0 rrcurveto
          -10 -6 6 9 hvcurveto
          hintmask 000000000001000000000000000000000000010000000000
          10 7 6 8 vhcurveto
          11 0 4 -7 -1 -10 rrcurveto
          hintmask 001000000000000000000000000001000000000000000000
          -89 hmoveto
          47 callsubr
          hintmask 100000000000000000000000000000001000000000000000
          -1 -6 -4 -5 -8 0 rrcurveto
          hintmask 100000000000000000000000010000000000000000000000
          -10 -6 6 9 hvcurveto
          hintmask 000000000001000000000000010000000000000000000000
          10 7 6 8 vhcurveto
          hintmask 000000000001000000000000000000001000000000000000
          11 0 4 -7 -1 -10 rrcurveto
          hintmask 001000000000000000000010000001000000000000000000
          -63 2 rmoveto
          45 callsubr
          252 hmoveto
          hintmask 001000000000000000000000000000000000000000000000
          9 7 6 9 9 7 -6 -9 vhcurveto
          hintmask 001000000000000000000010000001000000000000000000
          -9 -7 -7 -9 -9 -7 6 10 vhcurveto
          hintmask 000000100000000000000000000001000000010000000000
          -138 2 rmoveto
          10 hlineto
          6 -1 3 -4 vhcurveto
          -3 -2 -2 -7 hvcurveto
          -70 hmoveto
          10 hlineto
          6 -1 3 -4 -3 -2 -2 -7 vhcurveto
          hintmask 001000000000000000000000000100000000000000000000
          -22 -2 rmoveto
          46 callsubr
          hintmask 001000000000000000000000000000000000000000000000
          252 hmoveto
          46 callsubr
          hintmask 100000000000000000000000000000001000000000000000
          -208 -10 rmoveto
          4 hlineto
          hintmask 000000100000000000000000000000001000000000000000
          19 -5 5 5 1 vlineto
          hintmask 000000000000001000000000000000001000000000000000
          10 7 4 6 vhcurveto
          4 0 2 -1 2 -1 rrcurveto
          8 2 rlineto
          hintmask 001000000000000000000000000000000000100000000000
          -39 4 -5 vlineto
          hintmask 100000000000000000000000000000000010000000000000
          -17 5 4 hlineto
          hintmask 000000100000000000000000000000000010000000000000
          19 -11 vlineto
          hintmask 001000000000000000000000000000000010000000000000
          -19 4 -5 vlineto
          hintmask 100000000000000000000000000000001000000000000000
          -17 hlineto
          hintmask 100000000000000000000000000000000001000000000000
          69 5 rmoveto
          4 hlineto
          hintmask 000000100000000000000000000000000001000000000000
          19 -4 5 vlineto
          hintmask 000000000001000000000000000000000000000001000000
          13 -6 hlineto
          2 5 3 2 4 0 rrcurveto
          4 2 -2 -4 -3 -2 -2 -3 -2 -3 1 3 hvcurveto
          1 vlineto
          -1 0 -3 -3 -1 -4 rrcurveto
          hintmask 001000000000000000000000000000000000000001000000
          -12 6 -5 vlineto
          hintmask 100000000000000000000000000000000001000000000000
          -19 hlineto
          hintmask 100000000000000000000010000000000000000000000000
          -183 5 rmoveto
          6 hlineto
          hintmask 000000010000000000000010000000000000000000000000
          31 -6 5 vlineto
          hintmask 000000000000010000000001000000000000000000000000
          21 -5 -5 hlineto
          hintmask 000000010000000000000001000000000000000000000000
          -12 16 12 -5 5 vlineto
          hintmask 000000000000010000000000000100000000000000000000
          21 -5 -6 hlineto
          hintmask 001000000000000000000000000100000000000000000000
          -31 6 -5 vlineto
          hintmask 100000000000000000000001000000000000000000000000
          -21 5 5 hlineto
          hintmask 000100000000000000000001000000000000000000000000
          14 -16 vlineto
          hintmask 001000000000000000000001000000000000000000000000
          -14 5 -5 vlineto
          hintmask 100000000000000000000010000000000000000000000000
          -21 hlineto
          hintmask 001000000000000000000000000000000000000000100000
          234 7 rmoveto
          -2 2 -4 5 -4 4 -2 -2 -1 -2 0 -3 0 -4 3 -3 4 0 rrcurveto
          2 0 2 1 2 2 rrcurveto
          hintmask 100000000000000000000000000000000000000000000000
          111 -2 rmoveto
          -3 -2 -3 -4 -4 -2 3 3 3 2 3 4 vhcurveto
          4 2 -3 -3 hvcurveto
          endchar
        </CharString>
        <CharString name="hungarumlaut">
          566 246 hstem
          114 448 vstem
          114 608 rmoveto
          24 callsubr
          213 -2 rmoveto
          25 callsubr
          endchar
        </CharString>
        <CharString name="hyphen">
          252 122 hstem
          58 434 vstem
          58 252 rmoveto
          434 122 -434 hlineto
          endchar
        </CharString>
        <CharString name="i">
          0 106 295 105 70 145 hstemhm
          224.5 149 -146.5 143 hintmask 11110000
          369 576 rmoveto
          -62 callsubr
          301 -576 rmoveto
          12 106 rlineto
          hintmask 11101000
          -61 callsubr
          endchar
        </CharString>
        <CharString name="iacute">
          0 106 295 105 hstem
          227 143 vstem
          167 622 rmoveto
          -21 callsubr
          354 -622 rmoveto
          8 callsubr
          endchar
        </CharString>
        <CharString name="ibreve">
          0 106 295 105 58 112 hstem
          227 143 vstem
          303 564 rmoveto
          15 callsubr
          218 -564 rmoveto
          8 callsubr
          endchar
        </CharString>
        <CharString name="icircumflex">
          0 106 295 105 121 -20 hstem
          227 143 vstem
          408 561 rmoveto
          -15 callsubr
          235 -653 rmoveto
          8 callsubr
          endchar
        </CharString>
        <CharString name="idieresis">
          0 106 295 105 70 145 hstemhm
          116.5 144 -33.5 143 -28.5 143.5 hintmask 11110100
          483 576 rmoveto
          -28 callsubr
          -81 hmoveto
          -27 callsubr
          406 -576 rmoveto
          12 106 rlineto
          hintmask 11101000
          -61 callsubr
          endchar
        </CharString>
        <CharString name="igrave">
          0 106 295 105 114 -20 hstem
          227 143 vstem
          424 620 rmoveto
          -74 callsubr
          135 -559 rmoveto
          8 callsubr
          endchar
        </CharString>
        <CharString name="imacron">
          0 106 295 105 82 121 hstem
          227 143 vstem
          479 709 rmoveto
          -24 callsubr
          42 -588 rmoveto
          8 callsubr
          endchar
        </CharString>
        <CharString name="iogonek">
          -233 110 123 106 295 105 70 145 hstemhm
          148 135 -58.5 149 -146.5 143 hintmask 11110100
          369 576 rmoveto
          -62 callsubr
          165 -699 rmoveto
          hintmask 11111000
          -75 5 -27 15 0 21 0 21 19 27 61 34 rrcurveto
          158 0 12 106 rlineto
          hintmask 01110010
          -163 400 -299 hlineto
          -11 -101 167 -8 0 -291 rlineto
          hintmask 11111000
          -163 -106 172 hlineto
          -61 -43 -27 -41 0 -39 0 -57 63 -49 162 -4 rrcurveto
          endchar
        </CharString>
        <CharString name="j">
          -175 132 442.5 106.5 70 145 hstemhm
          261.5 149 -140.5 142 hintmask 11110000
          408 576 rmoveto
          5 145 -149 0 -5 -145 rlineto
          hintmask 11101000
          153 -501 rmoveto
          431 -325 vlineto
          -11 -101 194 -11 0 -350 rlineto
          0 -76 -15 -7 -192 -4 rrcurveto
          -5 -132 rlineto
          263 3 91 95 0 152 rrcurveto
          endchar
        </CharString>
        <CharString name="k">
          12 -21 30 -21 30 -21 199 100.5 190.5 -20 30 -20 214 -20 32 -20 hstemhm
          74 142 hintmask 1001100110000000
          383 -9 rmoveto
          -60 callsubr
          hintmask 0011010110000000
          -59 callsubr
          hintmask 0101011010000000
          -58 callsubr
          endchar
        </CharString>
        <CharString name="kcommaaccent">
          12 -21 30 -21 30 -21 199 100.5 190.5 -20 30 -20 214 -20 32 -20 hstemhm
          74 142 3 154 hintmask 1001100110000000
          383 -9 rmoveto
          -60 callsubr
          hintmask 0011010110000000
          -59 callsubr
          hintmask 0101011010000000
          -58 callsubr
          hintmask 0011010101000000
          -56 -487 rmoveto
          21 callsubr
          endchar
        </CharString>
        <CharString name="l">
          0 106 489 106 hstem
          208 143 vstem
          488 hmoveto
          -57 callsubr
          endchar
        </CharString>
        <CharString name="lacute">
          0 106 489 106 hstem
          208 143 vstem
          148 817 rmoveto
          -21 callsubr
          340 -817 rmoveto
          -57 callsubr
          endchar
        </CharString>
        <CharString name="lcaron">
          0 106 489 106 hstem
          208 143 74 140 vstem
          416 567 rmoveto
          19 callsubr
          72 -567 rmoveto
          -57 callsubr
          endchar
        </CharString>
        <CharString name="lcommaaccent">
          0 106 489 106 hstemhm
          208 143 -141 154 hintmask 11100000
          488 hmoveto
          -57 callsubr
          hintmask 11010000
          136 -269 rmoveto
          21 callsubr
          endchar
        </CharString>
        <CharString name="ldot">
          0 106 148 148 193 106 hstem
          208 143 139.5 128.5 vstem
          488 hmoveto
          -57 callsubr
          555 254 rmoveto
          8 148 -128 0 -9 -148 rlineto
          endchar
        </CharString>
        <CharString name="less">
          15 598 hstem
          44 461 vstem
          435 613 rmoveto
          -391 -243 0 -113 389 -242 72 113 -325 186 325 190 rlineto
          endchar
        </CharString>
        <CharString name="lessequal">
          -1 119 507 -20 hstem
          68 148 vstem
          216 382 rmoveto
          257 137 -55 106 -349 -201 -2 -105 361 -166 45 110 -257 112 rlineto
          272 -257 rmoveto
          -425 -119 425 hlineto
          endchar
        </CharString>
        <CharString name="lig.1">
          -17 115 234 101 169 108 hstemhm
          -470.25 142.08301 -110 139.33398 130.16602 133.83398 22.91602 142.08398 -110 139.33301 130.16699 133.83301 hintmask 1110110110000000
          243.83301 433 rmoveto
          -50.41602 -33.91699 38 52 49 23.83301 30 43.08398 hvcurveto
          35.75 0 20.16602 -13 27.5 -31 rrcurveto
          77.91699 73 rlineto
          -49.5 58 -54.08301 21 -74.25 0 -110 0 -79.75 -72 0 -95 0 -47 12.83301 -37 24.75 -26 rrcurveto
          -272.25 hlineto
          -50.41699 -33.91602 38 52 49 23.83301 30 43.08301 hvcurveto
          35.75 0 20.16699 -13 27.5 -31 rrcurveto
          77.91699 73 rlineto
          -49.5 58 -54.08398 21 -74.25 0 -110 0 -79.75 -72 0 -95 0 -80 35.75 -49 72.41699 -21 rrcurveto
          -4 vlineto
          hintmask 1111011010000000
          -87.08301 -23 -53.16699 -57 0 -111 0 -123 78.83301 -92 144.83398 0 109.08301 0 65.08301 43 37.58398 44 rrcurveto
          262 65.08301 vlineto
          -27.5 -31 -14.66699 -44 0 -59 0 -123 78.83398 -92 144.83301 0 109.08301 0 65.08398 43 37.58301 44 rrcurveto
          262 60.5 101 vlineto
          -652.66699 -307 rmoveto
          -14.66602 -17 -24.75 -11 -30.25 0 rrcurveto
          -58.66699 -31.16699 46 66 62 33 60 72.41699 hvcurveto
          54.08301 hlineto
          458.33398 -206 rmoveto
          -14.66699 -17 -24.75 -11 -30.25 0 rrcurveto
          -58.66699 -31.16602 46 66 62 33 60 72.41602 hvcurveto
          54.08398 hlineto
          endchar
        </CharString>
        <CharString name="lig.10">
          63.25 -112 rmoveto
          59 callsubr
          -261.25 672 rmoveto
          60 callsubr
          endchar
        </CharString>
        <CharString name="lig.100">
          631 -20 hstem
          -28.41699 656 rmoveto
          107 callsubr
          -916.66602 284 rmoveto
          108 callsubr
          184.25 127 rmoveto
          15.58301 -243 -206.25 89 -36.66699 -125 213.58398 -61 -128.33398 -169 100.83398 -80 102.66602 189 115.5 -197 99.91699 80 -139.33301 176 214.5 59 -37.58398 125 -205.33301 -87 14.66699 244 rlineto
          endchar
        </CharString>
        <CharString name="lig.101">
          711 -20 hstem
          -311.66699 111.83398 254.83301 111.83301 vstem
          -311.66699 711 rmoveto
          -512.41602 -340 0 -114 512.41602 -343 111.83398 0 0 797 rlineto
          254.83301 hmoveto
          109 callsubr
          -478.5 -646 rmoveto
          81 callsubr
          endchar
        </CharString>
        <CharString name="lig.102">
          -342.83301 134.75 vstem
          -208.08301 727 rmoveto
          -134.75 -832 134.75 hlineto
          91.66602 758 rmoveto
          0 -157 294.25 -182 -294.25 -187 0 -152 419.83398 282 0 114 rlineto
          -737.91699 281 rmoveto
          -418.91699 -282 0 -113 418.91699 -282 0 156 -293.33301 183 293.33301 186 rlineto
          endchar
        </CharString>
        <CharString name="lig.103">
          -91 150 -48 -21 606 138 -100 -20 hstemhm
          -488.58301 129.25 55 74.25 81.58301 134.75 hintmask 10101110
          -28.41699 656 rmoveto
          -79.75 57 -46.75 15 -75.16602 7 rrcurveto
          121 -74.25 -122 vlineto
          -113.66699 -13 -70.58301 -101 0 -109 0 -94 52.25 -61 132 -48 rrcurveto
          -249 vlineto
          -54.08398 4 -55.91602 16 -79.75 49 rrcurveto
          -297.91699 186 233.75 150 rlineto
          hintmask 10011110
          28.41699 170 -387.75 -264 0 -113 423.5 -286 rlineto
          63.25 -41 36.66602 -14 89.83398 -7 rrcurveto
          -71 74.25 78 vlineto
          146.66602 14 69.66699 141 0 113 0 107 -93.5 87 -122.83301 44 rrcurveto
          175 vlineto
          37.58301 -3 66 -33 98.08301 -62 rrcurveto
          297.91699 -185 -224.58301 -143 rlineto
          hintmask 01101110
          -45.83398 -181 396 267 0 114 rlineto
          -699.41602 82 rmoveto
          -47.66699 24 -7.33301 20 0 33 0 32 18.33301 27 36.66699 7 rrcurveto
          155.83301 -435 rmoveto
          0 -45 -44 -47 -37.58301 -9 rrcurveto
          216 vlineto
          45.83301 -25 35.75 -34 0 -56 rrcurveto
          endchar
        </CharString>
        <CharString name="lig.104">
          145 123 86 124 hstem
          463.83301 354 rmoveto
          124 -1222.83301 vlineto
          19.25 13 11.91699 14 11 13 rrcurveto
          33.91602 40 -95.33301 89 -276.83301 -336 276.83301 -336 95.33301 89 -33.91602 40 rlineto
          -11 14 -11.91699 13 -19.25 14 rrcurveto
          1222.83301 123 -1318.16602 hlineto
          -36.66699 43 36.66699 43 rlineto
          endchar
        </CharString>
        <CharString name="lig.105">
          145 123 86 124 hstem
          228.25 647 rmoveto
          -95.33301 -89 33.91602 -40 rlineto
          11 -13 11.91699 -14 19.25 -13 rrcurveto
          -968 hlineto
          19.25 13 11.91699 14 11 13 rrcurveto
          33.91602 40 -95.33301 89 -276.83301 -336 276.83301 -336 95.33301 89 -33.91602 40 rlineto
          -11 14 -11.91699 13 -19.25 14 rrcurveto
          968 hlineto
          -19.25 -14 -11.91699 -13 -11 -14 rrcurveto
          -33.91602 -40 95.33301 -89 276.83301 336 rlineto
          -1359.41602 -43 rmoveto
          -36.66699 43 36.66699 43 1158.66602 0 36.66699 -43 -36.66699 -43 rlineto
          endchar
        </CharString>
        <CharString name="lig.106">
          145 123 86 124 hstem
          -808.5 268 rmoveto
          -36.66699 43 36.66699 43 1100 0 171.41699 204 -95.33398 89 -139.33301 -169 -941.41699 0 rlineto
          19.25 13 11.91699 14 11 13 rrcurveto
          33.91699 40 -95.33398 89 -276.83301 -336 276.83301 -336 95.33398 89 -33.91699 40 rlineto
          -11 14 -11.91699 13 -19.25 14 rrcurveto
          941.41699 0 139.33301 -170 95.33398 89 -171.41699 204 rlineto
          endchar
        </CharString>
        <CharString name="lig.107">
          249 128 hstem
          182.41699 649 rmoveto
          -95.33398 -89 64.16699 -76 rlineto
          38.5 -45 33 -35 39.41699 -27 rrcurveto
          -1074.33398 hlineto
          39.41699 27 33 35 38.5 45 rrcurveto
          64.16699 76 -95.33398 89 -276.83301 -336 276.83301 -336 95.33398 89 -64.16699 76 rlineto
          -37.58301 44 -33.91699 35 -37.58301 28 rrcurveto
          1070.66602 hlineto
          -37.58301 -28 -33.91699 -35 -37.58301 -44 rrcurveto
          -64.16699 -76 95.33398 -89 276.83301 336 rlineto
          endchar
        </CharString>
        <CharString name="lig.108">
          249 128 hstem
          -732.41699 649 rmoveto
          -276.83301 -336 276.83301 -336 95.33398 89 -64.16699 76 rlineto
          -37.58301 44 -33.91699 35 -37.58301 28 rrcurveto
          1261.33301 128 -1263.16699 hlineto
          39.41699 27 33 35 38.5 45 rrcurveto
          64.16699 76 rlineto
          endchar
        </CharString>
        <CharString name="lig.109">
          249 128 hstem
          462.91699 560 rmoveto
          -95.33398 89 -223.66602 -272 -960.66699 0 rlineto
          39.41699 27 33 35 37.58301 45 rrcurveto
          70.58301 83 -87.08301 82 -277.75 -336 277.75 -336 87.08301 82 -70.58301 83 rlineto
          -36.66699 44 -34.83301 35 -36.66699 28 rrcurveto
          958.83398 0 223.66602 -272 95.33398 89 -208.08398 247 rlineto
          endchar
        </CharString>
        <CharString name="lig.11">
          -232.83301 134.75 195.25 134.75 vstem
          -98.08301 810 rmoveto
          61 callsubr
          330 915 rmoveto
          61 callsubr
          endchar
        </CharString>
        <CharString name="lig.110">
          145 123 86 124 hstem
          -637.08301 558 rmoveto
          105 callsubr
          1309.91699 43 rmoveto
          124 -867.16699 vlineto
          19.25 13 11.91699 14 11 13 rrcurveto
          33.91699 40 -95.33398 89 -276.83301 -336 276.83301 -336 95.33398 89 -33.91699 40 rlineto
          -11 14 -11.91699 13 -19.25 14 rrcurveto
          867.16699 123 -962.5 hlineto
          -36.66699 43 36.66699 43 rlineto
          endchar
        </CharString>
        <CharString name="lig.111">
          249 128 hstem
          -732.41699 649 rmoveto
          103 callsubr
          263.08301 89 rmoveto
          -276.83301 -336 276.83301 -336 95.33301 89 -64.16602 76 rlineto
          -36.66699 44 -34.83301 35 -36.66699 28 rrcurveto
          902 128 -903.83301 hlineto
          39.41602 27 33 35 37.58398 45 rrcurveto
          64.16602 76 rlineto
          endchar
        </CharString>
        <CharString name="lig.112">
          -532.58301 602 rmoveto
          85 callsubr
          404.25 111 rmoveto
          85 callsubr
          404.25 111 rmoveto
          84 callsubr
          endchar
        </CharString>
        <CharString name="lig.113">
          17 -21 256 121 256 -20 hstem
          -335.5 120.08301 vstem
          -28.41699 656 rmoveto
          107 callsubr
          -916.66602 284 rmoveto
          108 callsubr
          306.16602 125 rmoveto
          -120.08301 -256 -230.08301 -121 230.08301 -256 120.08301 256 231 121 -231 hlineto
          endchar
        </CharString>
        <CharString name="lig.114">
          -152 -21 hstem
          -62.33301 679 rmoveto
          35.75 81 -111.83398 57 -323.58301 -732 -357.5 229 297.91699 190 -64.16699 109 -359.33301 -243 0 -113 430.83301 -292 -36.66699 -82 112.75 -56 322.66699 732 385 -245 -297.91699 -191 66 -108 rlineto
          357.5 242 0 114 rlineto
          endchar
        </CharString>
        <CharString name="lig.115">
          21 -21 145 104 197 105 hstem
          518.83301 446 rmoveto
          105 -55.91602 vlineto
          17.41602 142 -119.16602 0 -17.41699 -142 -88 0 17.41699 142 -120.08398 0 -16.5 -142 -223.66602 0 17.41602 142 -119.16602 0 -17.41699 -142 -88 0 17.41699 142 -120.08398 0 -16.5 -142 rlineto
          -223.66602 0 17.41602 142 -119.16602 0 -17.41699 -142 -88 0 17.41699 142 -120.08398 0 -16.5 -142 -70.58301 0 0 -105 57.75 0 -23.83301 -197 -67.83398 0 0 -104 55 0 rlineto
          -16.5 -145 119.16699 0 17.41699 145 88 0 -17.41699 -145 119.16699 0 17.41602 145 222.75 0 -16.5 -145 119.16699 0 17.41699 145 88 0 -17.41699 -145 119.16699 0 17.41602 145 rlineto
          222.75 0 -16.5 -145 119.16699 0 17.41699 145 88 0 -17.41699 -145 119.16699 0 17.41602 145 70.58398 0 0 104 -57.75 0 22.91602 197 rlineto
          -1243 -197 rmoveto
          66 callsubr
          319 -197 rmoveto
          88 callsubr
          183.33301 -197 rmoveto
          66 callsubr
          319 -197 rmoveto
          88 callsubr
          183.33301 -197 rmoveto
          66 callsubr
          endchar
        </CharString>
        <CharString name="lig.116">
          -186 124 83 -21 145 104 197 105 hstem
          92.58301 146.66699 vstem
          239.25 350 rmoveto
          0 165 50.41699 113 122.83301 147 rrcurveto
          -83.41699 83 rlineto
          -144.83301 -136 -91.66699 -153 0 -219 0 -169 58.66699 -134 87.08301 -109 rrcurveto
          -893.75 0 24.75 207 69.66699 0 0 104 -56.83301 0 22.91602 197 67.83398 0 0 105 -55 0 17.41602 142 -119.16602 0 -17.41699 -142 -88 0 17.41699 142 -120.08398 0 rlineto
          -16.5 -142 -70.58301 0 0 -105 57.75 0 -23.83301 -197 -67.83398 0 0 -104 55 0 -16.5 -145 119.16699 0 17.41699 145 88 0 -40.33398 -331 1152.25 -1 78.83398 77 rlineto
          -147.58398 145 -54.08301 132 0 183 rrcurveto
          -977.16699 -101 rmoveto
          66 callsubr
          endchar
        </CharString>
        <CharString name="lig.117">
          145 123 -101 283 -96 124 hstemhm
          -955.16699 260.33398 152.16602 260.33398 hintmask 00111000
          483.08301 478 rmoveto
          -605.91602 -124 605.91602 hlineto
          hintmask 01011000
          -1308.08301 -187 rmoveto
          89 callsubr
          412.5 hmoveto
          75.16699 55 59 82 82 -55 60 -75.16699 -75.16699 -55 -59 -82 -81 55 -61 75.16699 hvcurveto
          hintmask 10011000
          895.58301 101 rmoveto
          -605.91602 -123 605.91602 hlineto
          endchar
        </CharString>
        <CharString name="lig.118">
          -17 223 hstem
          -752.58301 203.5 126.5 203.5 vstem
          239.25 613 rmoveto
          106 callsubr
          -1056 -409 rmoveto
          110 callsubr
          330 hmoveto
          110 callsubr
          endchar
        </CharString>
        <CharString name="lig.119">
          -17 223 hstem
          -742.5 203.5 163.16699 203.5 163.16602 203.5 vstem
          -742.5 95 rmoveto
          90 callsubr
          366.66699 hmoveto
          110 callsubr
          366.66602 hmoveto
          -61 44.91699 -51 56.83301 56.83398 44.91602 51 61 60 -44.91602 51 -56.83398 -56.83301 -44.91699 -51 -60 vhcurveto
          endchar
        </CharString>
        <CharString name="lig.12">
          -123 116 293 128 292 117 hstem
          -332.75 134.75 381.33301 133.83398 vstem
          -332.75 823 rmoveto
          62 callsubr
          309.83301 hmoveto
          -174.16602 -117 174.16602 hlineto
          56.83398 0 11.91602 -13 0.91699 -51 rrcurveto
          1.83301 -123 rlineto
          1.83398 -113 47.66602 -41 92.58398 -15 -98.08398 -16 -44 -39 0 -114 rrcurveto
          -124 vlineto
          -51 -15.58301 -13 -55.91699 vhcurveto
          -174.16602 -116 174.16602 hlineto
          168.66699 36.66699 48 136 hvcurveto
          127 vlineto
          75 47.66602 23 78.83398 vhcurveto
          128 vlineto
          -77.91699 0 -47.66699 23 -0.91602 75 rrcurveto
          -1.83398 119 rlineto
          -1.83301 137 -33 55 -168.66699 0 rrcurveto
          endchar
        </CharString>
        <CharString name="lig.120">
          252 121 hstem
          -793.83301 120.08301 338.25 120.08301 338.25 120.08398 vstem
          -215.41699 252 rmoveto
          338.25 -206 120.08398 206 185.16602 121 -185.16602 206 -120.08398 -206 -338.25 206 -120.08301 -206 -338.25 hlineto
          206 -120.08301 -206 -184.25 -121 184.25 -206 120.08301 206 338.25 -206 120.08301 vlineto
          endchar
        </CharString>
        <CharString name="lig.121">
          145 123 86 124 hstem
          -914.83301 -112 rmoveto
          59 callsubr
          914.83301 533 rmoveto
          94 callsubr
          595.83301 124 rmoveto
          -520.66602 -124 520.66602 hlineto
          -595.83301 -86 rmoveto
          95 callsubr
          595.83301 123 rmoveto
          -520.66602 -123 520.66602 hlineto
          endchar
        </CharString>
        <CharString name="lig.122">
          -869 -112 rmoveto
          59 callsubr
          571.08301 -57 rmoveto
          384.08398 872 -111.83398 57 -385 -872 rlineto
          571.08398 -57 rmoveto
          59 callsubr
          endchar
        </CharString>
        <CharString name="lig.123">
          -186 124 hstem
          -342.83301 134.75 vstem
          -208.08301 -62 rmoveto
          789 -134.75 -789 -573.83398 -124 1283.33398 124 vlineto
          endchar
        </CharString>
        <CharString name="lig.124">
          -17 181 hstemhm
          -861.66699 165 -140.25 116.41699 363 165 -140.25 116.41699 363 165 hintmask 10100100
          -702.16699 693 rmoveto
          73 callsubr
          522.5 438 rmoveto
          -154 0 rlineto
          hintmask 10001100
          74 callsubr
          -562.83398 -91 rmoveto
          hintmask 11000100
          75 callsubr
          504.16699 hmoveto
          hintmask 10010100
          75 callsubr
          504.16699 hmoveto
          -46.75 -35.75 -41 -49 -50 35.75 -41 46.75 45.83301 36.66699 41 50 49 -36.66699 41 -45.83301 hvcurveto
          endchar
        </CharString>
        <CharString name="lig.125">
          21 -21 hstem
          347.41699 531 rmoveto
          -32.08398 -432 -50.41602 365 -121.91699 0 -55 -365 -63.25 365 -122.83301 0 -51.33398 -365 -65.08301 365 -117.33301 0 -65.08398 -365 -51.33301 365 -122.83301 0 -63.25 -365 -54.08398 365 -121.91602 0 rlineto
          -51.33398 -365 -32.08301 432 -132.91699 0 72.41699 -531 156.75 0 47.66699 357 56.83301 -357 122.83301 0 58.66699 357 56.83301 -357 122.83398 0 58.66602 357 58.66699 -357 122.83301 0 56.83398 357 rlineto
          58.66602 -357 121.91699 0 57.75 357 46.75 -357 157.66699 0 71.5 531 rlineto
          endchar
        </CharString>
        <CharString name="lig.126">
          711 -20 hstem
          -1221 111.83301 309.83398 111.83301 291.5 111.83301 vstem
          -1109.16699 711 rmoveto
          96 callsubr
          421.66699 797 rmoveto
          96 callsubr
          403.33301 797 rmoveto
          63 callsubr
          -512.41699 -306 rmoveto
          64 callsubr
          endchar
        </CharString>
        <CharString name="lig.127">
          711 -20 hstem
          -815.83301 111.83301 291.5 111.83301 309.83398 111.83301 vstem
          -815.83301 711 rmoveto
          80 callsubr
          291.5 hmoveto
          109 callsubr
          309.83398 hmoveto
          109 callsubr
          -936.83301 -646 rmoveto
          81 callsubr
          endchar
        </CharString>
        <CharString name="lig.128">
          -17 181 88 122 hstemhm
          -1182.5 165 -140.25 116.41699 hintmask 11010000
          -1023 693 rmoveto
          73 callsubr
          -332.75 394 rmoveto
          -276.83398 -336 276.83398 -336 95.33301 89 -64.16699 76 rlineto
          -37.58301 44 -33.91699 35 -37.58301 28 rrcurveto
          192.5 128 -194.33301 hlineto
          39.41602 27 33 35 38.5 45 rrcurveto
          64.16699 76 rlineto
          352 -308 rmoveto
          1377.75 122 -1377.75 hlineto
          -173.25 -210 rmoveto
          hintmask 11100000
          75 callsubr
          endchar
        </CharString>
        <CharString name="lig.129">
          21 -21 145 104 197 105 hstem
          518.83301 446 rmoveto
          105 -55.91602 vlineto
          17.41602 142 -119.16602 0 -17.41699 -142 -88 0 17.41699 142 -120.08398 0 -16.5 -142 -223.66602 0 17.41602 142 -119.16602 0 -17.41699 -142 -88 0 17.41699 142 -120.08398 0 -16.5 -142 rlineto
          -223.66602 0 17.41602 142 -119.16602 0 -17.41699 -142 -88 0 17.41699 142 -120.08398 0 -16.5 -142 -223.66602 0 17.41602 142 -119.16602 0 -17.41699 -142 -88 0 17.41699 142 -120.08398 0 rlineto
          -16.5 -142 -70.58301 0 0 -105 57.75 0 -23.83301 -197 -67.83398 0 0 -104 55 0 -16.5 -145 119.16699 0 17.41699 145 88 0 -17.41699 -145 119.16699 0 17.41602 145 rlineto
          222.75 0 -16.5 -145 119.16699 0 17.41699 145 88 0 -17.41699 -145 119.16699 0 17.41602 145 222.75 0 -16.5 -145 119.16699 0 17.41699 145 88 0 -17.41699 -145 119.16699 0 rlineto
          17.41602 145 222.75 0 -16.5 -145 119.16699 0 17.41699 145 88 0 -17.41699 -145 119.16699 0 17.41602 145 70.58398 0 0 104 -57.75 0 22.91602 197 rlineto
          -1793 -197 rmoveto
          66 callsubr
          319 -197 rmoveto
          88 callsubr
          183.33301 -197 rmoveto
          66 callsubr
          319 -197 rmoveto
          88 callsubr
          183.33301 -197 rmoveto
          66 callsubr
          319 -197 rmoveto
          88 callsubr
          183.33301 -197 rmoveto
          66 callsubr
          endchar
        </CharString>
        <CharString name="lig.13">
          -123 117 711 118 hstem
          -334.58301 134.75 378.58301 136.58301 vstem
          -334.58301 823 rmoveto
          62 callsubr
          515.16602 -946 rmoveto
          946 -380.41602 -118 243.83301 -711 -243.83301 -117 vlineto
          endchar
        </CharString>
        <CharString name="lig.130">
          145 123 86 124 hstem
          228.25 647 rmoveto
          -95.33301 -89 33.91602 -40 rlineto
          11 -13 11.91699 -14 19.25 -13 rrcurveto
          -1518 hlineto
          19.25 13 11.91699 14 11 13 rrcurveto
          33.91602 40 -95.33301 89 -276.83301 -336 276.83301 -336 95.33301 89 -33.91602 40 rlineto
          -11 14 -11.91699 13 -19.25 14 rrcurveto
          1518 hlineto
          -19.25 -14 -11.91699 -13 -11 -14 rrcurveto
          -33.91602 -40 95.33301 -89 276.83301 336 rlineto
          -1909.41602 -43 rmoveto
          -36.66699 43 36.66699 43 1708.66602 0 36.66699 -43 -36.66699 -43 rlineto
          endchar
        </CharString>
        <CharString name="lig.14">
          145 123 86 124 hstem
          -342.83301 134.75 vstem
          391.41699 354 rmoveto
          124 -599.5 249 -134.75 -832 134.75 250 599.5 123 -599.5 86 vlineto
          endchar
        </CharString>
        <CharString name="lig.15">
          711 -20 hstem
          -304.33301 111.83301 vstem
          -192.5 711 rmoveto
          63 callsubr
          -512.41699 -306 rmoveto
          64 callsubr
          endchar
        </CharString>
        <CharString name="lig.16">
          252 122 hstem
          -342.83301 134.75 vstem
          391.41699 374 rmoveto
          -599.5 353 -134.75 -832 134.75 357 599.5 hlineto
          endchar
        </CharString>
        <CharString name="lig.17">
          -123 116 293 128 292 117 hstem
          -317.16699 133.83398 381.33301 134.75 vstem
          -111.83301 823 rmoveto
          -168.66699 0 -33 -55 -1.83301 -137 rrcurveto
          -1.83398 -119 rlineto
          -0.91602 -75 -47.66699 -23 -77.91699 0 rrcurveto
          -128 vlineto
          78.83398 47.66602 -23 -75 hvcurveto
          -127 vlineto
          -136 36.66699 -48 168.66699 vhcurveto
          174.16602 116 -174.16602 hlineto
          -55.91699 -15.58301 13 51 hvcurveto
          124 vlineto
          0 114 -44 39 -98.08398 16 92.58398 15 47.66602 41 1.83398 113 rrcurveto
          1.83301 123 rlineto
          0.91699 51 11.91602 13 56.83398 0 rrcurveto
          174.16602 117 hlineto
          270.41699 hmoveto
          65 callsubr
          endchar
        </CharString>
        <CharString name="lig.18">
          -123 117 711 118 hstem
          -315.33301 136.58301 378.58301 134.75 vstem
          -315.33301 -123 rmoveto
          380.41602 117 -243.83301 711 243.83301 118 -380.41602 hlineto
          649.91602 hmoveto
          65 callsubr
          endchar
        </CharString>
        <CharString name="lig.19">
          -123 118 26 -21 145 104 197 105 154 118 hstemhm
          -425.33301 282.33301 -136.58301 136.58301 hintmask 11111010
          463.83301 446 rmoveto
          105 -55.91602 vlineto
          17.41602 142 -119.16602 0 -17.41699 -142 -88 0 17.41699 142 -120.08398 0 -16.5 -142 -224.58301 0 rlineto
          hintmask 11111100
          272 -282.33301 -118 vlineto
          hintmask 11111010
          145.75 -710 hlineto
          hintmask 11111100
          -145.75 -118 282.33301 hlineto
          hintmask 11111010
          268 175.08301 vlineto
          -16.5 -145 119.16699 0 17.41699 145 88 0 -17.41699 -145 119.16699 0 17.41602 145 70.58398 0 0 104 -57.75 0 22.91602 197 rlineto
          -350.16602 -197 rmoveto
          -187.91699 197 211.75 hlineto
          183.33301 -197 rmoveto
          66 callsubr
          endchar
        </CharString>
        <CharString name="lig.2">
          145 123 86 124 hstem
          -7.33301 478 rmoveto
          -155.83398 286 -132 0 -173.25 -317 143 0 95.33398 199 144.83301 -292 522.5 0 0 124 rlineto
          -522.5 -333 rmoveto
          522.5 123 -522.5 hlineto
          endchar
        </CharString>
        <CharString name="lig.20">
          -17 209 138 209 hstem
          -279.58301 191.58301 175.08301 191.58398 vstem
          -279.58301 434 rmoveto
          -57 42.16602 -47 54.08398 54.08301 41.25 47 57 57 -41.25 48 -54.08301 -54.08398 -42.16602 -48 -57 vhcurveto
          366.66602 hmoveto
          67 callsubr
          -366.66602 -345 rmoveto
          -58 42.16602 -48 54.08398 54.08301 41.25 48 58 56 -41.25 47 -54.08301 -54.08398 -42.16602 -47 -56 vhcurveto
          366.66602 hmoveto
          68 callsubr
          endchar
        </CharString>
        <CharString name="lig.21">
          83 208 -146 123 62 209 -185 124 hstemhm
          -352 192.5 hintmask 00101000
          -352 434 rmoveto
          69 callsubr
          hintmask 00011000
          835.08301 44 rmoveto
          -537.16602 -124 537.16602 hlineto
          -835.08301 -166 rmoveto
          hintmask 10001000
          70 callsubr
          hintmask 01001000
          835.08301 80 rmoveto
          -537.16602 -123 537.16602 hlineto
          endchar
        </CharString>
        <CharString name="lig.22">
          14 -21 38 209 138 209 45 -20 hstem
          -398.75 191.58301 vstem
          -3.66699 632 rmoveto
          0 -141 319 -177 -319 -177 0 -144 466.58398 264 0 114 rlineto
          -861.66699 111 rmoveto
          71 callsubr
          -345 vmoveto
          72 callsubr
          endchar
        </CharString>
        <CharString name="lig.23">
          -91 150 -48 -21 606 138 hstemhm
          -396.91699 129.25 55 74.25 81.58398 134.75 hintmask 10111100
          64.16699 656 rmoveto
          -80.66699 57 -46.75 15 -75.16699 7 rrcurveto
          121 -74.25 -122 vlineto
          -113.66602 -13 -70.58398 -101 0 -109 0 -94 52.25 -61 132 -48 rrcurveto
          -249 vlineto
          -54.08301 4 -55.91699 16 -79.75 49 rrcurveto
          -157 vlineto
          63.25 -41 36.66699 -14 89.83301 -7 rrcurveto
          -71 74.25 78 vlineto
          146.66699 14 69.66699 141 0 113 0 107 -93.5 87 -122.83398 44 rrcurveto
          175 vlineto
          37.58398 -3 66 -33 99 -62 rrcurveto
          297 -185 -224.58398 -143 rlineto
          hintmask 01111100
          -45.83301 -181 396 267 0 114 rlineto
          -699.41699 82 rmoveto
          -47.66602 24 -7.33398 20 0 33 0 32 18.33398 27 36.66602 7 rrcurveto
          155.83398 -435 rmoveto
          0 -45 -44 -47 -37.58398 -9 rrcurveto
          216 vlineto
          45.83398 -25 35.75 -34 0 -56 rrcurveto
          endchar
        </CharString>
        <CharString name="lig.24">
          145 123 86 124 hstem
          483.08301 478 rmoveto
          -966.16602 -124 966.16602 hlineto
          -86 vmoveto
          -966.16602 -123 966.16602 hlineto
          endchar
        </CharString>
        <CharString name="lig.25">
          145 123 86 124 hstem
          228.25 647 rmoveto
          -95.33301 -89 33.91602 -40 rlineto
          11 -13 11.91699 -14 19.25 -13 rrcurveto
          -672.83301 -124 768.16602 hlineto
          36.66699 -43 -36.66699 -43 -768.16602 0 0 -123 672.83301 0 rlineto
          -19.25 -14 -11.91699 -13 -11 -14 rrcurveto
          -33.91602 -40 95.33301 -89 276.83301 336 rlineto
          endchar
        </CharString>
        <CharString name="lig.26">
          145 123 86 124 hstem
          483.08301 354 rmoveto
          124 -327.25 vlineto
          87.08398 160 -104.5 56 -118.25 -216 -503.25 0 0 -124 435.41602 0 -46.75 -86 -388.66602 0 0 -123 320.83301 0 -80.66699 -148 106.33398 -58 111.83301 206 507.83301 0 0 123 rlineto
          -440.91602 0 46.75 86 rlineto
          endchar
        </CharString>
        <CharString name="lig.27">
          -17 181 hstemhm
          -247.5 165 -140.25 116.41699 188.83301 165 -140.25 116.41699 hintmask 10100000
          -88 693 rmoveto
          73 callsubr
          348.33301 438 rmoveto
          -154 0 rlineto
          hintmask 10001000
          74 callsubr
          -388.66699 -91 rmoveto
          hintmask 11000000
          75 callsubr
          330 hmoveto
          hintmask 10010000
          75 callsubr
          endchar
        </CharString>
        <CharString name="lig.28">
          638 -20 hstem
          -230.08301 33 rmoveto
          507.83301 246 0 113 -507.83301 246 -46.75 -114 392.33301 -188 -392.33301 -188 rlineto
          537.16602 -16 rmoveto
          -506.91602 -244 45.83301 -115 507.83301 247 rlineto
          endchar
        </CharString>
        <CharString name="lig.29">
          -429.91699 602 rmoveto
          76 callsubr
          45.83398 231 rmoveto
          77 callsubr
          endchar
        </CharString>
        <CharString name="lig.3">
          210 120 -20 120 hstemhm
          hintmask 10000000
          349.25 408 rmoveto
          49 callsubr
          hintmask 01000000
          50 callsubr
          hintmask 10000000
          51 callsubr
          hintmask 01000000
          52 callsubr
          hintmask 10000000
          53 callsubr
          hintmask 01000000
          54 callsubr
          hintmask 10000000
          55 callsubr
          endchar
        </CharString>
        <CharString name="lig.30">
          252 122 hstem
          451 374 rmoveto
          -589.41699 0 -226.41602 275 -95.33398 -89 208.08398 -247 -208.08398 -247 95.33398 -89 226.41602 275 589.41699 0 rlineto
          endchar
        </CharString>
        <CharString name="lig.31">
          210 120 -78 122 -64 120 hstemhm
          hintmask 10000000
          375.83301 408 rmoveto
          49 callsubr
          hintmask 00100000
          50 callsubr
          hintmask 01000000
          -82.5 0 -17.41699 -56 -67.83301 0 rrcurveto
          -396 -122 420.75 hlineto
          hintmask 00100000
          77.91699 -1 3.66602 59 57.75 0 rrcurveto
          hintmask 10000000
          55 0 38.5 -100 88 0 81.58398 0 45.83301 66 38.5 93 rrcurveto
          endchar
        </CharString>
        <CharString name="lig.32">
          252 122 hstem
          208.08301 134.75 vstem
          208.08301 727 rmoveto
          -353 -599.5 -122 599.5 -357 134.75 832 vlineto
          endchar
        </CharString>
        <CharString name="lig.33">
          249 128 hstem
          182.41699 649 rmoveto
          -95.33398 -89 64.16699 -76 rlineto
          38.5 -45 33 -35 39.41699 -27 rrcurveto
          -713.16699 -128 711.33301 hlineto
          -37.58301 -28 -33.91699 -35 -37.58301 -44 rrcurveto
          -64.16699 -76 95.33398 -89 276.83301 336 rlineto
          endchar
        </CharString>
        <CharString name="lig.34">
          252 122 hstem
          -413.41699 252 rmoveto
          78 callsubr
          448.25 -122 rmoveto
          78 callsubr
          endchar
        </CharString>
        <CharString name="lig.35">
          252 122 hstem
          460.16699 560 rmoveto
          -95.33398 89 -226.41602 -275 -589.41699 0 0 -122 589.41699 0 226.41602 -275 95.33398 89 -208.08398 247 rlineto
          endchar
        </CharString>
        <CharString name="lig.36">
          204 122 -22 128 hstemhm
          hintmask 10000000
          235.58301 426 rmoveto
          -125.58301 0 -6.41699 -100 -51.33301 0 rrcurveto
          hintmask 01000000
          -50.41699 0 -8.25 106 -124.66602 0 -136.58398 0 15.58398 -87 -78.83398 7 rrcurveto
          25 vlineto
          37.58398 28 33.91602 35 37.58398 44 rrcurveto
          64.16602 76 -95.33301 89 -276.83301 -336 276.83301 -336 95.33301 89 -64.16602 76 rlineto
          -25.66699 30 -23.83301 26 -23.83398 22 115.5 2 -1.83301 82 50.41699 0 rrcurveto
          hintmask 10000000
          51.33301 0 6.41699 -100 125.58301 0 rrcurveto
          hintmask 01000000
          125.58301 0 6.41699 100 51.33301 0 28.41699 0 29.33301 -37 14.66699 -40 rrcurveto
          104.5 52 rlineto
          -26.58301 88 -84.33398 59 -66 0 rrcurveto
          -568.33301 -177 rmoveto
          0.91699 64 0 -65 rlineto
          1 -0.91699 0 0 vhcurveto
          endchar
        </CharString>
        <CharString name="lig.37">
          631 -20 hstem
          -17.41699 655 rmoveto
          79 callsubr
          184.25 127 rmoveto
          15.58398 -243 -206.25 89 -36.66699 -125 213.58301 -61 -128.33301 -169 100.83301 -80 102.66699 189 115.5 -197 99.91699 80 -139.33398 176 214.5 59 -37.58301 125 -205.33301 -87 14.66602 244 rlineto
          endchar
        </CharString>
        <CharString name="lig.38">
          711 -20 hstem
          192.5 111.83301 vstem
          192.5 711 rmoveto
          80 callsubr
          -111.83301 -646 rmoveto
          81 callsubr
          endchar
        </CharString>
        <CharString name="lig.39">
          14 -21 38 209 138 209 45 -20 hstem
          207.16699 191.58301 vstem
          3.66699 632 rmoveto
          -466.58398 -261 0 -114 466.58398 -264 0 144 -319 177 319 177 rlineto
          395.08301 -9 rmoveto
          82 callsubr
          -345 vmoveto
          83 callsubr
          endchar
        </CharString>
        <CharString name="lig.4">
          -94 98 -53 99 160 120 -20 120 -81 99 165 98 hstemhm
          13.75 130.16699 97.16602 121.91699 75.16699 110.91602 hintmask 0010011110000000
          263.08301 711 rmoveto
          -59.58301 0 -117.33301 -4 -79.75 -82 -53.16699 -54 -29.33301 -110 -24.75 -53 -23.83398 -51 -22.91602 -27 -34.83398 0 rrcurveto
          hintmask 0001011110000000
          -55 0 -36.66602 100 -89.83398 0 -82.5 0 -46.75 -75 -36.66602 -83 rrcurveto
          80.66602 -40 rlineto
          23.83398 48 22 30 35.75 0 rrcurveto
          hintmask 1010111110000000
          55 0 38.5 -100 88 0 81.58301 0 46.75 66 37.58301 93 21.08398 51 25.66602 88 43.08398 44 59.58301 65 87.08301 -4 39.41699 0 rrcurveto
          146.66699 35.75 -117 -209 -206 -2.75 -77 -35.75 -24.75 -11.91699 26 74 hvcurveto
          300 vlineto
          -50.41699 30 -55 14 -48.58301 0 rrcurveto
          -132.91699 -62.33301 -105 -164 hvcurveto
          hintmask 0100011110000000
          -129 39.41699 -99 109.08301 vhcurveto
          65.08301 0 43.08398 42 20.16602 51 rrcurveto
          3.66699 hlineto
          hintmask 1010011110000000
          8.25 -75 32.08301 -63 69.66699 0 rrcurveto
          117.33301 27.5 138 252 hvcurveto
          249 -68.75 166 -217.25 vhcurveto
          -22 -590 rmoveto
          hintmask 0100111110000000
          -3.66602 -31 -8.25 -40 -40.33398 0 rrcurveto
          -34.83301 -10.08301 38 91 128 13.75 42 48.58301 hvcurveto
          13.75 0 10.08301 -3 11 -6 rrcurveto
          endchar
        </CharString>
        <CharString name="lig.40">
          -91 150 461 -21 97 138 -100 -20 hstemhm
          -30.25 129.25 55 74.25 81.58301 134.75 hintmask 11101110
          228.25 422 rmoveto
          175 vlineto
          37.58301 -3 66 -33 99 -62 rrcurveto
          157 vlineto
          -80.66602 57 -46.75 15 -75.16699 7 rrcurveto
          121 -74.25 -122 vlineto
          -113.66699 -13 -70.58301 -101 0 -109 0 -94 52.25 -61 132 -48 rrcurveto
          -249 vlineto
          -54.08301 4 -55.91699 16 -79.75 49 rrcurveto
          -297.91699 186 233.75 150 rlineto
          hintmask 11011110
          28.41699 170 -387.75 -264 0 -113 423.5 -286 rlineto
          63.25 -41 36.66699 -14 89.83301 -7 rrcurveto
          -71 74.25 78 vlineto
          146.66699 14 69.66602 141 0 113 rrcurveto
          0 107 -93.5 87 -122.83301 44 rrcurveto
          -74.25 31 rmoveto
          -47.66699 24 -7.33301 20 0 33 rrcurveto
          hintmask 11101110
          0 32 18.33301 27 36.66699 7 rrcurveto
          74.25 -536 rmoveto
          216 vlineto
          45.83301 -25 35.75 -34 0 -56 0 -45 -44 -47 -37.58301 -9 rrcurveto
          endchar
        </CharString>
        <CharString name="lig.41">
          638 -20 hstem
          276.83301 524 rmoveto
          -46.75 114 -507.83301 -246 0 -113 507.83301 -246 46.75 115 -392.33301 188 rlineto
          -191.58301 -316 rmoveto
          507.83301 -247 45.83301 115 -506.91602 244 rlineto
          endchar
        </CharString>
        <CharString name="lig.42">
          667 vmoveto
          -440.91699 -297 0 -113 440.91699 -297 440.91699 297 0 114 rlineto
          -440.91699 -254 rmoveto
          -315.33301 197 315.33301 201 315.33301 -201 rlineto
          endchar
        </CharString>
        <CharString name="lig.43">
          249 128 hstem
          -182.41699 649 rmoveto
          -276.83301 -336 276.83301 -336 95.33398 89 -64.16699 76 rlineto
          -37.58301 44 -33.91699 35 -37.58301 28 rrcurveto
          711.33301 128 -713.16699 hlineto
          39.41699 27 33 35 38.5 45 rrcurveto
          64.16699 76 rlineto
          endchar
        </CharString>
        <CharString name="lig.44">
          -28.41699 602 rmoveto
          84 callsubr
          404.25 111 rmoveto
          85 callsubr
          endchar
        </CharString>
        <CharString name="lig.45">
          17 -21 256 121 256 -20 hstem
          168.66699 120.08301 vstem
          -17.41699 655 rmoveto
          79 callsubr
          306.16699 125 rmoveto
          -120.08301 -256 -230.08398 -121 230.08398 -256 120.08301 256 231 121 -231 hlineto
          endchar
        </CharString>
        <CharString name="lig.46">
          -152 -21 hstem
          319.91699 817 rmoveto
          -323.58398 -732 -357.5 229 297.91699 190 -64.16699 109 -359.33301 -243 0 -113 430.83301 -292 -36.66602 -82 112.75 -56 411.58301 933 rlineto
          endchar
        </CharString>
        <CharString name="lig.47">
          -140 110 51 -21 145 104 37 128 32 105 179 110 hstem
          428.08301 730 rmoveto
          110 vlineto
          -168.66602 0 -64.16699 -49 13.75 -136 rrcurveto
          10.08301 -104 -251.16602 0 17.41602 142 -119.16602 0 -17.41699 -142 -88 0 17.41699 142 -120.08398 0 -16.5 -142 -70.58301 0 0 -105 57.75 0 -23.83301 -197 -67.83398 0 0 -104 rlineto
          55 0 -16.5 -145 119.16699 0 17.41699 145 88 0 -17.41699 -145 119.16699 0 17.41602 145 299.75 0 -10.08301 -101 rlineto
          -12.83301 -134 63.25 -50 168.66602 0 rrcurveto
          110 vlineto
          -55.91602 0 -33.91699 13 4.58301 50 rrcurveto
          13.75 148 rlineto
          11 113 -55 40 -98.08301 16 92.58301 15 60.5 42 -11 112 rrcurveto
          -13.75 148 rlineto
          -4.58301 50 33 13 56.83301 0 rrcurveto
          -616 -481 rmoveto
          66 callsubr
          119.16602 hmoveto
          249.33398 hlineto
          -22 -24 -38.5 -8 -47.66699 0 rrcurveto
          -128 vlineto
          51.33301 0 41.25 -10 20.16699 -27 rrcurveto
          -276.83301 hlineto
          endchar
        </CharString>
        <CharString name="lig.48">
          -123 117 27 -21 145 104 197 105 154 118 hstemhm
          143 282.33301 -282.33301 136.58301 hintmask 11111100
          425.33301 705 rmoveto
          118 -282.33301 vlineto
          hintmask 11111010
          -272 -175.08301 vlineto
          17.41602 142 -119.16602 0 -17.41699 -142 -88 0 17.41699 142 -120.08398 0 -16.5 -142 -70.58301 0 0 -105 57.75 0 -23.83301 -197 -67.83398 0 0 -104 55 0 -16.5 -145 rlineto
          119.16699 0 17.41699 145 88 0 -17.41699 -145 119.16699 0 17.41602 145 223.66699 0 rlineto
          hintmask 11111100
          -268 282.33301 117 vlineto
          hintmask 11111010
          -145.75 711 hlineto
          -467.5 -456 rmoveto
          66 callsubr
          96.25 -197 rmoveto
          22.91602 197 187.91699 0 0 -197 rlineto
          endchar
        </CharString>
        <CharString name="lig.49">
          21 -21 160 104 -94 104 92 102 -92 105 hstemhm
          hintmask 11001000
          -107.25 376 rmoveto
          67.83301 105 -55 hlineto
          24.75 212 -119.16602 0 -24.75 -212 -88 0 24.75 212 -120.08398 0 -23.83301 -212 -70.58301 0 0 -105 57.75 0 -13.75 -112 -67.83398 0 0 -104 55 0 -19.25 -160 rlineto
          119.16699 0 20.16699 160 88 0 -20.16699 -160 119.16699 0 20.16602 160 69.66699 0 0 104 -56.83301 0 rlineto
          hintmask 10010000
          558.25 204 rmoveto
          -418 -102 418 hlineto
          hintmask 11001000
          -766.33398 -102 rmoveto
          13.75 112 88 0 -13.75 -112 rlineto
          hintmask 10100000
          654.5 10 rmoveto
          -418 -104 418 hlineto
          endchar
        </CharString>
</ttFont>
